<mxfile host="Electron" agent="Mozilla/5.0 (Macintosh; Intel Mac OS X 10_15_7) AppleWebKit/537.36 (KHTML, like Gecko) draw.io/26.0.9 Chrome/128.0.6613.186 Electron/32.2.5 Safari/537.36" version="26.0.9" pages="4">
  <diagram name="Page-1" id="7cqw8-rkloaj0x7Q5P0b">
    <mxGraphModel dx="1272" dy="969" grid="1" gridSize="10" guides="1" tooltips="1" connect="1" arrows="1" fold="1" page="1" pageScale="1" pageWidth="1169" pageHeight="827" math="0" shadow="0">
      <root>
        <mxCell id="0" />
        <mxCell id="1" parent="0" />
        <mxCell id="eG_-JXUk548v6Uc1YCZZ-1" value="" style="strokeWidth=1;shadow=0;dashed=0;align=center;html=1;shape=mxgraph.mockup.containers.browserWindow;rSize=0;strokeColor=#666666;strokeColor2=#008cff;strokeColor3=#c4c4c4;mainText=,;recursiveResize=0;" vertex="1" parent="1">
          <mxGeometry width="1169" height="827" as="geometry" />
        </mxCell>
        <mxCell id="eG_-JXUk548v6Uc1YCZZ-2" value="Page 1" style="strokeWidth=1;shadow=0;dashed=0;align=center;html=1;shape=mxgraph.mockup.containers.anchor;fontSize=17;fontColor=#666666;align=left;whiteSpace=wrap;" vertex="1" parent="eG_-JXUk548v6Uc1YCZZ-1">
          <mxGeometry x="60" y="12" width="110" height="26" as="geometry" />
        </mxCell>
        <mxCell id="eG_-JXUk548v6Uc1YCZZ-3" value="https://www.draw.io" style="strokeWidth=1;shadow=0;dashed=0;align=center;html=1;shape=mxgraph.mockup.containers.anchor;rSize=0;fontSize=17;fontColor=#666666;align=left;" vertex="1" parent="eG_-JXUk548v6Uc1YCZZ-1">
          <mxGeometry x="130" y="60" width="250" height="26" as="geometry" />
        </mxCell>
        <mxCell id="1yMHPA037drUw1fF9puz-1" value="" style="strokeWidth=1;shadow=0;dashed=0;align=center;html=1;shape=mxgraph.mockup.forms.rrect;rSize=0;strokeColor=#999999;fillColor=#ffffff;" vertex="1" parent="1">
          <mxGeometry x="440" y="260" width="200" height="300" as="geometry" />
        </mxCell>
        <mxCell id="1yMHPA037drUw1fF9puz-2" value="Sign In" style="strokeWidth=1;shadow=0;dashed=0;align=center;html=1;shape=mxgraph.mockup.forms.anchor;fontSize=12;fontColor=#666666;align=left;resizeWidth=1;spacingLeft=0;" vertex="1" parent="1yMHPA037drUw1fF9puz-1">
          <mxGeometry width="100" height="20" relative="1" as="geometry">
            <mxPoint x="10" y="10" as="offset" />
          </mxGeometry>
        </mxCell>
        <mxCell id="1yMHPA037drUw1fF9puz-3" value="" style="shape=line;strokeColor=#ddeeff;strokeWidth=2;html=1;resizeWidth=1;" vertex="1" parent="1yMHPA037drUw1fF9puz-1">
          <mxGeometry width="180" height="10" relative="1" as="geometry">
            <mxPoint x="10" y="30" as="offset" />
          </mxGeometry>
        </mxCell>
        <mxCell id="1yMHPA037drUw1fF9puz-4" value="User Name:" style="strokeWidth=1;shadow=0;dashed=0;align=center;html=1;shape=mxgraph.mockup.forms.anchor;fontSize=12;fontColor=#666666;align=left;resizeWidth=1;spacingLeft=0;" vertex="1" parent="1yMHPA037drUw1fF9puz-1">
          <mxGeometry width="100" height="20" relative="1" as="geometry">
            <mxPoint x="10" y="40" as="offset" />
          </mxGeometry>
        </mxCell>
        <mxCell id="1yMHPA037drUw1fF9puz-5" value="johndoe" style="strokeWidth=1;shadow=0;dashed=0;align=center;html=1;shape=mxgraph.mockup.forms.rrect;rSize=0;strokeColor=#999999;fontColor=#666666;align=left;spacingLeft=5;resizeWidth=1;" vertex="1" parent="1yMHPA037drUw1fF9puz-1">
          <mxGeometry width="150" height="25" relative="1" as="geometry">
            <mxPoint x="10" y="60" as="offset" />
          </mxGeometry>
        </mxCell>
        <mxCell id="1yMHPA037drUw1fF9puz-6" value="Password:" style="strokeWidth=1;shadow=0;dashed=0;align=center;html=1;shape=mxgraph.mockup.forms.anchor;fontSize=12;fontColor=#666666;align=left;resizeWidth=1;spacingLeft=0;" vertex="1" parent="1yMHPA037drUw1fF9puz-1">
          <mxGeometry width="100" height="20" relative="1" as="geometry">
            <mxPoint x="10" y="95" as="offset" />
          </mxGeometry>
        </mxCell>
        <mxCell id="1yMHPA037drUw1fF9puz-7" value="********" style="strokeWidth=1;shadow=0;dashed=0;align=center;html=1;shape=mxgraph.mockup.forms.rrect;rSize=0;strokeColor=#999999;fontColor=#666666;align=left;spacingLeft=5;resizeWidth=1;" vertex="1" parent="1yMHPA037drUw1fF9puz-1">
          <mxGeometry width="150" height="25" relative="1" as="geometry">
            <mxPoint x="10" y="115" as="offset" />
          </mxGeometry>
        </mxCell>
        <mxCell id="1yMHPA037drUw1fF9puz-8" value="SIGN IN" style="strokeWidth=1;shadow=0;dashed=0;align=center;html=1;shape=mxgraph.mockup.forms.rrect;rSize=5;strokeColor=none;fontColor=#ffffff;fillColor=#66bbff;fontSize=16;fontStyle=1;" vertex="1" parent="1yMHPA037drUw1fF9puz-1">
          <mxGeometry y="1" width="80" height="30" relative="1" as="geometry">
            <mxPoint x="20" y="-150" as="offset" />
          </mxGeometry>
        </mxCell>
        <mxCell id="1yMHPA037drUw1fF9puz-9" value="Forgot Password?" style="strokeWidth=1;shadow=0;dashed=0;align=center;html=1;shape=mxgraph.mockup.forms.anchor;fontSize=12;fontColor=#9999ff;align=left;spacingLeft=0;fontStyle=4;resizeWidth=1;" vertex="1" parent="1yMHPA037drUw1fF9puz-1">
          <mxGeometry y="1" width="150" height="20" relative="1" as="geometry">
            <mxPoint x="10" y="-110" as="offset" />
          </mxGeometry>
        </mxCell>
        <mxCell id="1yMHPA037drUw1fF9puz-10" value="" style="shape=line;strokeColor=#ddeeff;strokeWidth=2;html=1;resizeWidth=1;" vertex="1" parent="1yMHPA037drUw1fF9puz-1">
          <mxGeometry y="1" width="180" height="10" relative="1" as="geometry">
            <mxPoint x="10" y="-90" as="offset" />
          </mxGeometry>
        </mxCell>
        <mxCell id="1yMHPA037drUw1fF9puz-11" value="New User" style="strokeWidth=1;shadow=0;dashed=0;align=center;html=1;shape=mxgraph.mockup.forms.anchor;fontSize=12;fontColor=#666666;align=left;spacingLeft=0;resizeWidth=1;" vertex="1" parent="1yMHPA037drUw1fF9puz-1">
          <mxGeometry y="1" width="150" height="20" relative="1" as="geometry">
            <mxPoint x="10" y="-70" as="offset" />
          </mxGeometry>
        </mxCell>
        <mxCell id="1yMHPA037drUw1fF9puz-12" value="SIGN UP" style="strokeWidth=1;shadow=0;dashed=0;align=center;html=1;shape=mxgraph.mockup.forms.rrect;rSize=5;strokeColor=none;fontColor=#ffffff;fillColor=#66bbff;fontSize=16;fontStyle=1;" vertex="1" parent="1yMHPA037drUw1fF9puz-1">
          <mxGeometry y="1" width="80" height="30" relative="1" as="geometry">
            <mxPoint x="20" y="-50" as="offset" />
          </mxGeometry>
        </mxCell>
      </root>
    </mxGraphModel>
  </diagram>
  <diagram name="Copy of Page-1" id="W32o-CRAA2hD_7Bh9MCV">
    <mxGraphModel dx="1363" dy="1039" grid="1" gridSize="10" guides="1" tooltips="1" connect="1" arrows="1" fold="1" page="1" pageScale="1" pageWidth="1169" pageHeight="827" math="0" shadow="0">
      <root>
        <mxCell id="lAURRO7PPgRWYJF85Bkb-0" />
        <mxCell id="lAURRO7PPgRWYJF85Bkb-1" parent="lAURRO7PPgRWYJF85Bkb-0" />
        <mxCell id="lAURRO7PPgRWYJF85Bkb-2" value="" style="strokeWidth=1;shadow=0;dashed=0;align=center;html=1;shape=mxgraph.mockup.containers.browserWindow;rSize=0;strokeColor=#666666;strokeColor2=#008cff;strokeColor3=#c4c4c4;mainText=,;recursiveResize=0;" vertex="1" parent="lAURRO7PPgRWYJF85Bkb-1">
          <mxGeometry width="1192" height="827" as="geometry" />
        </mxCell>
        <mxCell id="nkRwOXdUJObAbroi6b5D-0" value="" style="html=1;dashed=0;whiteSpace=wrap;fillColor=#666666;" vertex="1" parent="lAURRO7PPgRWYJF85Bkb-2">
          <mxGeometry x="2" y="109" width="1165" height="718" as="geometry" />
        </mxCell>
        <mxCell id="lAURRO7PPgRWYJF85Bkb-3" value="Page 1" style="strokeWidth=1;shadow=0;dashed=0;align=center;html=1;shape=mxgraph.mockup.containers.anchor;fontSize=17;fontColor=#666666;align=left;whiteSpace=wrap;" vertex="1" parent="lAURRO7PPgRWYJF85Bkb-2">
          <mxGeometry x="60" y="12" width="110" height="26" as="geometry" />
        </mxCell>
        <mxCell id="lAURRO7PPgRWYJF85Bkb-4" value="https://www.didheconnect.io" style="strokeWidth=1;shadow=0;dashed=0;align=center;html=1;shape=mxgraph.mockup.containers.anchor;rSize=0;fontSize=17;fontColor=#666666;align=left;" vertex="1" parent="lAURRO7PPgRWYJF85Bkb-2">
          <mxGeometry x="130" y="60" width="250" height="26" as="geometry" />
        </mxCell>
        <mxCell id="8xX-B81gMHsfD3JGIo0J-4" value="" style="rounded=0;whiteSpace=wrap;html=1;strokeColor=#B266FF;strokeWidth=4;fillColor=#808080;" vertex="1" parent="lAURRO7PPgRWYJF85Bkb-2">
          <mxGeometry x="20" y="110" width="1130" height="90" as="geometry" />
        </mxCell>
        <mxCell id="8xX-B81gMHsfD3JGIo0J-0" value="" style="sketch=0;aspect=fixed;pointerEvents=1;shadow=0;dashed=0;html=1;strokeColor=#B266FF;labelPosition=center;verticalLabelPosition=bottom;verticalAlign=top;align=center;fillColor=#f5f5f5;shape=mxgraph.mscae.enterprise.filter;fontColor=#333333;strokeWidth=4;" vertex="1" parent="lAURRO7PPgRWYJF85Bkb-2">
          <mxGeometry x="1070" y="135" width="60" height="54" as="geometry" />
        </mxCell>
        <mxCell id="8xX-B81gMHsfD3JGIo0J-9" value="" style="sketch=0;pointerEvents=1;shadow=0;dashed=0;html=1;strokeColor=none;labelPosition=center;verticalLabelPosition=bottom;verticalAlign=top;outlineConnect=0;align=center;shape=mxgraph.office.concepts.home;fillColor=#CCCBCB;" vertex="1" parent="lAURRO7PPgRWYJF85Bkb-2">
          <mxGeometry x="40" y="120" width="70" height="70" as="geometry" />
        </mxCell>
        <mxCell id="7_ptH5n7fRQIG6JcrQS5-0" value="" style="rounded=1;whiteSpace=wrap;html=1;arcSize=7;fillColor=#808080;strokeColor=#B266FF;strokeWidth=4;" vertex="1" parent="lAURRO7PPgRWYJF85Bkb-2">
          <mxGeometry x="800" y="220" width="350" height="590" as="geometry" />
        </mxCell>
        <mxCell id="7_ptH5n7fRQIG6JcrQS5-1" value="" style="rounded=1;whiteSpace=wrap;html=1;" vertex="1" parent="lAURRO7PPgRWYJF85Bkb-2">
          <mxGeometry x="810" y="408" width="330" height="90" as="geometry" />
        </mxCell>
        <mxCell id="7_ptH5n7fRQIG6JcrQS5-2" value="" style="rounded=1;whiteSpace=wrap;html=1;" vertex="1" parent="lAURRO7PPgRWYJF85Bkb-2">
          <mxGeometry x="810" y="508" width="330" height="90" as="geometry" />
        </mxCell>
        <mxCell id="7_ptH5n7fRQIG6JcrQS5-3" value="" style="rounded=1;whiteSpace=wrap;html=1;" vertex="1" parent="lAURRO7PPgRWYJF85Bkb-2">
          <mxGeometry x="810" y="608" width="330" height="90" as="geometry" />
        </mxCell>
        <mxCell id="7_ptH5n7fRQIG6JcrQS5-4" value="" style="rounded=1;whiteSpace=wrap;html=1;" vertex="1" parent="lAURRO7PPgRWYJF85Bkb-2">
          <mxGeometry x="810" y="708" width="330" height="90" as="geometry" />
        </mxCell>
        <mxCell id="7_ptH5n7fRQIG6JcrQS5-9" value="" style="rounded=1;whiteSpace=wrap;html=1;" vertex="1" parent="lAURRO7PPgRWYJF85Bkb-2">
          <mxGeometry x="810" y="308" width="330" height="90" as="geometry" />
        </mxCell>
        <mxCell id="7_ptH5n7fRQIG6JcrQS5-10" value="&lt;font style=&quot;font-size: 41px; color: rgb(255, 255, 255);&quot;&gt;Friends (67)&lt;/font&gt;" style="text;html=1;align=center;verticalAlign=middle;whiteSpace=wrap;rounded=0;" vertex="1" parent="lAURRO7PPgRWYJF85Bkb-2">
          <mxGeometry x="820" y="250" width="310" height="30" as="geometry" />
        </mxCell>
        <mxCell id="7_ptH5n7fRQIG6JcrQS5-17" value="" style="endArrow=none;html=1;rounded=0;entryX=1;entryY=0.5;entryDx=0;entryDy=0;exitX=0;exitY=0.5;exitDx=0;exitDy=0;" edge="1" parent="lAURRO7PPgRWYJF85Bkb-2" source="7_ptH5n7fRQIG6JcrQS5-9" target="7_ptH5n7fRQIG6JcrQS5-9">
          <mxGeometry width="50" height="50" relative="1" as="geometry">
            <mxPoint x="920" y="378" as="sourcePoint" />
            <mxPoint x="970" y="328" as="targetPoint" />
          </mxGeometry>
        </mxCell>
        <mxCell id="7_ptH5n7fRQIG6JcrQS5-18" value="&lt;font style=&quot;font-size: 15px;&quot;&gt;Mahou Shen&lt;/font&gt;" style="text;html=1;align=center;verticalAlign=middle;whiteSpace=wrap;rounded=0;" vertex="1" parent="lAURRO7PPgRWYJF85Bkb-2">
          <mxGeometry x="908" y="320" width="88" height="30" as="geometry" />
        </mxCell>
        <mxCell id="7_ptH5n7fRQIG6JcrQS5-20" value="" style="endArrow=none;html=1;rounded=0;entryX=1;entryY=0.5;entryDx=0;entryDy=0;exitX=0;exitY=0.5;exitDx=0;exitDy=0;" edge="1" parent="lAURRO7PPgRWYJF85Bkb-2">
          <mxGeometry width="50" height="50" relative="1" as="geometry">
            <mxPoint x="810" y="452.62" as="sourcePoint" />
            <mxPoint x="1140" y="452.62" as="targetPoint" />
          </mxGeometry>
        </mxCell>
        <mxCell id="7_ptH5n7fRQIG6JcrQS5-21" value="" style="endArrow=none;html=1;rounded=0;entryX=1;entryY=0.5;entryDx=0;entryDy=0;exitX=0;exitY=0.5;exitDx=0;exitDy=0;" edge="1" parent="lAURRO7PPgRWYJF85Bkb-2" source="JS5RN00amlKPowmsBt5I-37">
          <mxGeometry width="50" height="50" relative="1" as="geometry">
            <mxPoint x="810" y="552.62" as="sourcePoint" />
            <mxPoint x="1140" y="552.62" as="targetPoint" />
          </mxGeometry>
        </mxCell>
        <mxCell id="7_ptH5n7fRQIG6JcrQS5-22" value="" style="endArrow=none;html=1;rounded=0;entryX=1;entryY=0.5;entryDx=0;entryDy=0;exitX=0;exitY=0.5;exitDx=0;exitDy=0;" edge="1" parent="lAURRO7PPgRWYJF85Bkb-2">
          <mxGeometry width="50" height="50" relative="1" as="geometry">
            <mxPoint x="810" y="652.62" as="sourcePoint" />
            <mxPoint x="1140" y="652.62" as="targetPoint" />
          </mxGeometry>
        </mxCell>
        <mxCell id="7_ptH5n7fRQIG6JcrQS5-23" value="" style="endArrow=none;html=1;rounded=0;entryX=1;entryY=0.5;entryDx=0;entryDy=0;exitX=0;exitY=0.5;exitDx=0;exitDy=0;" edge="1" parent="lAURRO7PPgRWYJF85Bkb-2" source="JS5RN00amlKPowmsBt5I-40">
          <mxGeometry width="50" height="50" relative="1" as="geometry">
            <mxPoint x="810" y="752.62" as="sourcePoint" />
            <mxPoint x="1140" y="752.62" as="targetPoint" />
          </mxGeometry>
        </mxCell>
        <mxCell id="7_ptH5n7fRQIG6JcrQS5-19" value="&lt;font style=&quot;font-size: 15px;&quot;&gt;Maxwell Clack&lt;/font&gt;" style="text;html=1;align=center;verticalAlign=middle;whiteSpace=wrap;rounded=0;" vertex="1" parent="lAURRO7PPgRWYJF85Bkb-2">
          <mxGeometry x="908" y="420" width="100" height="30" as="geometry" />
        </mxCell>
        <mxCell id="7_ptH5n7fRQIG6JcrQS5-46" value="&lt;span style=&quot;font-size: 15px;&quot;&gt;Koenmicboen&lt;/span&gt;" style="text;html=1;align=center;verticalAlign=middle;whiteSpace=wrap;rounded=0;" vertex="1" parent="lAURRO7PPgRWYJF85Bkb-2">
          <mxGeometry x="908" y="520" width="92" height="30" as="geometry" />
        </mxCell>
        <mxCell id="7_ptH5n7fRQIG6JcrQS5-47" value="&lt;span style=&quot;font-size: 15px;&quot;&gt;Daminiminin&lt;/span&gt;" style="text;html=1;align=center;verticalAlign=middle;whiteSpace=wrap;rounded=0;" vertex="1" parent="lAURRO7PPgRWYJF85Bkb-2">
          <mxGeometry x="908" y="620" width="82" height="30" as="geometry" />
        </mxCell>
        <mxCell id="7_ptH5n7fRQIG6JcrQS5-48" value="&lt;span style=&quot;font-size: 15px;&quot;&gt;Jewwon Son&lt;/span&gt;" style="text;html=1;align=center;verticalAlign=middle;whiteSpace=wrap;rounded=0;" vertex="1" parent="lAURRO7PPgRWYJF85Bkb-2">
          <mxGeometry x="908" y="720" width="92" height="30" as="geometry" />
        </mxCell>
        <mxCell id="7_ptH5n7fRQIG6JcrQS5-50" value="" style="html=1;verticalLabelPosition=bottom;labelBackgroundColor=#ffffff;verticalAlign=top;shadow=0;dashed=0;strokeWidth=2;shape=mxgraph.ios7.misc.scroll_(vertical);fillColor=#a0a0a0;textOpacity=50;" vertex="1" parent="lAURRO7PPgRWYJF85Bkb-2">
          <mxGeometry x="1144" y="308" width="6" height="80" as="geometry" />
        </mxCell>
        <mxCell id="7_ptH5n7fRQIG6JcrQS5-53" value="" style="group;strokeColor=#B266FF;strokeWidth=4;" vertex="1" connectable="0" parent="lAURRO7PPgRWYJF85Bkb-2">
          <mxGeometry x="20" y="220" width="760" height="590" as="geometry" />
        </mxCell>
        <mxCell id="7_ptH5n7fRQIG6JcrQS5-49" value="" style="shape=process;whiteSpace=wrap;html=1;backgroundOutline=1;size=0;strokeColor=none;" vertex="1" parent="7_ptH5n7fRQIG6JcrQS5-53">
          <mxGeometry width="760" height="590" as="geometry" />
        </mxCell>
        <mxCell id="7_ptH5n7fRQIG6JcrQS5-61" value="" style="group" vertex="1" connectable="0" parent="7_ptH5n7fRQIG6JcrQS5-53">
          <mxGeometry x="10" y="330" width="740" height="250" as="geometry" />
        </mxCell>
        <mxCell id="7_ptH5n7fRQIG6JcrQS5-104" value="" style="group" vertex="1" connectable="0" parent="7_ptH5n7fRQIG6JcrQS5-61">
          <mxGeometry x="-0.004743589743585429" width="740.0047435897437" height="250" as="geometry" />
        </mxCell>
        <mxCell id="7_ptH5n7fRQIG6JcrQS5-55" value="" style="rounded=1;whiteSpace=wrap;html=1;arcSize=3;" vertex="1" parent="7_ptH5n7fRQIG6JcrQS5-104">
          <mxGeometry x="0.004743589743585429" width="740.0000000000001" height="250" as="geometry" />
        </mxCell>
        <mxCell id="7_ptH5n7fRQIG6JcrQS5-56" value="Yo i like to hike" style="text;html=1;align=left;verticalAlign=top;whiteSpace=wrap;rounded=0;" vertex="1" parent="7_ptH5n7fRQIG6JcrQS5-104">
          <mxGeometry y="0.003333333333337407" width="678.3333333333334" height="208.33333333333337" as="geometry" />
        </mxCell>
        <mxCell id="7_ptH5n7fRQIG6JcrQS5-65" value="Hiking" style="rounded=1;whiteSpace=wrap;html=1;" vertex="1" parent="7_ptH5n7fRQIG6JcrQS5-53">
          <mxGeometry x="10" y="265" width="90" height="35" as="geometry" />
        </mxCell>
        <mxCell id="7_ptH5n7fRQIG6JcrQS5-99" value="Gaming" style="rounded=1;whiteSpace=wrap;html=1;" vertex="1" parent="7_ptH5n7fRQIG6JcrQS5-53">
          <mxGeometry x="110" y="265" width="90" height="35" as="geometry" />
        </mxCell>
        <mxCell id="7_ptH5n7fRQIG6JcrQS5-103" value="About me:" style="text;html=1;align=center;verticalAlign=middle;whiteSpace=wrap;rounded=0;" vertex="1" parent="7_ptH5n7fRQIG6JcrQS5-53">
          <mxGeometry x="10" y="300" width="60" height="30" as="geometry" />
        </mxCell>
        <mxCell id="7_ptH5n7fRQIG6JcrQS5-105" value="Name: Jacquese" style="text;html=1;align=center;verticalAlign=middle;whiteSpace=wrap;rounded=0;" vertex="1" parent="7_ptH5n7fRQIG6JcrQS5-53">
          <mxGeometry x="10" y="10" width="100" height="30" as="geometry" />
        </mxCell>
        <mxCell id="7_ptH5n7fRQIG6JcrQS5-106" value="Gender: Male" style="text;html=1;align=center;verticalAlign=middle;whiteSpace=wrap;rounded=0;" vertex="1" parent="7_ptH5n7fRQIG6JcrQS5-53">
          <mxGeometry x="10" y="40" width="80" height="30" as="geometry" />
        </mxCell>
        <mxCell id="7_ptH5n7fRQIG6JcrQS5-107" value="Status: Unavailable" style="text;html=1;align=center;verticalAlign=middle;whiteSpace=wrap;rounded=0;" vertex="1" parent="7_ptH5n7fRQIG6JcrQS5-53">
          <mxGeometry x="10" y="70" width="110" height="30" as="geometry" />
        </mxCell>
        <mxCell id="7_ptH5n7fRQIG6JcrQS5-114" value="Interests:" style="text;html=1;align=center;verticalAlign=middle;whiteSpace=wrap;rounded=0;" vertex="1" parent="7_ptH5n7fRQIG6JcrQS5-53">
          <mxGeometry x="10" y="235" width="50" height="30" as="geometry" />
        </mxCell>
        <mxCell id="YcmPYuP2He4cXX_3Fp1e-0" value="&lt;font style=&quot;font-size: 20px;&quot;&gt;Send Friend&lt;/font&gt;" style="html=1;dashed=0;whiteSpace=wrap;shape=mxgraph.dfd.start" vertex="1" parent="7_ptH5n7fRQIG6JcrQS5-53">
          <mxGeometry x="490" y="280" width="120" height="40" as="geometry" />
        </mxCell>
        <mxCell id="YcmPYuP2He4cXX_3Fp1e-1" value="&lt;font style=&quot;font-size: 20px;&quot;&gt;Go Next&lt;/font&gt;" style="html=1;dashed=0;whiteSpace=wrap;shape=mxgraph.dfd.start" vertex="1" parent="7_ptH5n7fRQIG6JcrQS5-53">
          <mxGeometry x="620" y="280" width="120" height="40" as="geometry" />
        </mxCell>
        <mxCell id="JS5RN00amlKPowmsBt5I-0" value="&lt;span style=&quot;color: rgba(0, 0, 0, 0); font-family: monospace; font-size: 0px; text-align: start;&quot;&gt;%3CmxGraphModel%3E%3Croot%3E%3CmxCell%20id%3D%220%22%2F%3E%3CmxCell%20id%3D%221%22%20parent%3D%220%22%2F%3E%3CmxCell%20id%3D%222%22%20value%3D%22%22%20style%3D%22group%22%20vertex%3D%221%22%20connectable%3D%220%22%20parent%3D%221%22%3E%3CmxGeometry%20x%3D%2220%22%20y%3D%22220%22%20width%3D%22760%22%20height%3D%22590%22%20as%3D%22geometry%22%2F%3E%3C%2FmxCell%3E%3CmxCell%20id%3D%223%22%20value%3D%22%22%20style%3D%22shape%3Dprocess%3BwhiteSpace%3Dwrap%3Bhtml%3D1%3BbackgroundOutline%3D1%3Bsize%3D0%3B%22%20vertex%3D%221%22%20parent%3D%222%22%3E%3CmxGeometry%20width%3D%22760%22%20height%3D%22590%22%20as%3D%22geometry%22%2F%3E%3C%2FmxCell%3E%3CmxCell%20id%3D%224%22%20value%3D%22%22%20style%3D%22group%22%20vertex%3D%221%22%20connectable%3D%220%22%20parent%3D%222%22%3E%3CmxGeometry%20x%3D%2210%22%20y%3D%22330%22%20width%3D%22740%22%20height%3D%22250%22%20as%3D%22geometry%22%2F%3E%3C%2FmxCell%3E%3CmxCell%20id%3D%225%22%20value%3D%22%22%20style%3D%22group%22%20vertex%3D%221%22%20connectable%3D%220%22%20parent%3D%224%22%3E%3CmxGeometry%20x%3D%22-0.004743589743585429%22%20width%3D%22740.0047435897437%22%20height%3D%22250%22%20as%3D%22geometry%22%2F%3E%3C%2FmxCell%3E%3CmxCell%20id%3D%226%22%20value%3D%22%22%20style%3D%22rounded%3D1%3BwhiteSpace%3Dwrap%3Bhtml%3D1%3BarcSize%3D3%3B%22%20vertex%3D%221%22%20parent%3D%225%22%3E%3CmxGeometry%20x%3D%220.004743589743585429%22%20width%3D%22740.0000000000001%22%20height%3D%22250%22%20as%3D%22geometry%22%2F%3E%3C%2FmxCell%3E%3CmxCell%20id%3D%227%22%20value%3D%22Yo%20i%20like%20to%20hike%22%20style%3D%22text%3Bhtml%3D1%3Balign%3Dleft%3BverticalAlign%3Dtop%3BwhiteSpace%3Dwrap%3Brounded%3D0%3B%22%20vertex%3D%221%22%20parent%3D%225%22%3E%3CmxGeometry%20y%3D%220.003333333333337407%22%20width%3D%22678.3333333333334%22%20height%3D%22208.33333333333337%22%20as%3D%22geometry%22%2F%3E%3C%2FmxCell%3E%3CmxCell%20id%3D%228%22%20value%3D%22Hiking%22%20style%3D%22rounded%3D1%3BwhiteSpace%3Dwrap%3Bhtml%3D1%3B%22%20vertex%3D%221%22%20parent%3D%222%22%3E%3CmxGeometry%20x%3D%2210%22%20y%3D%22265%22%20width%3D%2290%22%20height%3D%2235%22%20as%3D%22geometry%22%2F%3E%3C%2FmxCell%3E%3CmxCell%20id%3D%229%22%20value%3D%22Gaming%22%20style%3D%22rounded%3D1%3BwhiteSpace%3Dwrap%3Bhtml%3D1%3B%22%20vertex%3D%221%22%20parent%3D%222%22%3E%3CmxGeometry%20x%3D%22110%22%20y%3D%22265%22%20width%3D%2290%22%20height%3D%2235%22%20as%3D%22geometry%22%2F%3E%3C%2FmxCell%3E%3CmxCell%20id%3D%2210%22%20value%3D%22About%20me%3A%22%20style%3D%22text%3Bhtml%3D1%3Balign%3Dcenter%3BverticalAlign%3Dmiddle%3BwhiteSpace%3Dwrap%3Brounded%3D0%3B%22%20vertex%3D%221%22%20parent%3D%222%22%3E%3CmxGeometry%20x%3D%2210%22%20y%3D%22300%22%20width%3D%2260%22%20height%3D%2230%22%20as%3D%22geometry%22%2F%3E%3C%2FmxCell%3E%3CmxCell%20id%3D%2211%22%20value%3D%22Name%3A%20Jacquese%22%20style%3D%22text%3Bhtml%3D1%3Balign%3Dcenter%3BverticalAlign%3Dmiddle%3BwhiteSpace%3Dwrap%3Brounded%3D0%3B%22%20vertex%3D%221%22%20parent%3D%222%22%3E%3CmxGeometry%20x%3D%2210%22%20y%3D%2210%22%20width%3D%22100%22%20height%3D%2230%22%20as%3D%22geometry%22%2F%3E%3C%2FmxCell%3E%3CmxCell%20id%3D%2212%22%20value%3D%22Gender%3A%20Male%22%20style%3D%22text%3Bhtml%3D1%3Balign%3Dcenter%3BverticalAlign%3Dmiddle%3BwhiteSpace%3Dwrap%3Brounded%3D0%3B%22%20vertex%3D%221%22%20parent%3D%222%22%3E%3CmxGeometry%20x%3D%2210%22%20y%3D%2240%22%20width%3D%2280%22%20height%3D%2230%22%20as%3D%22geometry%22%2F%3E%3C%2FmxCell%3E%3CmxCell%20id%3D%2213%22%20value%3D%22Status%3A%20Single%22%20style%3D%22text%3Bhtml%3D1%3Balign%3Dcenter%3BverticalAlign%3Dmiddle%3BwhiteSpace%3Dwrap%3Brounded%3D0%3B%22%20vertex%3D%221%22%20parent%3D%222%22%3E%3CmxGeometry%20x%3D%2210%22%20y%3D%2270%22%20width%3D%2280%22%20height%3D%2230%22%20as%3D%22geometry%22%2F%3E%3C%2FmxCell%3E%3CmxCell%20id%3D%2214%22%20value%3D%22Interests%3A%22%20style%3D%22text%3Bhtml%3D1%3Balign%3Dcenter%3BverticalAlign%3Dmiddle%3BwhiteSpace%3Dwrap%3Brounded%3D0%3B%22%20vertex%3D%221%22%20parent%3D%222%22%3E%3CmxGeometry%20x%3D%2210%22%20y%3D%22235%22%20width%3D%2250%22%20height%3D%2230%22%20as%3D%22geometry%22%2F%3E%3C%2FmxCell%3E%3CmxCell%20id%3D%2215%22%20value%3D%22%26lt%3Bfont%20style%3D%26quot%3Bfont-size%3A%2020px%3B%26quot%3B%26gt%3BSend%20Friend%26lt%3B%2Ffont%26gt%3B%22%20style%3D%22html%3D1%3Bdashed%3D0%3BwhiteSpace%3Dwrap%3Bshape%3Dmxgraph.dfd.start%22%20vertex%3D%221%22%20parent%3D%222%22%3E%3CmxGeometry%20x%3D%22490%22%20y%3D%22280%22%20width%3D%22120%22%20height%3D%2240%22%20as%3D%22geometry%22%2F%3E%3C%2FmxCell%3E%3CmxCell%20id%3D%2216%22%20value%3D%22%26lt%3Bfont%20style%3D%26quot%3Bfont-size%3A%2020px%3B%26quot%3B%26gt%3BGo%20Next%26lt%3B%2Ffont%26gt%3B%22%20style%3D%22html%3D1%3Bdashed%3D0%3BwhiteSpace%3Dwrap%3Bshape%3Dmxgraph.dfd.start%22%20vertex%3D%221%22%20parent%3D%222%22%3E%3CmxGeometry%20x%3D%22620%22%20y%3D%22280%22%20width%3D%22120%22%20height%3D%2240%22%20as%3D%22geometry%22%2F%3E%3C%2FmxCell%3E%3CmxCell%20id%3D%2217%22%20value%3D%22%22%20style%3D%22verticalLabelPosition%3Dbottom%3Bshadow%3D0%3Bdashed%3D0%3Balign%3Dcenter%3Bhtml%3D1%3BverticalAlign%3Dtop%3BstrokeWidth%3D1%3Bshape%3Dmxgraph.mockup.containers.userMale%3BstrokeColor%3D%23666666%3BstrokeColor2%3D%23008cff%3B%22%20vertex%3D%221%22%20parent%3D%222%22%3E%3CmxGeometry%20x%3D%22490%22%20y%3D%2220%22%20width%3D%22250%22%20height%3D%22250%22%20as%3D%22geometry%22%2F%3E%3C%2FmxCell%3E%3C%2Froot%3E%3C%2FmxGraphModel%3E&lt;/span&gt;" style="verticalLabelPosition=bottom;shadow=0;dashed=0;align=center;html=1;verticalAlign=top;strokeWidth=1;shape=mxgraph.mockup.containers.userMale;strokeColor=#666666;strokeColor2=#008cff;" vertex="1" parent="7_ptH5n7fRQIG6JcrQS5-53">
          <mxGeometry x="490" y="20" width="250" height="250" as="geometry" />
        </mxCell>
        <mxCell id="wx8Vgp3tyqvrlBc7rLsZ-5" value="Age: 7" style="text;html=1;align=center;verticalAlign=middle;whiteSpace=wrap;rounded=0;" vertex="1" parent="7_ptH5n7fRQIG6JcrQS5-53">
          <mxGeometry x="10" y="100" width="40" height="30" as="geometry" />
        </mxCell>
        <mxCell id="7_ptH5n7fRQIG6JcrQS5-63" value="&lt;font style=&quot;color: rgb(255, 255, 255);&quot;&gt;Profile&lt;/font&gt;" style="text;html=1;align=center;verticalAlign=middle;whiteSpace=wrap;rounded=0;fontSize=41;" vertex="1" parent="lAURRO7PPgRWYJF85Bkb-2">
          <mxGeometry x="270" y="140" width="60" height="30" as="geometry" />
        </mxCell>
        <mxCell id="7_ptH5n7fRQIG6JcrQS5-110" value="&lt;font style=&quot;font-size: 30px; color: rgb(255, 255, 255);&quot;&gt;Search by Filter&lt;/font&gt;" style="text;html=1;align=center;verticalAlign=middle;whiteSpace=wrap;rounded=0;fontSize=41;" vertex="1" parent="lAURRO7PPgRWYJF85Bkb-2">
          <mxGeometry x="800" y="140" width="290" height="30" as="geometry" />
        </mxCell>
        <mxCell id="7_ptH5n7fRQIG6JcrQS5-111" value="&lt;font style=&quot;color: rgb(255, 255, 255);&quot;&gt;Requests&lt;/font&gt;" style="text;html=1;align=center;verticalAlign=middle;whiteSpace=wrap;rounded=0;fontSize=41;" vertex="1" parent="lAURRO7PPgRWYJF85Bkb-2">
          <mxGeometry x="555" y="141.25" width="60" height="30" as="geometry" />
        </mxCell>
        <mxCell id="7_ptH5n7fRQIG6JcrQS5-113" value="&lt;font style=&quot;font-size: 20px;&quot;&gt;41&lt;/font&gt;" style="ellipse;whiteSpace=wrap;html=1;aspect=fixed;fillColor=#eeeeee;strokeColor=#36393d;" vertex="1" parent="lAURRO7PPgRWYJF85Bkb-2">
          <mxGeometry x="665" y="130" width="27" height="27" as="geometry" />
        </mxCell>
        <mxCell id="PzJVBhX8oWQierlk2o5b-1" value="" style="rounded=0;whiteSpace=wrap;html=1;fillColor=#000000;opacity=10;strokeColor=#B266FF;strokeWidth=4;" vertex="1" parent="lAURRO7PPgRWYJF85Bkb-2">
          <mxGeometry x="20" y="112.5" width="110" height="87.5" as="geometry" />
        </mxCell>
        <mxCell id="JS5RN00amlKPowmsBt5I-35" value="" style="rounded=1;whiteSpace=wrap;html=1;" vertex="1" parent="lAURRO7PPgRWYJF85Bkb-2">
          <mxGeometry x="810" y="308" width="92" height="92" as="geometry" />
        </mxCell>
        <mxCell id="JS5RN00amlKPowmsBt5I-36" value="" style="rounded=1;whiteSpace=wrap;html=1;" vertex="1" parent="lAURRO7PPgRWYJF85Bkb-2">
          <mxGeometry x="810" y="408" width="92" height="92" as="geometry" />
        </mxCell>
        <mxCell id="JS5RN00amlKPowmsBt5I-38" value="" style="endArrow=none;html=1;rounded=0;entryX=1;entryY=0.5;entryDx=0;entryDy=0;exitX=0;exitY=0.5;exitDx=0;exitDy=0;" edge="1" parent="lAURRO7PPgRWYJF85Bkb-2" target="JS5RN00amlKPowmsBt5I-37">
          <mxGeometry width="50" height="50" relative="1" as="geometry">
            <mxPoint x="810" y="552.62" as="sourcePoint" />
            <mxPoint x="1140" y="552.62" as="targetPoint" />
          </mxGeometry>
        </mxCell>
        <mxCell id="JS5RN00amlKPowmsBt5I-37" value="" style="rounded=1;whiteSpace=wrap;html=1;" vertex="1" parent="lAURRO7PPgRWYJF85Bkb-2">
          <mxGeometry x="810" y="508" width="92" height="92" as="geometry" />
        </mxCell>
        <mxCell id="JS5RN00amlKPowmsBt5I-39" value="" style="rounded=1;whiteSpace=wrap;html=1;" vertex="1" parent="lAURRO7PPgRWYJF85Bkb-2">
          <mxGeometry x="810" y="608" width="92" height="92" as="geometry" />
        </mxCell>
        <mxCell id="JS5RN00amlKPowmsBt5I-41" value="" style="endArrow=none;html=1;rounded=0;entryX=1;entryY=0.5;entryDx=0;entryDy=0;exitX=0;exitY=0.5;exitDx=0;exitDy=0;" edge="1" parent="lAURRO7PPgRWYJF85Bkb-2" target="JS5RN00amlKPowmsBt5I-40">
          <mxGeometry width="50" height="50" relative="1" as="geometry">
            <mxPoint x="810" y="752.62" as="sourcePoint" />
            <mxPoint x="1140" y="752.62" as="targetPoint" />
          </mxGeometry>
        </mxCell>
        <mxCell id="JS5RN00amlKPowmsBt5I-40" value="" style="rounded=1;whiteSpace=wrap;html=1;" vertex="1" parent="lAURRO7PPgRWYJF85Bkb-2">
          <mxGeometry x="810" y="706" width="92" height="92" as="geometry" />
        </mxCell>
        <mxCell id="JS5RN00amlKPowmsBt5I-46" value="" style="shape=image;verticalLabelPosition=bottom;labelBackgroundColor=default;verticalAlign=top;aspect=fixed;imageAspect=0;image=data:image/png,iVBORw0KGgoAAAANSUhEUgAAAgAAAAIACAYAAAD0eNT6AAAACXBIWXMAAAsTAAALEwEAmpwYAAAAtGVYSWZJSSoACAAAAAYAEgEDAAEAAAABAAAAGgEFAAEAAABWAAAAGwEFAAEAAABeAAAAKAEDAAEAAAACAAAAEwIDAAEAAAABAAAAaYcEAAEAAABmAAAAAAAAAEgAAAABAAAASAAAAAEAAAAGAACQBwAEAAAAMDIxMAGRBwAEAAAAAQIDAACgBwAEAAAAMDEwMAGgAwABAAAA//8AAAKgBAABAAAAAAIAAAOgBAABAAAAAAIAAAAAAACRX/HaAAAgAElEQVR4nO3dCRhu13gv8D9JJGQQRIhERiRBDImgpqKhRSOtlpib0lKztlQbXDUWVZe2KFo0Li2tllKaUsJFzWLMgMiASELmQcZzn1XruGl6kjPstb+1v/39fs+znhPP4/vOWnt/Z7/v3nutdyUAAAAAAAAAAAAAAAAAAAAAAAAAAAAAAAAAAAAAAAAAAAAAAAAAAAAAAAAAAAAAAAAAAAAAAAAAAAAAAAAAAAAAAAAAAAAAAAAAAAAAAAAAAAAAAAAAAAAAAAAAAAAAAAAAAAAAAAAAAAAAAAAAAAAAAAAAAAAAAAAAAAAAAAAAAAAAAAAAAAAAAAAAAAAAAAAAAAAAAAAAAAAAAAAAAAAAAAAAAAAAAAAAAAAAAAAAAAAAAAAAAAAAAAAAAAAAAAAAANDStZp+GzDEVkl2S3KjJNerbcsk2yXZrP5/zktyaZKzk1xS//x+kh937juwZCQAsFibJ9knyQFJbpdkjyQ3T7Jrkh0HfO8FSU5KcmKSk5Mcm+SLSY5Ocn7D/gMzIQGAcZW7+fsluceVgn65s1+UK5Icl+RLST6f5MiaHAAADW1WA/1zkny4Pq5fM7F2apIjkjw0yfa9DxgALLMDk7w2yekTCPAb0y5O8r4kv1bnGwAA61Em7D03yTETCOQt2plJ3pDkbr0PLABM0f71EfoUH++3al9J8tgkW/Q+2ADQe8LsQUneP4HgvOj5An9srgAAq+jBSb4xgWDcs5V6A89b8AoGAOg2se9jEwi+U2ql6NATrlSYCABmoxTneVddQ9874E61fTXJL/Y+UQDQwrXr3e15Ewiwy9LeneTGvU8cAGyqWyQ5agIBdVmXD5bECQCWqjb/4Ul+MoFAuuztvUl26n1CAWB9blzL9fYOnHNqZyS5f+8TCwBX515JfjCBgDnHdlmtHVDmVAATZTdAVvE3/wdJXlIf/0/N5UnOTXJW3eL3grqdb/nf2yTZurYb1P+9XZKtMk3/WqsJljkCwMRIAFglZbObt9dd8HorZYS/XPcRKNv1Hl///FbdoGdj/g2XPQlulWTvK7UDapLQ2wlJHljHBgALt33nWf6X12qCb6wJyPVHHm95/H6bOjv/3fUJQq+x/zjJ3UceLwD8DzvXwjU9gn6ZZPiYCdTSL6877pPkb5Kc0+FYlNcYD+p8DABYIbdOcvKCg125039Okl0yTddN8ogkH6wT9hZ1XMprj9/sPXgA5u9WdTe7RQW4f6urC5ZJSVJeUycbLuIYlfLKj+s9aADma9ckJy4ooJUtgu+S5bZDXbp31oJejZQnEADQ/K72hAUEsvfXiXZzsn1dIjl2ZcRL6jbLANDEjkmOHTl4lScLh2TebpnkyJGPY0ky7td7oAAsvy1GXupX7lpfWwvwrIqDk5w04jEtRY9u23uQACy3vx4xUH11ho/7N9S2Sd464rEtxY9u2HuQACynZ44YoI6o5XdXXalncN5Ix/gjEy3NDMCEHVTXmLcOSiXYPar34CamlBn+ykhJQHm9AgAb5KZ1C9rWwei4WkeAdRcSesdIScDDeg8OgOkrG+F8YIQg9IW6moBrPvavHOHYn1VrOADA1XraCAHoo3WLXTbMM2oxpJbnoOyfYKdSANZp3yQXNg48/5Rkq94DW9LJgZc0PhclsQCA/2az+pi+ZcB5V91Cl03zyFrit9X5uKgmeQDwM08d4bH/lr0HNQNPbnxe/qP3gACYjlIw5kcNg8zna6Eb2nhZ4yTg13oPCIBpeGPjCnQ36T2gmblW44qMJyvCBMABDd8zlxr01vmPo1T0+2TDJOCFvQcEQF8fbxhUVPgb180bvqq5sH4fACvovg2D/5t7D2ZFPKBhjYC/6D0YAPr4WKNA8vUk1+s9mBXyyobLAm/WezAALNY9GgWRi1d4S99etkjyxUbn79W9BwPAYv17owBSlqixeHdqNHnzAns0AKzWzP8Wwf9Ej/5nsXzzpb0HAsBivLlR4Dik90BWXCngdHqD8/jD+loBgBnbpq7XHxo03t97IPyXxzVK5h7SeyAAjOu3GwSLsgzttr0Hws+qBH6twTn9UO+BADCuzzUIFu/pPQj+x9bBQ89pmVC4W++BADCO2zV6XFxmoDOtMsHfbnBelQcGmKkXNwgS/9Z7EKzTExqc22/2HgQA4/hKgyBxr96DYJ2uk+SUBuf3lr0HAkBbuzcIDt/oPQiu0QsbnONn9R4ELLNr9+4ArMOvNPiOIxp8B+N5ew3iQxzcqC8AzGTjnzJL3Pax0/fpgef5siQ79B4EAG2Ucr2XDAwMH+49CDbI7zR4DfDw3oOAZeUVAFNz5walXj3+Xw7vqjs0DvFzjfoCK0cCwNQMvaCXx/8faNQXxnVWkk8M/A4JAGwiCQBTM/SC/qUaWFie+R5D3MEuj7BpJABMrVb8XTsHFBbrowM/X14X7d+oL7BSJABMyZ5JbjzwOyQAy+WLSc4Z+B1Dk0ZYSRIApuTWAz9/aZJPNuoLi3FZg3kA+zbqC6wUCQBTcouBn/9ykvMb9YXFGZq0KQkMm0ACwJQMvZAf06gfLNbQ87ZXo37ASpEAMKcE4LhG/WCxhp63nZJs3agvsDIkAMzpFYAEYDmdUOdvDFk94ikAbCQJAFNRLuK7DPyO4xv1hcVPBPxOgx0kgY0gAWAqtk2y+cAKgN9u2B8Wa+jTmxs06gesDAkAUzH0An52kp806guLd9rAz2/fqB+wMiQATMXQC/h5jfpBH0PPnwQANpIEgKmQAKw2CQAsmASAqbj+wM8rALTczh34eQkAbCQJAHP5LXoCsNyGnj/XMthI/tEwpaVgQ1zQqB/0MfQJTlkFAmwECQBTMfQCvmWjftDHVgM/P6SQEKwkCQBzSQBKHQGW19Dz5wkAbCQJAFMhAVht23Z+hQQrRwLAVFw08PMSgOU29PwpAgUbSQLAXCrBSQCW27adfz+wciQATMVpDeoI+D0vrxsO/PzpjfoBK8MFkyktA7tg4CqAXRv2h8W65cDP/7BRP2BlSACYkqF3cfs06geLd6uBn5cAwEaSADAlpw78/N6N+sFi7ZRku4Hf4RUAbCQJAFPyrYGflwAsp70b7CMgAYCNJAFgSr4x8PNeAaxmAlB+N2sa9QVWhgSAKfnmwM/vn2SzRn1hce7cOXGElSQBYE4JQFkKeECjvrA49x34eQkAbAIJAFNyYoNd4YYGExZrzyS7D/wOCQBsAgkAU1Le43554HdIAJbLfRr8Zo5u1BdYKRIApuYTAz9/d1sDL5X7NnhtdEajvsBKkQAwNUcN/Pz1ktyrUV8Y1+ZJDhr4HR9v1BcAOisB/OL6aHdT29/2HgQb5IEDz3NpD+s9CADa+c+BQaFMJNym9yBYr79rkADcrPcgAGjnxQ0Cw2N7D4JrVEr/XjjwHJv9DwOYA8AU/XOD73h0g+9gPA9Nct2B3/FPjfoCwIR8Z+Dd4eUN1pcznk82eMpz+96DAKC9VzQIEK/rPQjW6W4Nzu1xvQcBwHj14YcGiZ+YJDZJRzY4ty/pPQgAxnGtJN9tECj+rPdA+G8ObHBOS7tD74EAMJ7nNggUZUngjXsPhJ95b4Nz+tnegwBgXDdpUBSotFf2Hgj/5U5JrmhwPg/rPRAAxvfOBgHj0iT79R7Iirt2gwJPpZ1Zq0UCMHP3aPTO+BN1XgF9/E6j8+hpDsAKObpR8FAcqI8yB+PHDc7fZUn26j0YABbn1xslAD9Msn3vwaygtzQ6f+/oPRAAFutaDZ8CvKv3YFbMgxpN/Ct3//v0HgwAi/erjRKA0p7QezAr4uZJftTonL2192AA6PcU4HONgslFSe7Ye0Azt3mjev+lXeLdP8Bqe2DDpwDHJtmm94Bm7E8bnqs39R4MAP39S8PA8p4km/Ue0Awd2ui9/9p1/yo5ApBda3nfVknAX/Ue0Mzcp27C1Or8lPoBAPBfnt8wwJT2x70HNBO3S3JWw/PyBU9oALiy69R3+C2TgGf0HtSS2zPJqQ3Px+VJ7tJ7UABM81Hz5Q0DTlln/rjeg1pSZYb+CY0Tsv/de1AATNfLGwedMnHN64CNUzZZ+n7j8/D1JNftPTAApr3W/DONg09pf1F3r2P9T2HOaXzsL6pzCQDgGt0yyXkjJAHvrHMNuPqlfi1n+69tZv0DsMEOGyEQramVB/foPbiJ2SLJqxqu879y++fegwNg+fz5SEnAOfVul5/W9m9V3veq7Zt2agRgU5T14u8fKTiV9sYkW2Z1HZzkxyMd27Jh0C16DxCA5bVdnUE+VhLw1ST3zGopZXjfMtIj/zV1HsHdew8SgOW3e5LTRkwCSiA8IsmOmf/ui49NcsbIx/IxvQcKwHwc0Lgk7dVtUvOkmZaqvVPDrZevqT2r90ABmJ871iA9dhA7oZYR3irL7w716UbLCotX157be7AAzNddRyhUc3XtpJoILGMFu3vUCZRjvee/ante7wEDMH93H6lQ0NW1siHOy5Lsm+lPmCx7H3xqgcdmTd3JEQAW4s5JfrjgQLemvkd/WpIdMp3SyQ9M8ndJLlzwsSivFX639wEAYPXsUYvNrOnQLkny0Xr3e/daTW+R4358kneMvDrimlpJNh6ywDEDG7jUB1bFDZK8p25i09P5Sf5vrap3TJJjk3ynJgpD7JRknyS3qk897luXRfZ0epJD6qZNwIRIAFgV163vvcvj+LfVpW5TclmS7yY5LskPkpxbE4Xz6xyGsqxx6yTb1FbK5m5b/7xVbWV8U1KC/4OTfKG+AgAmRALAXGxey8mWyXd711Zq198sya41eNLP2bXkb1ma+b0kxyf5Vk14jq8Fh4AFkgCwrG6S5N5J7lIfd5d1/9fr3Sk2WUkA/rO2T9enBmXuADASCQDL4jr13f2D6rvt2/TuEKO6NMmXknyg1ij4Su8OwdxIAJiyLeuytYcleUCS6/fuEN2cmORfkrwvyVG1aBEAM1Me6b9uxO1nteVuJRl4QZ3bAcAM7vYfs6BNaLR5tLKy4N+S/FqSa/f+AQOwccrSted0qtSnzacdXwselbkiAExYeZ//ogVs26utVjslyTMt+wSYnnKH9oSOZWm11Wjfr7+zzXr/4AH4aUnYEyYQHLTVaV9Mcq/eP3yAVbVXXc/dOxhoq9v+McnOvf8hAKxSnYkn1Hr2vQOApp1df4/qnwCMfNf/iQlc9DXtqq08jfI0AGAEj6i72fW+0Gva1bWzaoVJABoom/H89QQu7pq2oe01Sbbo/Q8HevAujFZKWdb31l35pui8+lTi/NrOrn9e0rtjMy7wVLZo3r7WfCiP3K+bafpUfRrwg94dgUWSANDCPeos67JFb28n1p3jjqvt2Ppn2VeAvm6QZJck+9bdHG+d5IAke/TuWK1E+dAkn+zdEYBlcWiSn3Qu+PL2JI9Lsnvvg8Em2bn+jsoGUN/t+Fu6KMlDeh8MgGXwzLohy6Iv1KWY0AvrHSTzs1+Sw+uTnEX/ti5L8qTeBwBgyl664AtzeWf/5iT39OpqpZQ5Ja9N8qMF/97KPhV+ZwBX8YoFXohPSvLUCU8gYzHK+X9indOxqN9eSTwAqP50gdu7lvf6tnflyq5d95RY1OuBl/ceMMAUPH8BF9yTkzzSLm5sQCJQfiffWsBv8n/1HixAT08Z+SJb1uO/0j7ubKTyhOgPF7DfxO/3HihADw8Zebb/x+u6cBhaiGqs3+gVSR7ee5AAi7T/iHdXF9qdjcYeW1eMjPV7vVPvAQIswk5JvjfSxfSYut4bWtutPlUa43f7vfrvAmC2Nh9xO99SuW+b3gNk1jarM/ivGOH3+4W68RXALI2x3O/SJL/de2Cs3NbUY7zCekPvgQGM4eAR7pwuSPKg3gNjJR2Y5PTGv+cr6r8TgNnYIcmpjS+WZ9YdA6GXPUeoGXCG+QDAnPxz44vkKZb4MRElWH+z8e/7Q1axAHPwqMYXx/IkYa/eg4KrJAHHNf6d2z0QWGo3SnJaw4tiWYt9h96DgnXYJcl3Gr/i2rH3oAA21VsaXhAvTnJQ7wHBeuYEtEx439p7QACb4q4NZ/1fluRXew8INkCZmPqTRr/78u/HRFdgqZQJTJ9qeCf0nN4Dgk7zXr5SC2gBLIVDG14AP1i3aYVl8pcN/w08rvdgADZEuVs5vmGN9Bv3HhBsgi1red8W/w5OSLJF7wEBbMjOaa1K/N6z92BggLJc9dxG/x7KDpcAK3H3/8Leg4EGntzo38NJSa7TezAAV+fhjS52pbzqVr0HA40mxB7V6N+F4kBMnhKWq+uzSe7c4Ht+KcmRDb4HWr/X3y3J7rVIz41q26FuFVzu0LdOckndqOqsumvgTZI8tcHfX6oN7luTAYDJuFuju5x/6D0QVt7mteLkYUleneTDdUJq690sN6Xdr/fBAbiqdza4uJ1XS6rCIpUZ9veu804+Un+HaybaysZaAJNxwyQXNbi4vaT3QFip3+zjk7wnyTkTCOwbUxVz194HD2CtpzW4sJV3pdb8M6ZtkvxGLS51yQSC+aa21yqOBUzFlxpc1Mq7VhjD/kn+asnu9NfXys6Df1AnIAJ0ccsGF7OyecrOvQfCrJQ75IOTfHICwXrMVnbJfLedMoEe/qjBRazcnUGrCX1PTPLtCQTnRbfPJ3lg7xMArI4vNrhw3b73IJjF0r3Dat38NSveylOPn+99QoB5u1mDtdFlu1MY4v5JvjGBwDu19u+NCnMB/A+HNbhI/X7vQbDU80/eP4FAO+VWEvQjTBYEWvv7Bmuad+o9CJbycf8z6tLR3gF2WdqZdUdBpdqBJk4beFH6UO8BsHTumOTLEwioy9rKHht79j6JwHK7RYOLUZmtDRu6rO/Zddlb7yC67K1sVPSU3icUWF6PaXAhKu9wYUMmm/7HBALn3Fp5hbdt75MLLJ/XDbz4nNx7ACyFeyY5dQLBcq7t2CS37X2SmdcEHebvdgM//7FG/WC+np7kVbW4z5SckuS4JCfV8sIX1AmJZ9c/1+47cIP659ZJrp9k9yR7T6zqZenPZ5I8Kcnbe3cGmL4yk/isgXceZVMWWJfNkrx+AnfHlyb5VJKXJjm0TkAswXyo8tj9TkkeleSVST5XV8T0Hu+fWiUArM+uDS42ZiKzLuWO+V87BsEv1UD4wNqXRdk+yYOTvCbJ1zuO/4gJPnEBJuQXBl5kLrSdKetww3o3vOigVx7lv6Q+Dp+K/Woi8v0Ox6MkYNfrfQCAaXr8wAuM8r9c1U3q72JRQe6iJG9Ncu+JJ6PldcgvJnnHgpdAfromZAD/zYsHXlzK9qWw1k2THLOgwHZevbNexgqUN0/y5/UJ2iKO1dckAcBVHTHwwvKi3gNgMnaogWYRpXBfmORGmcfTklckOXcBx+0zC54LAUzcBwdeVMrsZyhL474wcgArs+tfW/+uuSnJzJuSXD7yMfxwki17DxaYhs8PvKDct/cA6G6LGljGDFwluTgw83dAks+OfCzfq8YLUHxn4MXEHuWrraw1/9sRg9WPk/zWxCf3jTFZ8Om1MNFYx7U8bQBW3BkDLyT79h4AXT1/xCD1iYlV2lu0PUdeSmkTIVhxQycfrfIFetX98kjvrK+o7/oVsfnpo/qX12PS+jhfUvdnAFbUTwZeRLbrPQC6bSE9tIT0utrpSR7Qe3AT9OD6OqT18T617tAIrKChdxblfSWrpcwiP3qEYFTK5u7Se3ATtleSb49w3I8yKRBW09CLB6vn1SMEIdXqNrxuwJdGOP7lNQOwYiQAbIz7jfA++sN1Vz02TCnmc2Tjc1Dmctyt98CAxZIAsKHKfI9TGgeesm+9yX6b9hrmPSO8glEkCFaIBIAN9YbGAed93j0PskWDSp5XbUp7wwqRALAhfq7xkr8y8Wyr3oOagbLV76canpdLazVCYAVIAFifzRtv8nP0TOv599yE6djGZZdXqfIirCwJAOvz5IbB5btLun3v1O2W5AcNz9Njeg8IGJ8EgGtygwbloq9cea68SmAc96o7JrY4VyeaEAjzJwHgmryi4V3lM3oPZgW03Jvh93oPBhiXBICrc9MkFzQKJu+vOwcyrms3rBFwpuJMMG8SAK7Oaxo+Ti6vEliMHRvOB3hZ78EA45EAcHVB5KJGQeSgEdfB712Xre21JDPXN6sbKR1Q+77FiJsHtTh359jwC+ZLAsC6vKhRAHnnCH27bZK/W8dW1mWy4huT7J7p2SPJm9YxofLceoxuM8Lf+S+NzqG5GzBTEgDWVVymxcz/Etx2btivMofguRtQkKg8uTgs0/GbG7Dtdpm9f3jjeRK7Jjm/0dJNu37CDEkAuKrfbnTn+MzG/XrlRv79JaD2dvhG9rmsumjpuY3O5a807hcwARIArurzDX4XX21c539T32kfvkTBf2375YZ9KGv5j29UuhmYGQkAV3bHRneMD23Yp/JY/JsD+nL4EgX/0r7R+FXAbzQ6p2PMUwA6kgBwZa9r8Js4pvGM/Ds36FMpkLMoz27Q35Yb8pSVBic06NOLG/YJmAAJAGuVR/anNfhNlDvOln63QZ8W9SRgyJ3/ldvTG/frSQ369O3GfQI6kwCw1v0b/B5OSnKdCZcjPnwJgn9pL2/ctzIX4HsN+rV/434xYctQWANoo8V7+1fVTX9aurDhd710pNcBz67f3UpZvtfSxbWy41CHNvgOYCI8AWBtsv/Dgb+FEmRuNELfHtnwznqMJwEt7/zXtkNHqu54SYMnPPZ0gJmQAFDcqcFv4R9H6tsODQLXWEnAGMH/4hE34flAg/7dbqS+AQsmAaDVNrKHjNi/N40QaNcMfB3QYrb/utrrM55DG/TvaSP2D1ggCQDFJwb+Ds4YcWObtY+vTx4p4P7RJvTnj0bqS3nEfuOMZ6skZw3s43tG7B+wQBIAtmyw899fLqCf+zcIXi2SgLGC/1m1ENPY/rpBsmceAMyABIC7NfgdtCxfe01KgPzxSAH4eRvw9z9rpL/77FrwaBF+vUF/91tQX4ERSQD4/YG/gUsXvGd8ryRgDsF/7aTK9e2ouL5mHgDMgASAdw78DXymQ58XnQTMJfivdfTAfr+tQ5+BxiQAfH3gb+Blnfq9qCRgbsG/ePXAvn+2U7+BhiQAq23LBmvs79ex/weOPDFwzAl/pe+9HDyw/+eYCAjLTwKw2vZr8BvYvvMYxnwSMLc7/ysvqxw6jl06jwEYSAKw2g4ZeP5L+eApWJYkYArBf62hx+ug3gNgXDYDgnnbY+Dnj8s0fLkGpDMzXefUHRc/l2k4fuDn923UDyZKAgDztvtMEoCpJwFTC/7FsQM/v1ujfjBREgCYt51nlABMNQmYYvBv8QRgjJ0fmRAJAMzb0F3nvp3pmVISMNXg3yIBGGvHQiZCAgDzNnTjmSkE2akmAVMO/mlwbDwBmDkJAMzb0Lu48zNdPZOAqQf/4tyBn5cAwJKzDHC1DV0Ktlemb9FLBKe01O+a3GrgOE/vPQBgGAnAajtv4Pm/SZbDopKAZQn+xU4Dx3ph7wEAw0gAVtvQMsDXy/IYOwlYpuBfbD1wvENfITBx5gDAvA39N35xlkeZE/D3I++qOOV3/q3PXdlSGFhingCstnMGnv/tsjyePeLd/9r2/CyP6w8c6xm9BwAMIwFYbd8beP6HFhKaU/BftiRgl5nsA8FINh/ri5kNScBq2zbLEfxfucC/70X1zxdn2oY+vbmsUT+YKHMAgGVOABYd/K+cBEz9ScA2DSaQMmMSAGDMIDLH4L8sScDQJwBeAcycBABY31ryKeod/JchCbjpwM+f2qgfTJQEALgme2d6phL8p54E7DPw899v1A8mSgIALFMCMLXgP+UkYOi58wRg5iQAwLIkAFMN/lNNAoaeux806gfQyaLWRmvzbGU3wGut2Dr/oW0KScC1ay3/IeO4X+9BAMOcO4ELorbcbbfOv+HDRxrXWbWN8d3P7XzM9mgwhlJICFhi35hAANGWuz16hnf+azf2GXMDoZ5PAh47sO+ndew70MhrJhBAtOVufzPT4L/WHJOAtw3s94c69Rto6La1pGfvIKItb/vujIP/XJOAkwb2+U869BkYwV9OIIhoy93KO+W5Bv+5JQG3aNDfhy2wv8CIrpPkIxMIItrytsfPPPjPKQl4QoO+3nJBfQUWlAT8hdcB2ia29y/gN/r0kfpeZvofuBH9OHDE1QHPzPg+OLCPp05k6SfQ2G2SvDrJ15KcN4HAoi1HKzvD7Tji7/IeSS6dQPAfOwkoCfjPZ9z6/0OPY5lACMBMHNwgeD1jxP59ekLBf+wk4Asj3mH/XoP+HTpS3wDoYMsGRaFK4BrrqVSvd/695gTcKeP4coMnFDcaqW8AdPIPDQJXWVba2lMmdue/iCcBz8k0E6lPjdAvJspmQLA63tvgO56Y9nZu+F3lzv/+ST7f8Ds/X7+zfHcrN884idRQRzb4DgAmZvs6mW/IHeKFdaJZSy9sdFddAvRdMp6WrwNe27hvOyW5qEG/bt24X0yYJwCwOkqAPGrgd1w3ye+mrRMbja3sXvfZjKe8X/+lRk8CTk5bz0qy1cDvKMfum436A8DEDN0kZk2dTHjDhn26WZIrJvTOfxFzAvZr2J8d6rbNQ8/rGK93AJjQaoDTGgSLFzTu17sm+th/jNcBn2jcl5c0OJ8X1ldEAMzYKxoEjHPqnXsreyY5c+J3/i2eBJT39Ac07MMujQp6/Z+GfQJgokqwvbxB0Hhn4379wkY8yj69c/Bf68Dalw3pc6nQ96jGf/+7G5zHNfXYA7AC/nWigeP2SY5ez9/5sSS7ZjpKXz66nj5/a4QSwPdrdA7L8Vb7H2BFPKhR8DimbjTVenXSIUnemuSLSb5TZ6i/Psl9Ml33qX0sdQO+m+Sr9SnJI5JsMcJcjuManUNb/wKskGvV4NoigDyv92BW0AsaJnCWgwOsmAc2CiLl3fbdew9mhdy1QUGnte03eg8GgD4+3iiQlMI2NpEZ3w1q4aQW55z/cB8AAATjSURBVOykEV5NALAk7t0omJT2PpPJRlWO7Qcanq/H9x4QAH39e8Og0rpMMP/fsxuepzJR0bt/gBW3f90HvtV8gF/uPaAZOqThObq8U/VEACbozxreXZaysvfoPaCZTfq7oOH5+ZveAwJgOq5X19u3CjJn16I+DHObhlsQry3hXLYOBoCfeUDDQFPaKROr2Ldsdkvyvcbn5Km9BwXANL2zccApS9b27j2oJbRXkm83PhdlsqdVGgCs046Ntgue4sY9y6JM0Duj8Tko3+fRPwDrrWnfasb52nZ+fcXANSubK53b+NivqasIAGC9/tcIQejiJIf1HtiEPb5hid8rt7/qPTAAlkcpEnPkCMGotLfUVQf81NZJ3jbSsf66Yw3Axrphw7rz69qFbr/eA5yAfeq2wWMc4/Le/xa9BwjAcmpdhOaq8wIel9VUZuP/1ojH9qIkd+s9SACW24Nqid81I7WjasGbVXGrEV+vlHZFkkf3HiQA8/DoGljGClpl8ttrk2yT+Srv4v84yU9GPI5r6gROAGjmD0cOXGvqnIOHz2ynus2SPDLJyQs4fm9Q7AeAMbxmAUGstGPrksEtsrxK338zyXELOmaCPwCjKQHmVQsKaKV9N8mTkmyV5VH6+uQRV1Csq71e8AdgEZ6zwOC2dnfBI5IcNOFAd0Cdx9C6jO/62ptm9soEgIkrd7mXLzjYramb5LygrqHvbd86sa/lVsob01494YQIgBl7xEjlaze0/TDJu5M8IckeCxhv2VDnoUneuOBH/FdtZVmmrX0ZROYIDHXvJO+qOwn2VuYMfKVOvDu+/lnajzbye3ao2xjvU9ftl3b7BSUZ63NWTUL+o3dHWG4SAKCFXZL8Y93KdorOq+38+ufZ9b9Taw9sn2Tb+t/b1jZF30pycE1qAGAStqw7z/V6LD739r66PwMATNLjRqxxv4qtHMsn9j6pALAh9qjvqHsHz2VvZadAuyYCsHRzjJ5S37n3DqTL1sos/z9Z8kqIAKy43ZN8eAJBdVla2R3xdr1PGgC0ehrwsFrEp3eAnWo7pW6EBACzc50kT+9QLnfK7aIkL02yde+TAwBju36Sl634aoHz6sZKpbogAKyUG9eNhU6ZQEBeVDu3bhp0094HHwCm8GrgsUm+NIEAPVb7Vk12tut9sAFgqnsLvLWW610zg8f8b0lyT6XXAWDDSwv/SpK/X7K5Ahcn+UiSw+reAgDAJioz5A9N8ua6y9+aibWyC+Ebkhwi6LMsPJICltHO9VXBvevj9Vsk2WxBf3ep0vf1JEfXOQul5PExC/q7oRkJADCX1wX71HbrJPsm2TvJTZLcKMnmmxDkf5jke0lOrasUvpbkyzX4XzLSOGBhJADAKtiuJgI71C11y7Xvsqv8f86t7+9Pq6082gcAAAAAAAAAAAAAAAAAAAAAAAAAAAAAAAAAAAAAAAAAAAAAAAAAAAAAAAAAAAAAAAAAAAAAAAAAAAAAAAAAAAAAAAAAAAAAAAAAAAAAAAAAAAAAAAAAAAAAAAAAAAAAAAAAAAAAAAAAAAAAAAAAAAAAAAAAAAAAAAAAAAAAAAAAAAAAAAAAAAAAAAAAAAAAAAAAAAAAAAAAAAAAAAAAAAAAAAAAAAAAAAAAAAAAAAAAAAAAAAAAAAAAAAAAAAAAAAAAACAb4v8B5FA9/C9H6fAAAAAASUVORK5CYII=;" vertex="1" parent="lAURRO7PPgRWYJF85Bkb-2">
          <mxGeometry x="1092" y="308" width="52" height="52" as="geometry" />
        </mxCell>
        <mxCell id="JS5RN00amlKPowmsBt5I-47" value="" style="shape=image;verticalLabelPosition=bottom;labelBackgroundColor=default;verticalAlign=top;aspect=fixed;imageAspect=0;image=data:image/png,iVBORw0KGgoAAAANSUhEUgAAAgAAAAIACAYAAAD0eNT6AAAACXBIWXMAAAsTAAALEwEAmpwYAAAAtGVYSWZJSSoACAAAAAYAEgEDAAEAAAABAAAAGgEFAAEAAABWAAAAGwEFAAEAAABeAAAAKAEDAAEAAAACAAAAEwIDAAEAAAABAAAAaYcEAAEAAABmAAAAAAAAAEgAAAABAAAASAAAAAEAAAAGAACQBwAEAAAAMDIxMAGRBwAEAAAAAQIDAACgBwAEAAAAMDEwMAGgAwABAAAA//8AAAKgBAABAAAAAAIAAAOgBAABAAAAAAIAAAAAAACRX/HaAAAgAElEQVR4nO3dCRhu13gv8D9JJGQQRIhERiRBDImgpqKhRSOtlpib0lKztlQbXDUWVZe2KFo0Li2tllKaUsJFzWLMgMiASELmQcZzn1XruGl6kjPstb+1v/39fs+znhPP4/vOWnt/Z7/v3nutdyUAAAAAAAAAAAAAAAAAAAAAAAAAAAAAAAAAAAAAAAAAAAAAAAAAAAAAAAAAAAAAAAAAAAAAAAAAAAAAAAAAAAAAAAAAAAAAAAAAAAAAAAAAAAAAAAAAAAAAAAAAAAAAAAAAAAAAAAAAAAAAAAAAAAAAAAAAAAAAAAAAAAAAAAAAAAAAAAAAAAAAAAAAAAAAAAAAAAAAAAAAAAAAAAAAAAAAAAAAAAAAAAAAAAAAAAAAAAAAAAAAAAAAAAAAAAAAAAAAANDStZp+GzDEVkl2S3KjJNerbcsk2yXZrP5/zktyaZKzk1xS//x+kh937juwZCQAsFibJ9knyQFJbpdkjyQ3T7Jrkh0HfO8FSU5KcmKSk5Mcm+SLSY5Ocn7D/gMzIQGAcZW7+fsluceVgn65s1+UK5Icl+RLST6f5MiaHAAADW1WA/1zkny4Pq5fM7F2apIjkjw0yfa9DxgALLMDk7w2yekTCPAb0y5O8r4kv1bnGwAA61Em7D03yTETCOQt2plJ3pDkbr0PLABM0f71EfoUH++3al9J8tgkW/Q+2ADQe8LsQUneP4HgvOj5An9srgAAq+jBSb4xgWDcs5V6A89b8AoGAOg2se9jEwi+U2ql6NATrlSYCABmoxTneVddQ9874E61fTXJL/Y+UQDQwrXr3e15Ewiwy9LeneTGvU8cAGyqWyQ5agIBdVmXD5bECQCWqjb/4Ul+MoFAuuztvUl26n1CAWB9blzL9fYOnHNqZyS5f+8TCwBX515JfjCBgDnHdlmtHVDmVAATZTdAVvE3/wdJXlIf/0/N5UnOTXJW3eL3grqdb/nf2yTZurYb1P+9XZKtMk3/WqsJljkCwMRIAFglZbObt9dd8HorZYS/XPcRKNv1Hl///FbdoGdj/g2XPQlulWTvK7UDapLQ2wlJHljHBgALt33nWf6X12qCb6wJyPVHHm95/H6bOjv/3fUJQq+x/zjJ3UceLwD8DzvXwjU9gn6ZZPiYCdTSL6877pPkb5Kc0+FYlNcYD+p8DABYIbdOcvKCg125039Okl0yTddN8ogkH6wT9hZ1XMprj9/sPXgA5u9WdTe7RQW4f6urC5ZJSVJeUycbLuIYlfLKj+s9aADma9ckJy4ooJUtgu+S5bZDXbp31oJejZQnEADQ/K72hAUEsvfXiXZzsn1dIjl2ZcRL6jbLANDEjkmOHTl4lScLh2TebpnkyJGPY0ky7td7oAAsvy1GXupX7lpfWwvwrIqDk5w04jEtRY9u23uQACy3vx4xUH11ho/7N9S2Sd464rEtxY9u2HuQACynZ44YoI6o5XdXXalncN5Ix/gjEy3NDMCEHVTXmLcOSiXYPar34CamlBn+ykhJQHm9AgAb5KZ1C9rWwei4WkeAdRcSesdIScDDeg8OgOkrG+F8YIQg9IW6moBrPvavHOHYn1VrOADA1XraCAHoo3WLXTbMM2oxpJbnoOyfYKdSANZp3yQXNg48/5Rkq94DW9LJgZc0PhclsQCA/2az+pi+ZcB5V91Cl03zyFrit9X5uKgmeQDwM08d4bH/lr0HNQNPbnxe/qP3gACYjlIw5kcNg8zna6Eb2nhZ4yTg13oPCIBpeGPjCnQ36T2gmblW44qMJyvCBMABDd8zlxr01vmPo1T0+2TDJOCFvQcEQF8fbxhUVPgb180bvqq5sH4fACvovg2D/5t7D2ZFPKBhjYC/6D0YAPr4WKNA8vUk1+s9mBXyyobLAm/WezAALNY9GgWRi1d4S99etkjyxUbn79W9BwPAYv17owBSlqixeHdqNHnzAns0AKzWzP8Wwf9Ej/5nsXzzpb0HAsBivLlR4Dik90BWXCngdHqD8/jD+loBgBnbpq7XHxo03t97IPyXxzVK5h7SeyAAjOu3GwSLsgzttr0Hws+qBH6twTn9UO+BADCuzzUIFu/pPQj+x9bBQ89pmVC4W++BADCO2zV6XFxmoDOtMsHfbnBelQcGmKkXNwgS/9Z7EKzTExqc22/2HgQA4/hKgyBxr96DYJ2uk+SUBuf3lr0HAkBbuzcIDt/oPQiu0QsbnONn9R4ELLNr9+4ArMOvNPiOIxp8B+N5ew3iQxzcqC8AzGTjnzJL3Pax0/fpgef5siQ79B4EAG2Ucr2XDAwMH+49CDbI7zR4DfDw3oOAZeUVAFNz5walXj3+Xw7vqjs0DvFzjfoCK0cCwNQMvaCXx/8faNQXxnVWkk8M/A4JAGwiCQBTM/SC/qUaWFie+R5D3MEuj7BpJABMrVb8XTsHFBbrowM/X14X7d+oL7BSJABMyZ5JbjzwOyQAy+WLSc4Z+B1Dk0ZYSRIApuTWAz9/aZJPNuoLi3FZg3kA+zbqC6wUCQBTcouBn/9ykvMb9YXFGZq0KQkMm0ACwJQMvZAf06gfLNbQ87ZXo37ASpEAMKcE4LhG/WCxhp63nZJs3agvsDIkAMzpFYAEYDmdUOdvDFk94ikAbCQJAFNRLuK7DPyO4xv1hcVPBPxOgx0kgY0gAWAqtk2y+cAKgN9u2B8Wa+jTmxs06gesDAkAUzH0An52kp806guLd9rAz2/fqB+wMiQATMXQC/h5jfpBH0PPnwQANpIEgKmQAKw2CQAsmASAqbj+wM8rALTczh34eQkAbCQJAHP5LXoCsNyGnj/XMthI/tEwpaVgQ1zQqB/0MfQJTlkFAmwECQBTMfQCvmWjftDHVgM/P6SQEKwkCQBzSQBKHQGW19Dz5wkAbCQJAFMhAVht23Z+hQQrRwLAVFw08PMSgOU29PwpAgUbSQLAXCrBSQCW27adfz+wciQATMVpDeoI+D0vrxsO/PzpjfoBK8MFkyktA7tg4CqAXRv2h8W65cDP/7BRP2BlSACYkqF3cfs06geLd6uBn5cAwEaSADAlpw78/N6N+sFi7ZRku4Hf4RUAbCQJAFPyrYGflwAsp70b7CMgAYCNJAFgSr4x8PNeAaxmAlB+N2sa9QVWhgSAKfnmwM/vn2SzRn1hce7cOXGElSQBYE4JQFkKeECjvrA49x34eQkAbAIJAFNyYoNd4YYGExZrzyS7D/wOCQBsAgkAU1Le43554HdIAJbLfRr8Zo5u1BdYKRIApuYTAz9/d1sDL5X7NnhtdEajvsBKkQAwNUcN/Pz1ktyrUV8Y1+ZJDhr4HR9v1BcAOisB/OL6aHdT29/2HgQb5IEDz3NpD+s9CADa+c+BQaFMJNym9yBYr79rkADcrPcgAGjnxQ0Cw2N7D4JrVEr/XjjwHJv9DwOYA8AU/XOD73h0g+9gPA9Nct2B3/FPjfoCwIR8Z+Dd4eUN1pcznk82eMpz+96DAKC9VzQIEK/rPQjW6W4Nzu1xvQcBwHj14YcGiZ+YJDZJRzY4ty/pPQgAxnGtJN9tECj+rPdA+G8ObHBOS7tD74EAMJ7nNggUZUngjXsPhJ95b4Nz+tnegwBgXDdpUBSotFf2Hgj/5U5JrmhwPg/rPRAAxvfOBgHj0iT79R7Iirt2gwJPpZ1Zq0UCMHP3aPTO+BN1XgF9/E6j8+hpDsAKObpR8FAcqI8yB+PHDc7fZUn26j0YABbn1xslAD9Msn3vwaygtzQ6f+/oPRAAFutaDZ8CvKv3YFbMgxpN/Ct3//v0HgwAi/erjRKA0p7QezAr4uZJftTonL2192AA6PcU4HONgslFSe7Ye0Azt3mjev+lXeLdP8Bqe2DDpwDHJtmm94Bm7E8bnqs39R4MAP39S8PA8p4km/Ue0Awd2ui9/9p1/yo5ApBda3nfVknAX/Ue0Mzcp27C1Or8lPoBAPBfnt8wwJT2x70HNBO3S3JWw/PyBU9oALiy69R3+C2TgGf0HtSS2zPJqQ3Px+VJ7tJ7UABM81Hz5Q0DTlln/rjeg1pSZYb+CY0Tsv/de1AATNfLGwedMnHN64CNUzZZ+n7j8/D1JNftPTAApr3W/DONg09pf1F3r2P9T2HOaXzsL6pzCQDgGt0yyXkjJAHvrHMNuPqlfi1n+69tZv0DsMEOGyEQramVB/foPbiJ2SLJqxqu879y++fegwNg+fz5SEnAOfVul5/W9m9V3veq7Zt2agRgU5T14u8fKTiV9sYkW2Z1HZzkxyMd27Jh0C16DxCA5bVdnUE+VhLw1ST3zGopZXjfMtIj/zV1HsHdew8SgOW3e5LTRkwCSiA8IsmOmf/ui49NcsbIx/IxvQcKwHwc0Lgk7dVtUvOkmZaqvVPDrZevqT2r90ABmJ871iA9dhA7oZYR3irL7w716UbLCotX157be7AAzNddRyhUc3XtpJoILGMFu3vUCZRjvee/ante7wEDMH93H6lQ0NW1siHOy5Lsm+lPmCx7H3xqgcdmTd3JEQAW4s5JfrjgQLemvkd/WpIdMp3SyQ9M8ndJLlzwsSivFX639wEAYPXsUYvNrOnQLkny0Xr3e/daTW+R4358kneMvDrimlpJNh6ywDEDG7jUB1bFDZK8p25i09P5Sf5vrap3TJJjk3ynJgpD7JRknyS3qk897luXRfZ0epJD6qZNwIRIAFgV163vvcvj+LfVpW5TclmS7yY5LskPkpxbE4Xz6xyGsqxx6yTb1FbK5m5b/7xVbWV8U1KC/4OTfKG+AgAmRALAXGxey8mWyXd711Zq198sya41eNLP2bXkb1ma+b0kxyf5Vk14jq8Fh4AFkgCwrG6S5N5J7lIfd5d1/9fr3Sk2WUkA/rO2T9enBmXuADASCQDL4jr13f2D6rvt2/TuEKO6NMmXknyg1ij4Su8OwdxIAJiyLeuytYcleUCS6/fuEN2cmORfkrwvyVG1aBEAM1Me6b9uxO1nteVuJRl4QZ3bAcAM7vYfs6BNaLR5tLKy4N+S/FqSa/f+AQOwccrSted0qtSnzacdXwselbkiAExYeZ//ogVs26utVjslyTMt+wSYnnKH9oSOZWm11Wjfr7+zzXr/4AH4aUnYEyYQHLTVaV9Mcq/eP3yAVbVXXc/dOxhoq9v+McnOvf8hAKxSnYkn1Hr2vQOApp1df4/qnwCMfNf/iQlc9DXtqq08jfI0AGAEj6i72fW+0Gva1bWzaoVJABoom/H89QQu7pq2oe01Sbbo/Q8HevAujFZKWdb31l35pui8+lTi/NrOrn9e0rtjMy7wVLZo3r7WfCiP3K+bafpUfRrwg94dgUWSANDCPeos67JFb28n1p3jjqvt2Ppn2VeAvm6QZJck+9bdHG+d5IAke/TuWK1E+dAkn+zdEYBlcWiSn3Qu+PL2JI9Lsnvvg8Em2bn+jsoGUN/t+Fu6KMlDeh8MgGXwzLohy6Iv1KWY0AvrHSTzs1+Sw+uTnEX/ti5L8qTeBwBgyl664AtzeWf/5iT39OpqpZQ5Ja9N8qMF/97KPhV+ZwBX8YoFXohPSvLUCU8gYzHK+X9indOxqN9eSTwAqP50gdu7lvf6tnflyq5d95RY1OuBl/ceMMAUPH8BF9yTkzzSLm5sQCJQfiffWsBv8n/1HixAT08Z+SJb1uO/0j7ubKTyhOgPF7DfxO/3HihADw8Zebb/x+u6cBhaiGqs3+gVSR7ee5AAi7T/iHdXF9qdjcYeW1eMjPV7vVPvAQIswk5JvjfSxfSYut4bWtutPlUa43f7vfrvAmC2Nh9xO99SuW+b3gNk1jarM/ivGOH3+4W68RXALI2x3O/SJL/de2Cs3NbUY7zCekPvgQGM4eAR7pwuSPKg3gNjJR2Y5PTGv+cr6r8TgNnYIcmpjS+WZ9YdA6GXPUeoGXCG+QDAnPxz44vkKZb4MRElWH+z8e/7Q1axAHPwqMYXx/IkYa/eg4KrJAHHNf6d2z0QWGo3SnJaw4tiWYt9h96DgnXYJcl3Gr/i2rH3oAA21VsaXhAvTnJQ7wHBeuYEtEx439p7QACb4q4NZ/1fluRXew8INkCZmPqTRr/78u/HRFdgqZQJTJ9qeCf0nN4Dgk7zXr5SC2gBLIVDG14AP1i3aYVl8pcN/w08rvdgADZEuVs5vmGN9Bv3HhBsgi1red8W/w5OSLJF7wEBbMjOaa1K/N6z92BggLJc9dxG/x7KDpcAK3H3/8Leg4EGntzo38NJSa7TezAAV+fhjS52pbzqVr0HA40mxB7V6N+F4kBMnhKWq+uzSe7c4Ht+KcmRDb4HWr/X3y3J7rVIz41q26FuFVzu0LdOckndqOqsumvgTZI8tcHfX6oN7luTAYDJuFuju5x/6D0QVt7mteLkYUleneTDdUJq690sN6Xdr/fBAbiqdza4uJ1XS6rCIpUZ9veu804+Un+HaybaysZaAJNxwyQXNbi4vaT3QFip3+zjk7wnyTkTCOwbUxVz194HD2CtpzW4sJV3pdb8M6ZtkvxGLS51yQSC+aa21yqOBUzFlxpc1Mq7VhjD/kn+asnu9NfXys6Df1AnIAJ0ccsGF7OyecrOvQfCrJQ75IOTfHICwXrMVnbJfLedMoEe/qjBRazcnUGrCX1PTPLtCQTnRbfPJ3lg7xMArI4vNrhw3b73IJjF0r3Dat38NSveylOPn+99QoB5u1mDtdFlu1MY4v5JvjGBwDu19u+NCnMB/A+HNbhI/X7vQbDU80/eP4FAO+VWEvQjTBYEWvv7Bmuad+o9CJbycf8z6tLR3gF2WdqZdUdBpdqBJk4beFH6UO8BsHTumOTLEwioy9rKHht79j6JwHK7RYOLUZmtDRu6rO/Zddlb7yC67K1sVPSU3icUWF6PaXAhKu9wYUMmm/7HBALn3Fp5hbdt75MLLJ/XDbz4nNx7ACyFeyY5dQLBcq7t2CS37X2SmdcEHebvdgM//7FG/WC+np7kVbW4z5SckuS4JCfV8sIX1AmJZ9c/1+47cIP659ZJrp9k9yR7T6zqZenPZ5I8Kcnbe3cGmL4yk/isgXceZVMWWJfNkrx+AnfHlyb5VJKXJjm0TkAswXyo8tj9TkkeleSVST5XV8T0Hu+fWiUArM+uDS42ZiKzLuWO+V87BsEv1UD4wNqXRdk+yYOTvCbJ1zuO/4gJPnEBJuQXBl5kLrSdKetww3o3vOigVx7lv6Q+Dp+K/Woi8v0Ox6MkYNfrfQCAaXr8wAuM8r9c1U3q72JRQe6iJG9Ncu+JJ6PldcgvJnnHgpdAfromZAD/zYsHXlzK9qWw1k2THLOgwHZevbNexgqUN0/y5/UJ2iKO1dckAcBVHTHwwvKi3gNgMnaogWYRpXBfmORGmcfTklckOXcBx+0zC54LAUzcBwdeVMrsZyhL474wcgArs+tfW/+uuSnJzJuSXD7yMfxwki17DxaYhs8PvKDct/cA6G6LGljGDFwluTgw83dAks+OfCzfq8YLUHxn4MXEHuWrraw1/9sRg9WPk/zWxCf3jTFZ8Om1MNFYx7U8bQBW3BkDLyT79h4AXT1/xCD1iYlV2lu0PUdeSmkTIVhxQycfrfIFetX98kjvrK+o7/oVsfnpo/qX12PS+jhfUvdnAFbUTwZeRLbrPQC6bSE9tIT0utrpSR7Qe3AT9OD6OqT18T617tAIrKChdxblfSWrpcwiP3qEYFTK5u7Se3ATtleSb49w3I8yKRBW09CLB6vn1SMEIdXqNrxuwJdGOP7lNQOwYiQAbIz7jfA++sN1Vz02TCnmc2Tjc1Dmctyt98CAxZIAsKHKfI9TGgeesm+9yX6b9hrmPSO8glEkCFaIBIAN9YbGAed93j0PskWDSp5XbUp7wwqRALAhfq7xkr8y8Wyr3oOagbLV76canpdLazVCYAVIAFifzRtv8nP0TOv599yE6djGZZdXqfIirCwJAOvz5IbB5btLun3v1O2W5AcNz9Njeg8IGJ8EgGtygwbloq9cea68SmAc96o7JrY4VyeaEAjzJwHgmryi4V3lM3oPZgW03Jvh93oPBhiXBICrc9MkFzQKJu+vOwcyrms3rBFwpuJMMG8SAK7Oaxo+Ti6vEliMHRvOB3hZ78EA45EAcHVB5KJGQeSgEdfB712Xre21JDPXN6sbKR1Q+77FiJsHtTh359jwC+ZLAsC6vKhRAHnnCH27bZK/W8dW1mWy4huT7J7p2SPJm9YxofLceoxuM8Lf+S+NzqG5GzBTEgDWVVymxcz/Etx2btivMofguRtQkKg8uTgs0/GbG7Dtdpm9f3jjeRK7Jjm/0dJNu37CDEkAuKrfbnTn+MzG/XrlRv79JaD2dvhG9rmsumjpuY3O5a807hcwARIArurzDX4XX21c539T32kfvkTBf2375YZ9KGv5j29UuhmYGQkAV3bHRneMD23Yp/JY/JsD+nL4EgX/0r7R+FXAbzQ6p2PMUwA6kgBwZa9r8Js4pvGM/Ds36FMpkLMoz27Q35Yb8pSVBic06NOLG/YJmAAJAGuVR/anNfhNlDvOln63QZ8W9SRgyJ3/ldvTG/frSQ369O3GfQI6kwCw1v0b/B5OSnKdCZcjPnwJgn9pL2/ctzIX4HsN+rV/434xYctQWANoo8V7+1fVTX9aurDhd710pNcBz67f3UpZvtfSxbWy41CHNvgOYCI8AWBtsv/Dgb+FEmRuNELfHtnwznqMJwEt7/zXtkNHqu54SYMnPPZ0gJmQAFDcqcFv4R9H6tsODQLXWEnAGMH/4hE34flAg/7dbqS+AQsmAaDVNrKHjNi/N40QaNcMfB3QYrb/utrrM55DG/TvaSP2D1ggCQDFJwb+Ds4YcWObtY+vTx4p4P7RJvTnj0bqS3nEfuOMZ6skZw3s43tG7B+wQBIAtmyw899fLqCf+zcIXi2SgLGC/1m1ENPY/rpBsmceAMyABIC7NfgdtCxfe01KgPzxSAH4eRvw9z9rpL/77FrwaBF+vUF/91tQX4ERSQD4/YG/gUsXvGd8ryRgDsF/7aTK9e2ouL5mHgDMgASAdw78DXymQ58XnQTMJfivdfTAfr+tQ5+BxiQAfH3gb+Blnfq9qCRgbsG/ePXAvn+2U7+BhiQAq23LBmvs79ex/weOPDFwzAl/pe+9HDyw/+eYCAjLTwKw2vZr8BvYvvMYxnwSMLc7/ysvqxw6jl06jwEYSAKw2g4ZeP5L+eApWJYkYArBf62hx+ug3gNgXDYDgnnbY+Dnj8s0fLkGpDMzXefUHRc/l2k4fuDn923UDyZKAgDztvtMEoCpJwFTC/7FsQM/v1ujfjBREgCYt51nlABMNQmYYvBv8QRgjJ0fmRAJAMzb0F3nvp3pmVISMNXg3yIBGGvHQiZCAgDzNnTjmSkE2akmAVMO/mlwbDwBmDkJAMzb0Lu48zNdPZOAqQf/4tyBn5cAwJKzDHC1DV0Ktlemb9FLBKe01O+a3GrgOE/vPQBgGAnAajtv4Pm/SZbDopKAZQn+xU4Dx3ph7wEAw0gAVtvQMsDXy/IYOwlYpuBfbD1wvENfITBx5gDAvA39N35xlkeZE/D3I++qOOV3/q3PXdlSGFhingCstnMGnv/tsjyePeLd/9r2/CyP6w8c6xm9BwAMIwFYbd8beP6HFhKaU/BftiRgl5nsA8FINh/ri5kNScBq2zbLEfxfucC/70X1zxdn2oY+vbmsUT+YKHMAgGVOABYd/K+cBEz9ScA2DSaQMmMSAGDMIDLH4L8sScDQJwBeAcycBABY31ryKeod/JchCbjpwM+f2qgfTJQEALgme2d6phL8p54E7DPw899v1A8mSgIALFMCMLXgP+UkYOi58wRg5iQAwLIkAFMN/lNNAoaeux806gfQyaLWRmvzbGU3wGut2Dr/oW0KScC1ay3/IeO4X+9BAMOcO4ELorbcbbfOv+HDRxrXWbWN8d3P7XzM9mgwhlJICFhi35hAANGWuz16hnf+azf2GXMDoZ5PAh47sO+ndew70MhrJhBAtOVufzPT4L/WHJOAtw3s94c69Rto6La1pGfvIKItb/vujIP/XJOAkwb2+U869BkYwV9OIIhoy93KO+W5Bv+5JQG3aNDfhy2wv8CIrpPkIxMIItrytsfPPPjPKQl4QoO+3nJBfQUWlAT8hdcB2ia29y/gN/r0kfpeZvofuBH9OHDE1QHPzPg+OLCPp05k6SfQ2G2SvDrJ15KcN4HAoi1HKzvD7Tji7/IeSS6dQPAfOwkoCfjPZ9z6/0OPY5lACMBMHNwgeD1jxP59ekLBf+wk4Asj3mH/XoP+HTpS3wDoYMsGRaFK4BrrqVSvd/695gTcKeP4coMnFDcaqW8AdPIPDQJXWVba2lMmdue/iCcBz8k0E6lPjdAvJspmQLA63tvgO56Y9nZu+F3lzv/+ST7f8Ds/X7+zfHcrN884idRQRzb4DgAmZvs6mW/IHeKFdaJZSy9sdFddAvRdMp6WrwNe27hvOyW5qEG/bt24X0yYJwCwOkqAPGrgd1w3ye+mrRMbja3sXvfZjKe8X/+lRk8CTk5bz0qy1cDvKMfum436A8DEDN0kZk2dTHjDhn26WZIrJvTOfxFzAvZr2J8d6rbNQ8/rGK93AJjQaoDTGgSLFzTu17sm+th/jNcBn2jcl5c0OJ8X1ldEAMzYKxoEjHPqnXsreyY5c+J3/i2eBJT39Ac07MMujQp6/Z+GfQJgokqwvbxB0Hhn4379wkY8yj69c/Bf68Dalw3pc6nQ96jGf/+7G5zHNfXYA7AC/nWigeP2SY5ez9/5sSS7ZjpKXz66nj5/a4QSwPdrdA7L8Vb7H2BFPKhR8DimbjTVenXSIUnemuSLSb5TZ6i/Psl9Ml33qX0sdQO+m+Sr9SnJI5JsMcJcjuManUNb/wKskGvV4NoigDyv92BW0AsaJnCWgwOsmAc2CiLl3fbdew9mhdy1QUGnte03eg8GgD4+3iiQlMI2NpEZ3w1q4aQW55z/cB8AAATjSURBVOykEV5NALAk7t0omJT2PpPJRlWO7Qcanq/H9x4QAH39e8Og0rpMMP/fsxuepzJR0bt/gBW3f90HvtV8gF/uPaAZOqThObq8U/VEACbozxreXZaysvfoPaCZTfq7oOH5+ZveAwJgOq5X19u3CjJn16I+DHObhlsQry3hXLYOBoCfeUDDQFPaKROr2Ldsdkvyvcbn5Km9BwXANL2zccApS9b27j2oJbRXkm83PhdlsqdVGgCs046Ntgue4sY9y6JM0Duj8Tko3+fRPwDrrWnfasb52nZ+fcXANSubK53b+NivqasIAGC9/tcIQejiJIf1HtiEPb5hid8rt7/qPTAAlkcpEnPkCMGotLfUVQf81NZJ3jbSsf66Yw3Axrphw7rz69qFbr/eA5yAfeq2wWMc4/Le/xa9BwjAcmpdhOaq8wIel9VUZuP/1ojH9qIkd+s9SACW24Nqid81I7WjasGbVXGrEV+vlHZFkkf3HiQA8/DoGljGClpl8ttrk2yT+Srv4v84yU9GPI5r6gROAGjmD0cOXGvqnIOHz2ynus2SPDLJyQs4fm9Q7AeAMbxmAUGstGPrksEtsrxK338zyXELOmaCPwCjKQHmVQsKaKV9N8mTkmyV5VH6+uQRV1Csq71e8AdgEZ6zwOC2dnfBI5IcNOFAd0Cdx9C6jO/62ptm9soEgIkrd7mXLzjYramb5LygrqHvbd86sa/lVsob01494YQIgBl7xEjlaze0/TDJu5M8IckeCxhv2VDnoUneuOBH/FdtZVmmrX0ZROYIDHXvJO+qOwn2VuYMfKVOvDu+/lnajzbye3ao2xjvU9ftl3b7BSUZ63NWTUL+o3dHWG4SAKCFXZL8Y93KdorOq+38+ufZ9b9Taw9sn2Tb+t/b1jZF30pycE1qAGAStqw7z/V6LD739r66PwMATNLjRqxxv4qtHMsn9j6pALAh9qjvqHsHz2VvZadAuyYCsHRzjJ5S37n3DqTL1sos/z9Z8kqIAKy43ZN8eAJBdVla2R3xdr1PGgC0ehrwsFrEp3eAnWo7pW6EBACzc50kT+9QLnfK7aIkL02yde+TAwBju36Sl634aoHz6sZKpbogAKyUG9eNhU6ZQEBeVDu3bhp0094HHwCm8GrgsUm+NIEAPVb7Vk12tut9sAFgqnsLvLWW610zg8f8b0lyT6XXAWDDSwv/SpK/X7K5Ahcn+UiSw+reAgDAJioz5A9N8ua6y9+aibWyC+Ebkhwi6LMsPJICltHO9VXBvevj9Vsk2WxBf3ep0vf1JEfXOQul5PExC/q7oRkJADCX1wX71HbrJPsm2TvJTZLcKMnmmxDkf5jke0lOrasUvpbkyzX4XzLSOGBhJADAKtiuJgI71C11y7Xvsqv8f86t7+9Pq6082gcAAAAAAAAAAAAAAAAAAAAAAAAAAAAAAAAAAAAAAAAAAAAAAAAAAAAAAAAAAAAAAAAAAAAAAAAAAAAAAAAAAAAAAAAAAAAAAAAAAAAAAAAAAAAAAAAAAAAAAAAAAAAAAAAAAAAAAAAAAAAAAAAAAAAAAAAAAAAAAAAAAAAAAAAAAAAAAAAAAAAAAAAAAAAAAAAAAAAAAAAAAAAAAAAAAAAAAAAAAAAAAAAAAAAAAAAAAAAAAAAAAAAAAAAAAAAAAAAAACAb4v8B5FA9/C9H6fAAAAAASUVORK5CYII=;" vertex="1" parent="lAURRO7PPgRWYJF85Bkb-2">
          <mxGeometry x="1092" y="408" width="52" height="52" as="geometry" />
        </mxCell>
        <mxCell id="JS5RN00amlKPowmsBt5I-48" value="" style="shape=image;verticalLabelPosition=bottom;labelBackgroundColor=default;verticalAlign=top;aspect=fixed;imageAspect=0;image=data:image/png,iVBORw0KGgoAAAANSUhEUgAAAgAAAAIACAYAAAD0eNT6AAAACXBIWXMAAAsTAAALEwEAmpwYAAAAtGVYSWZJSSoACAAAAAYAEgEDAAEAAAABAAAAGgEFAAEAAABWAAAAGwEFAAEAAABeAAAAKAEDAAEAAAACAAAAEwIDAAEAAAABAAAAaYcEAAEAAABmAAAAAAAAAEgAAAABAAAASAAAAAEAAAAGAACQBwAEAAAAMDIxMAGRBwAEAAAAAQIDAACgBwAEAAAAMDEwMAGgAwABAAAA//8AAAKgBAABAAAAAAIAAAOgBAABAAAAAAIAAAAAAACRX/HaAAAgAElEQVR4nO3dCRhu13gv8D9JJGQQRIhERiRBDImgpqKhRSOtlpib0lKztlQbXDUWVZe2KFo0Li2tllKaUsJFzWLMgMiASELmQcZzn1XruGl6kjPstb+1v/39fs+znhPP4/vOWnt/Z7/v3nutdyUAAAAAAAAAAAAAAAAAAAAAAAAAAAAAAAAAAAAAAAAAAAAAAAAAAAAAAAAAAAAAAAAAAAAAAAAAAAAAAAAAAAAAAAAAAAAAAAAAAAAAAAAAAAAAAAAAAAAAAAAAAAAAAAAAAAAAAAAAAAAAAAAAAAAAAAAAAAAAAAAAAAAAAAAAAAAAAAAAAAAAAAAAAAAAAAAAAAAAAAAAAAAAAAAAAAAAAAAAAAAAAAAAAAAAAAAAAAAAAAAAAAAAAAAAAAAAAAAAANDStZp+GzDEVkl2S3KjJNerbcsk2yXZrP5/zktyaZKzk1xS//x+kh937juwZCQAsFibJ9knyQFJbpdkjyQ3T7Jrkh0HfO8FSU5KcmKSk5Mcm+SLSY5Ocn7D/gMzIQGAcZW7+fsluceVgn65s1+UK5Icl+RLST6f5MiaHAAADW1WA/1zkny4Pq5fM7F2apIjkjw0yfa9DxgALLMDk7w2yekTCPAb0y5O8r4kv1bnGwAA61Em7D03yTETCOQt2plJ3pDkbr0PLABM0f71EfoUH++3al9J8tgkW/Q+2ADQe8LsQUneP4HgvOj5An9srgAAq+jBSb4xgWDcs5V6A89b8AoGAOg2se9jEwi+U2ql6NATrlSYCABmoxTneVddQ9874E61fTXJL/Y+UQDQwrXr3e15Ewiwy9LeneTGvU8cAGyqWyQ5agIBdVmXD5bECQCWqjb/4Ul+MoFAuuztvUl26n1CAWB9blzL9fYOnHNqZyS5f+8TCwBX515JfjCBgDnHdlmtHVDmVAATZTdAVvE3/wdJXlIf/0/N5UnOTXJW3eL3grqdb/nf2yTZurYb1P+9XZKtMk3/WqsJljkCwMRIAFglZbObt9dd8HorZYS/XPcRKNv1Hl///FbdoGdj/g2XPQlulWTvK7UDapLQ2wlJHljHBgALt33nWf6X12qCb6wJyPVHHm95/H6bOjv/3fUJQq+x/zjJ3UceLwD8DzvXwjU9gn6ZZPiYCdTSL6877pPkb5Kc0+FYlNcYD+p8DABYIbdOcvKCg125039Okl0yTddN8ogkH6wT9hZ1XMprj9/sPXgA5u9WdTe7RQW4f6urC5ZJSVJeUycbLuIYlfLKj+s9aADma9ckJy4ooJUtgu+S5bZDXbp31oJejZQnEADQ/K72hAUEsvfXiXZzsn1dIjl2ZcRL6jbLANDEjkmOHTl4lScLh2TebpnkyJGPY0ky7td7oAAsvy1GXupX7lpfWwvwrIqDk5w04jEtRY9u23uQACy3vx4xUH11ho/7N9S2Sd464rEtxY9u2HuQACynZ44YoI6o5XdXXalncN5Ix/gjEy3NDMCEHVTXmLcOSiXYPar34CamlBn+ykhJQHm9AgAb5KZ1C9rWwei4WkeAdRcSesdIScDDeg8OgOkrG+F8YIQg9IW6moBrPvavHOHYn1VrOADA1XraCAHoo3WLXTbMM2oxpJbnoOyfYKdSANZp3yQXNg48/5Rkq94DW9LJgZc0PhclsQCA/2az+pi+ZcB5V91Cl03zyFrit9X5uKgmeQDwM08d4bH/lr0HNQNPbnxe/qP3gACYjlIw5kcNg8zna6Eb2nhZ4yTg13oPCIBpeGPjCnQ36T2gmblW44qMJyvCBMABDd8zlxr01vmPo1T0+2TDJOCFvQcEQF8fbxhUVPgb180bvqq5sH4fACvovg2D/5t7D2ZFPKBhjYC/6D0YAPr4WKNA8vUk1+s9mBXyyobLAm/WezAALNY9GgWRi1d4S99etkjyxUbn79W9BwPAYv17owBSlqixeHdqNHnzAns0AKzWzP8Wwf9Ej/5nsXzzpb0HAsBivLlR4Dik90BWXCngdHqD8/jD+loBgBnbpq7XHxo03t97IPyXxzVK5h7SeyAAjOu3GwSLsgzttr0Hws+qBH6twTn9UO+BADCuzzUIFu/pPQj+x9bBQ89pmVC4W++BADCO2zV6XFxmoDOtMsHfbnBelQcGmKkXNwgS/9Z7EKzTExqc22/2HgQA4/hKgyBxr96DYJ2uk+SUBuf3lr0HAkBbuzcIDt/oPQiu0QsbnONn9R4ELLNr9+4ArMOvNPiOIxp8B+N5ew3iQxzcqC8AzGTjnzJL3Pax0/fpgef5siQ79B4EAG2Ucr2XDAwMH+49CDbI7zR4DfDw3oOAZeUVAFNz5walXj3+Xw7vqjs0DvFzjfoCK0cCwNQMvaCXx/8faNQXxnVWkk8M/A4JAGwiCQBTM/SC/qUaWFie+R5D3MEuj7BpJABMrVb8XTsHFBbrowM/X14X7d+oL7BSJABMyZ5JbjzwOyQAy+WLSc4Z+B1Dk0ZYSRIApuTWAz9/aZJPNuoLi3FZg3kA+zbqC6wUCQBTcouBn/9ykvMb9YXFGZq0KQkMm0ACwJQMvZAf06gfLNbQ87ZXo37ASpEAMKcE4LhG/WCxhp63nZJs3agvsDIkAMzpFYAEYDmdUOdvDFk94ikAbCQJAFNRLuK7DPyO4xv1hcVPBPxOgx0kgY0gAWAqtk2y+cAKgN9u2B8Wa+jTmxs06gesDAkAUzH0An52kp806guLd9rAz2/fqB+wMiQATMXQC/h5jfpBH0PPnwQANpIEgKmQAKw2CQAsmASAqbj+wM8rALTczh34eQkAbCQJAHP5LXoCsNyGnj/XMthI/tEwpaVgQ1zQqB/0MfQJTlkFAmwECQBTMfQCvmWjftDHVgM/P6SQEKwkCQBzSQBKHQGW19Dz5wkAbCQJAFMhAVht23Z+hQQrRwLAVFw08PMSgOU29PwpAgUbSQLAXCrBSQCW27adfz+wciQATMVpDeoI+D0vrxsO/PzpjfoBK8MFkyktA7tg4CqAXRv2h8W65cDP/7BRP2BlSACYkqF3cfs06geLd6uBn5cAwEaSADAlpw78/N6N+sFi7ZRku4Hf4RUAbCQJAFPyrYGflwAsp70b7CMgAYCNJAFgSr4x8PNeAaxmAlB+N2sa9QVWhgSAKfnmwM/vn2SzRn1hce7cOXGElSQBYE4JQFkKeECjvrA49x34eQkAbAIJAFNyYoNd4YYGExZrzyS7D/wOCQBsAgkAU1Le43554HdIAJbLfRr8Zo5u1BdYKRIApuYTAz9/d1sDL5X7NnhtdEajvsBKkQAwNUcN/Pz1ktyrUV8Y1+ZJDhr4HR9v1BcAOisB/OL6aHdT29/2HgQb5IEDz3NpD+s9CADa+c+BQaFMJNym9yBYr79rkADcrPcgAGjnxQ0Cw2N7D4JrVEr/XjjwHJv9DwOYA8AU/XOD73h0g+9gPA9Nct2B3/FPjfoCwIR8Z+Dd4eUN1pcznk82eMpz+96DAKC9VzQIEK/rPQjW6W4Nzu1xvQcBwHj14YcGiZ+YJDZJRzY4ty/pPQgAxnGtJN9tECj+rPdA+G8ObHBOS7tD74EAMJ7nNggUZUngjXsPhJ95b4Nz+tnegwBgXDdpUBSotFf2Hgj/5U5JrmhwPg/rPRAAxvfOBgHj0iT79R7Iirt2gwJPpZ1Zq0UCMHP3aPTO+BN1XgF9/E6j8+hpDsAKObpR8FAcqI8yB+PHDc7fZUn26j0YABbn1xslAD9Msn3vwaygtzQ6f+/oPRAAFutaDZ8CvKv3YFbMgxpN/Ct3//v0HgwAi/erjRKA0p7QezAr4uZJftTonL2192AA6PcU4HONgslFSe7Ye0Azt3mjev+lXeLdP8Bqe2DDpwDHJtmm94Bm7E8bnqs39R4MAP39S8PA8p4km/Ue0Awd2ui9/9p1/yo5ApBda3nfVknAX/Ue0Mzcp27C1Or8lPoBAPBfnt8wwJT2x70HNBO3S3JWw/PyBU9oALiy69R3+C2TgGf0HtSS2zPJqQ3Px+VJ7tJ7UABM81Hz5Q0DTlln/rjeg1pSZYb+CY0Tsv/de1AATNfLGwedMnHN64CNUzZZ+n7j8/D1JNftPTAApr3W/DONg09pf1F3r2P9T2HOaXzsL6pzCQDgGt0yyXkjJAHvrHMNuPqlfi1n+69tZv0DsMEOGyEQramVB/foPbiJ2SLJqxqu879y++fegwNg+fz5SEnAOfVul5/W9m9V3veq7Zt2agRgU5T14u8fKTiV9sYkW2Z1HZzkxyMd27Jh0C16DxCA5bVdnUE+VhLw1ST3zGopZXjfMtIj/zV1HsHdew8SgOW3e5LTRkwCSiA8IsmOmf/ui49NcsbIx/IxvQcKwHwc0Lgk7dVtUvOkmZaqvVPDrZevqT2r90ABmJ871iA9dhA7oZYR3irL7w716UbLCotX157be7AAzNddRyhUc3XtpJoILGMFu3vUCZRjvee/ante7wEDMH93H6lQ0NW1siHOy5Lsm+lPmCx7H3xqgcdmTd3JEQAW4s5JfrjgQLemvkd/WpIdMp3SyQ9M8ndJLlzwsSivFX639wEAYPXsUYvNrOnQLkny0Xr3e/daTW+R4358kneMvDrimlpJNh6ywDEDG7jUB1bFDZK8p25i09P5Sf5vrap3TJJjk3ynJgpD7JRknyS3qk897luXRfZ0epJD6qZNwIRIAFgV163vvcvj+LfVpW5TclmS7yY5LskPkpxbE4Xz6xyGsqxx6yTb1FbK5m5b/7xVbWV8U1KC/4OTfKG+AgAmRALAXGxey8mWyXd711Zq198sya41eNLP2bXkb1ma+b0kxyf5Vk14jq8Fh4AFkgCwrG6S5N5J7lIfd5d1/9fr3Sk2WUkA/rO2T9enBmXuADASCQDL4jr13f2D6rvt2/TuEKO6NMmXknyg1ij4Su8OwdxIAJiyLeuytYcleUCS6/fuEN2cmORfkrwvyVG1aBEAM1Me6b9uxO1nteVuJRl4QZ3bAcAM7vYfs6BNaLR5tLKy4N+S/FqSa/f+AQOwccrSted0qtSnzacdXwselbkiAExYeZ//ogVs26utVjslyTMt+wSYnnKH9oSOZWm11Wjfr7+zzXr/4AH4aUnYEyYQHLTVaV9Mcq/eP3yAVbVXXc/dOxhoq9v+McnOvf8hAKxSnYkn1Hr2vQOApp1df4/qnwCMfNf/iQlc9DXtqq08jfI0AGAEj6i72fW+0Gva1bWzaoVJABoom/H89QQu7pq2oe01Sbbo/Q8HevAujFZKWdb31l35pui8+lTi/NrOrn9e0rtjMy7wVLZo3r7WfCiP3K+bafpUfRrwg94dgUWSANDCPeos67JFb28n1p3jjqvt2Ppn2VeAvm6QZJck+9bdHG+d5IAke/TuWK1E+dAkn+zdEYBlcWiSn3Qu+PL2JI9Lsnvvg8Em2bn+jsoGUN/t+Fu6KMlDeh8MgGXwzLohy6Iv1KWY0AvrHSTzs1+Sw+uTnEX/ti5L8qTeBwBgyl664AtzeWf/5iT39OpqpZQ5Ja9N8qMF/97KPhV+ZwBX8YoFXohPSvLUCU8gYzHK+X9indOxqN9eSTwAqP50gdu7lvf6tnflyq5d95RY1OuBl/ceMMAUPH8BF9yTkzzSLm5sQCJQfiffWsBv8n/1HixAT08Z+SJb1uO/0j7ubKTyhOgPF7DfxO/3HihADw8Zebb/x+u6cBhaiGqs3+gVSR7ee5AAi7T/iHdXF9qdjcYeW1eMjPV7vVPvAQIswk5JvjfSxfSYut4bWtutPlUa43f7vfrvAmC2Nh9xO99SuW+b3gNk1jarM/ivGOH3+4W68RXALI2x3O/SJL/de2Cs3NbUY7zCekPvgQGM4eAR7pwuSPKg3gNjJR2Y5PTGv+cr6r8TgNnYIcmpjS+WZ9YdA6GXPUeoGXCG+QDAnPxz44vkKZb4MRElWH+z8e/7Q1axAHPwqMYXx/IkYa/eg4KrJAHHNf6d2z0QWGo3SnJaw4tiWYt9h96DgnXYJcl3Gr/i2rH3oAA21VsaXhAvTnJQ7wHBeuYEtEx439p7QACb4q4NZ/1fluRXew8INkCZmPqTRr/78u/HRFdgqZQJTJ9qeCf0nN4Dgk7zXr5SC2gBLIVDG14AP1i3aYVl8pcN/w08rvdgADZEuVs5vmGN9Bv3HhBsgi1red8W/w5OSLJF7wEBbMjOaa1K/N6z92BggLJc9dxG/x7KDpcAK3H3/8Leg4EGntzo38NJSa7TezAAV+fhjS52pbzqVr0HA40mxB7V6N+F4kBMnhKWq+uzSe7c4Ht+KcmRDb4HWr/X3y3J7rVIz41q26FuFVzu0LdOckndqOqsumvgTZI8tcHfX6oN7luTAYDJuFuju5x/6D0QVt7mteLkYUleneTDdUJq690sN6Xdr/fBAbiqdza4uJ1XS6rCIpUZ9veu804+Un+HaybaysZaAJNxwyQXNbi4vaT3QFip3+zjk7wnyTkTCOwbUxVz194HD2CtpzW4sJV3pdb8M6ZtkvxGLS51yQSC+aa21yqOBUzFlxpc1Mq7VhjD/kn+asnu9NfXys6Df1AnIAJ0ccsGF7OyecrOvQfCrJQ75IOTfHICwXrMVnbJfLedMoEe/qjBRazcnUGrCX1PTPLtCQTnRbfPJ3lg7xMArI4vNrhw3b73IJjF0r3Dat38NSveylOPn+99QoB5u1mDtdFlu1MY4v5JvjGBwDu19u+NCnMB/A+HNbhI/X7vQbDU80/eP4FAO+VWEvQjTBYEWvv7Bmuad+o9CJbycf8z6tLR3gF2WdqZdUdBpdqBJk4beFH6UO8BsHTumOTLEwioy9rKHht79j6JwHK7RYOLUZmtDRu6rO/Zddlb7yC67K1sVPSU3icUWF6PaXAhKu9wYUMmm/7HBALn3Fp5hbdt75MLLJ/XDbz4nNx7ACyFeyY5dQLBcq7t2CS37X2SmdcEHebvdgM//7FG/WC+np7kVbW4z5SckuS4JCfV8sIX1AmJZ9c/1+47cIP659ZJrp9k9yR7T6zqZenPZ5I8Kcnbe3cGmL4yk/isgXceZVMWWJfNkrx+AnfHlyb5VJKXJjm0TkAswXyo8tj9TkkeleSVST5XV8T0Hu+fWiUArM+uDS42ZiKzLuWO+V87BsEv1UD4wNqXRdk+yYOTvCbJ1zuO/4gJPnEBJuQXBl5kLrSdKetww3o3vOigVx7lv6Q+Dp+K/Woi8v0Ox6MkYNfrfQCAaXr8wAuM8r9c1U3q72JRQe6iJG9Ncu+JJ6PldcgvJnnHgpdAfromZAD/zYsHXlzK9qWw1k2THLOgwHZevbNexgqUN0/y5/UJ2iKO1dckAcBVHTHwwvKi3gNgMnaogWYRpXBfmORGmcfTklckOXcBx+0zC54LAUzcBwdeVMrsZyhL474wcgArs+tfW/+uuSnJzJuSXD7yMfxwki17DxaYhs8PvKDct/cA6G6LGljGDFwluTgw83dAks+OfCzfq8YLUHxn4MXEHuWrraw1/9sRg9WPk/zWxCf3jTFZ8Om1MNFYx7U8bQBW3BkDLyT79h4AXT1/xCD1iYlV2lu0PUdeSmkTIVhxQycfrfIFetX98kjvrK+o7/oVsfnpo/qX12PS+jhfUvdnAFbUTwZeRLbrPQC6bSE9tIT0utrpSR7Qe3AT9OD6OqT18T617tAIrKChdxblfSWrpcwiP3qEYFTK5u7Se3ATtleSb49w3I8yKRBW09CLB6vn1SMEIdXqNrxuwJdGOP7lNQOwYiQAbIz7jfA++sN1Vz02TCnmc2Tjc1Dmctyt98CAxZIAsKHKfI9TGgeesm+9yX6b9hrmPSO8glEkCFaIBIAN9YbGAed93j0PskWDSp5XbUp7wwqRALAhfq7xkr8y8Wyr3oOagbLV76canpdLazVCYAVIAFifzRtv8nP0TOv599yE6djGZZdXqfIirCwJAOvz5IbB5btLun3v1O2W5AcNz9Njeg8IGJ8EgGtygwbloq9cea68SmAc96o7JrY4VyeaEAjzJwHgmryi4V3lM3oPZgW03Jvh93oPBhiXBICrc9MkFzQKJu+vOwcyrms3rBFwpuJMMG8SAK7Oaxo+Ti6vEliMHRvOB3hZ78EA45EAcHVB5KJGQeSgEdfB712Xre21JDPXN6sbKR1Q+77FiJsHtTh359jwC+ZLAsC6vKhRAHnnCH27bZK/W8dW1mWy4huT7J7p2SPJm9YxofLceoxuM8Lf+S+NzqG5GzBTEgDWVVymxcz/Etx2btivMofguRtQkKg8uTgs0/GbG7Dtdpm9f3jjeRK7Jjm/0dJNu37CDEkAuKrfbnTn+MzG/XrlRv79JaD2dvhG9rmsumjpuY3O5a807hcwARIArurzDX4XX21c539T32kfvkTBf2375YZ9KGv5j29UuhmYGQkAV3bHRneMD23Yp/JY/JsD+nL4EgX/0r7R+FXAbzQ6p2PMUwA6kgBwZa9r8Js4pvGM/Ds36FMpkLMoz27Q35Yb8pSVBic06NOLG/YJmAAJAGuVR/anNfhNlDvOln63QZ8W9SRgyJ3/ldvTG/frSQ369O3GfQI6kwCw1v0b/B5OSnKdCZcjPnwJgn9pL2/ctzIX4HsN+rV/434xYctQWANoo8V7+1fVTX9aurDhd710pNcBz67f3UpZvtfSxbWy41CHNvgOYCI8AWBtsv/Dgb+FEmRuNELfHtnwznqMJwEt7/zXtkNHqu54SYMnPPZ0gJmQAFDcqcFv4R9H6tsODQLXWEnAGMH/4hE34flAg/7dbqS+AQsmAaDVNrKHjNi/N40QaNcMfB3QYrb/utrrM55DG/TvaSP2D1ggCQDFJwb+Ds4YcWObtY+vTx4p4P7RJvTnj0bqS3nEfuOMZ6skZw3s43tG7B+wQBIAtmyw899fLqCf+zcIXi2SgLGC/1m1ENPY/rpBsmceAMyABIC7NfgdtCxfe01KgPzxSAH4eRvw9z9rpL/77FrwaBF+vUF/91tQX4ERSQD4/YG/gUsXvGd8ryRgDsF/7aTK9e2ouL5mHgDMgASAdw78DXymQ58XnQTMJfivdfTAfr+tQ5+BxiQAfH3gb+Blnfq9qCRgbsG/ePXAvn+2U7+BhiQAq23LBmvs79ex/weOPDFwzAl/pe+9HDyw/+eYCAjLTwKw2vZr8BvYvvMYxnwSMLc7/ysvqxw6jl06jwEYSAKw2g4ZeP5L+eApWJYkYArBf62hx+ug3gNgXDYDgnnbY+Dnj8s0fLkGpDMzXefUHRc/l2k4fuDn923UDyZKAgDztvtMEoCpJwFTC/7FsQM/v1ujfjBREgCYt51nlABMNQmYYvBv8QRgjJ0fmRAJAMzb0F3nvp3pmVISMNXg3yIBGGvHQiZCAgDzNnTjmSkE2akmAVMO/mlwbDwBmDkJAMzb0Lu48zNdPZOAqQf/4tyBn5cAwJKzDHC1DV0Ktlemb9FLBKe01O+a3GrgOE/vPQBgGAnAajtv4Pm/SZbDopKAZQn+xU4Dx3ph7wEAw0gAVtvQMsDXy/IYOwlYpuBfbD1wvENfITBx5gDAvA39N35xlkeZE/D3I++qOOV3/q3PXdlSGFhingCstnMGnv/tsjyePeLd/9r2/CyP6w8c6xm9BwAMIwFYbd8beP6HFhKaU/BftiRgl5nsA8FINh/ri5kNScBq2zbLEfxfucC/70X1zxdn2oY+vbmsUT+YKHMAgGVOABYd/K+cBEz9ScA2DSaQMmMSAGDMIDLH4L8sScDQJwBeAcycBABY31ryKeod/JchCbjpwM+f2qgfTJQEALgme2d6phL8p54E7DPw899v1A8mSgIALFMCMLXgP+UkYOi58wRg5iQAwLIkAFMN/lNNAoaeux806gfQyaLWRmvzbGU3wGut2Dr/oW0KScC1ay3/IeO4X+9BAMOcO4ELorbcbbfOv+HDRxrXWbWN8d3P7XzM9mgwhlJICFhi35hAANGWuz16hnf+azf2GXMDoZ5PAh47sO+ndew70MhrJhBAtOVufzPT4L/WHJOAtw3s94c69Rto6La1pGfvIKItb/vujIP/XJOAkwb2+U869BkYwV9OIIhoy93KO+W5Bv+5JQG3aNDfhy2wv8CIrpPkIxMIItrytsfPPPjPKQl4QoO+3nJBfQUWlAT8hdcB2ia29y/gN/r0kfpeZvofuBH9OHDE1QHPzPg+OLCPp05k6SfQ2G2SvDrJ15KcN4HAoi1HKzvD7Tji7/IeSS6dQPAfOwkoCfjPZ9z6/0OPY5lACMBMHNwgeD1jxP59ekLBf+wk4Asj3mH/XoP+HTpS3wDoYMsGRaFK4BrrqVSvd/695gTcKeP4coMnFDcaqW8AdPIPDQJXWVba2lMmdue/iCcBz8k0E6lPjdAvJspmQLA63tvgO56Y9nZu+F3lzv/+ST7f8Ds/X7+zfHcrN884idRQRzb4DgAmZvs6mW/IHeKFdaJZSy9sdFddAvRdMp6WrwNe27hvOyW5qEG/bt24X0yYJwCwOkqAPGrgd1w3ye+mrRMbja3sXvfZjKe8X/+lRk8CTk5bz0qy1cDvKMfum436A8DEDN0kZk2dTHjDhn26WZIrJvTOfxFzAvZr2J8d6rbNQ8/rGK93AJjQaoDTGgSLFzTu17sm+th/jNcBn2jcl5c0OJ8X1ldEAMzYKxoEjHPqnXsreyY5c+J3/i2eBJT39Ac07MMujQp6/Z+GfQJgokqwvbxB0Hhn4379wkY8yj69c/Bf68Dalw3pc6nQ96jGf/+7G5zHNfXYA7AC/nWigeP2SY5ez9/5sSS7ZjpKXz66nj5/a4QSwPdrdA7L8Vb7H2BFPKhR8DimbjTVenXSIUnemuSLSb5TZ6i/Psl9Ml33qX0sdQO+m+Sr9SnJI5JsMcJcjuManUNb/wKskGvV4NoigDyv92BW0AsaJnCWgwOsmAc2CiLl3fbdew9mhdy1QUGnte03eg8GgD4+3iiQlMI2NpEZ3w1q4aQW55z/cB8AAATjSURBVOykEV5NALAk7t0omJT2PpPJRlWO7Qcanq/H9x4QAH39e8Og0rpMMP/fsxuepzJR0bt/gBW3f90HvtV8gF/uPaAZOqThObq8U/VEACbozxreXZaysvfoPaCZTfq7oOH5+ZveAwJgOq5X19u3CjJn16I+DHObhlsQry3hXLYOBoCfeUDDQFPaKROr2Ldsdkvyvcbn5Km9BwXANL2zccApS9b27j2oJbRXkm83PhdlsqdVGgCs046Ntgue4sY9y6JM0Duj8Tko3+fRPwDrrWnfasb52nZ+fcXANSubK53b+NivqasIAGC9/tcIQejiJIf1HtiEPb5hid8rt7/qPTAAlkcpEnPkCMGotLfUVQf81NZJ3jbSsf66Yw3Axrphw7rz69qFbr/eA5yAfeq2wWMc4/Le/xa9BwjAcmpdhOaq8wIel9VUZuP/1ojH9qIkd+s9SACW24Nqid81I7WjasGbVXGrEV+vlHZFkkf3HiQA8/DoGljGClpl8ttrk2yT+Srv4v84yU9GPI5r6gROAGjmD0cOXGvqnIOHz2ynus2SPDLJyQs4fm9Q7AeAMbxmAUGstGPrksEtsrxK338zyXELOmaCPwCjKQHmVQsKaKV9N8mTkmyV5VH6+uQRV1Csq71e8AdgEZ6zwOC2dnfBI5IcNOFAd0Cdx9C6jO/62ptm9soEgIkrd7mXLzjYramb5LygrqHvbd86sa/lVsob01494YQIgBl7xEjlaze0/TDJu5M8IckeCxhv2VDnoUneuOBH/FdtZVmmrX0ZROYIDHXvJO+qOwn2VuYMfKVOvDu+/lnajzbye3ao2xjvU9ftl3b7BSUZ63NWTUL+o3dHWG4SAKCFXZL8Y93KdorOq+38+ufZ9b9Taw9sn2Tb+t/b1jZF30pycE1qAGAStqw7z/V6LD739r66PwMATNLjRqxxv4qtHMsn9j6pALAh9qjvqHsHz2VvZadAuyYCsHRzjJ5S37n3DqTL1sos/z9Z8kqIAKy43ZN8eAJBdVla2R3xdr1PGgC0ehrwsFrEp3eAnWo7pW6EBACzc50kT+9QLnfK7aIkL02yde+TAwBju36Sl634aoHz6sZKpbogAKyUG9eNhU6ZQEBeVDu3bhp0094HHwCm8GrgsUm+NIEAPVb7Vk12tut9sAFgqnsLvLWW610zg8f8b0lyT6XXAWDDSwv/SpK/X7K5Ahcn+UiSw+reAgDAJioz5A9N8ua6y9+aibWyC+Ebkhwi6LMsPJICltHO9VXBvevj9Vsk2WxBf3ep0vf1JEfXOQul5PExC/q7oRkJADCX1wX71HbrJPsm2TvJTZLcKMnmmxDkf5jke0lOrasUvpbkyzX4XzLSOGBhJADAKtiuJgI71C11y7Xvsqv8f86t7+9Pq6082gcAAAAAAAAAAAAAAAAAAAAAAAAAAAAAAAAAAAAAAAAAAAAAAAAAAAAAAAAAAAAAAAAAAAAAAAAAAAAAAAAAAAAAAAAAAAAAAAAAAAAAAAAAAAAAAAAAAAAAAAAAAAAAAAAAAAAAAAAAAAAAAAAAAAAAAAAAAAAAAAAAAAAAAAAAAAAAAAAAAAAAAAAAAAAAAAAAAAAAAAAAAAAAAAAAAAAAAAAAAAAAAAAAAAAAAAAAAAAAAAAAAAAAAAAAAAAAAAAAACAb4v8B5FA9/C9H6fAAAAAASUVORK5CYII=;" vertex="1" parent="lAURRO7PPgRWYJF85Bkb-2">
          <mxGeometry x="1092" y="508" width="52" height="52" as="geometry" />
        </mxCell>
        <mxCell id="JS5RN00amlKPowmsBt5I-49" value="" style="shape=image;verticalLabelPosition=bottom;labelBackgroundColor=default;verticalAlign=top;aspect=fixed;imageAspect=0;image=data:image/png,iVBORw0KGgoAAAANSUhEUgAAAgAAAAIACAYAAAD0eNT6AAAACXBIWXMAAAsTAAALEwEAmpwYAAAAtGVYSWZJSSoACAAAAAYAEgEDAAEAAAABAAAAGgEFAAEAAABWAAAAGwEFAAEAAABeAAAAKAEDAAEAAAACAAAAEwIDAAEAAAABAAAAaYcEAAEAAABmAAAAAAAAAEgAAAABAAAASAAAAAEAAAAGAACQBwAEAAAAMDIxMAGRBwAEAAAAAQIDAACgBwAEAAAAMDEwMAGgAwABAAAA//8AAAKgBAABAAAAAAIAAAOgBAABAAAAAAIAAAAAAACRX/HaAAAgAElEQVR4nO3dCRhu13gv8D9JJGQQRIhERiRBDImgpqKhRSOtlpib0lKztlQbXDUWVZe2KFo0Li2tllKaUsJFzWLMgMiASELmQcZzn1XruGl6kjPstb+1v/39fs+znhPP4/vOWnt/Z7/v3nutdyUAAAAAAAAAAAAAAAAAAAAAAAAAAAAAAAAAAAAAAAAAAAAAAAAAAAAAAAAAAAAAAAAAAAAAAAAAAAAAAAAAAAAAAAAAAAAAAAAAAAAAAAAAAAAAAAAAAAAAAAAAAAAAAAAAAAAAAAAAAAAAAAAAAAAAAAAAAAAAAAAAAAAAAAAAAAAAAAAAAAAAAAAAAAAAAAAAAAAAAAAAAAAAAAAAAAAAAAAAAAAAAAAAAAAAAAAAAAAAAAAAAAAAAAAAAAAAAAAAANDStZp+GzDEVkl2S3KjJNerbcsk2yXZrP5/zktyaZKzk1xS//x+kh937juwZCQAsFibJ9knyQFJbpdkjyQ3T7Jrkh0HfO8FSU5KcmKSk5Mcm+SLSY5Ocn7D/gMzIQGAcZW7+fsluceVgn65s1+UK5Icl+RLST6f5MiaHAAADW1WA/1zkny4Pq5fM7F2apIjkjw0yfa9DxgALLMDk7w2yekTCPAb0y5O8r4kv1bnGwAA61Em7D03yTETCOQt2plJ3pDkbr0PLABM0f71EfoUH++3al9J8tgkW/Q+2ADQe8LsQUneP4HgvOj5An9srgAAq+jBSb4xgWDcs5V6A89b8AoGAOg2se9jEwi+U2ql6NATrlSYCABmoxTneVddQ9874E61fTXJL/Y+UQDQwrXr3e15Ewiwy9LeneTGvU8cAGyqWyQ5agIBdVmXD5bECQCWqjb/4Ul+MoFAuuztvUl26n1CAWB9blzL9fYOnHNqZyS5f+8TCwBX515JfjCBgDnHdlmtHVDmVAATZTdAVvE3/wdJXlIf/0/N5UnOTXJW3eL3grqdb/nf2yTZurYb1P+9XZKtMk3/WqsJljkCwMRIAFglZbObt9dd8HorZYS/XPcRKNv1Hl///FbdoGdj/g2XPQlulWTvK7UDapLQ2wlJHljHBgALt33nWf6X12qCb6wJyPVHHm95/H6bOjv/3fUJQq+x/zjJ3UceLwD8DzvXwjU9gn6ZZPiYCdTSL6877pPkb5Kc0+FYlNcYD+p8DABYIbdOcvKCg125039Okl0yTddN8ogkH6wT9hZ1XMprj9/sPXgA5u9WdTe7RQW4f6urC5ZJSVJeUycbLuIYlfLKj+s9aADma9ckJy4ooJUtgu+S5bZDXbp31oJejZQnEADQ/K72hAUEsvfXiXZzsn1dIjl2ZcRL6jbLANDEjkmOHTl4lScLh2TebpnkyJGPY0ky7td7oAAsvy1GXupX7lpfWwvwrIqDk5w04jEtRY9u23uQACy3vx4xUH11ho/7N9S2Sd464rEtxY9u2HuQACynZ44YoI6o5XdXXalncN5Ix/gjEy3NDMCEHVTXmLcOSiXYPar34CamlBn+ykhJQHm9AgAb5KZ1C9rWwei4WkeAdRcSesdIScDDeg8OgOkrG+F8YIQg9IW6moBrPvavHOHYn1VrOADA1XraCAHoo3WLXTbMM2oxpJbnoOyfYKdSANZp3yQXNg48/5Rkq94DW9LJgZc0PhclsQCA/2az+pi+ZcB5V91Cl03zyFrit9X5uKgmeQDwM08d4bH/lr0HNQNPbnxe/qP3gACYjlIw5kcNg8zna6Eb2nhZ4yTg13oPCIBpeGPjCnQ36T2gmblW44qMJyvCBMABDd8zlxr01vmPo1T0+2TDJOCFvQcEQF8fbxhUVPgb180bvqq5sH4fACvovg2D/5t7D2ZFPKBhjYC/6D0YAPr4WKNA8vUk1+s9mBXyyobLAm/WezAALNY9GgWRi1d4S99etkjyxUbn79W9BwPAYv17owBSlqixeHdqNHnzAns0AKzWzP8Wwf9Ej/5nsXzzpb0HAsBivLlR4Dik90BWXCngdHqD8/jD+loBgBnbpq7XHxo03t97IPyXxzVK5h7SeyAAjOu3GwSLsgzttr0Hws+qBH6twTn9UO+BADCuzzUIFu/pPQj+x9bBQ89pmVC4W++BADCO2zV6XFxmoDOtMsHfbnBelQcGmKkXNwgS/9Z7EKzTExqc22/2HgQA4/hKgyBxr96DYJ2uk+SUBuf3lr0HAkBbuzcIDt/oPQiu0QsbnONn9R4ELLNr9+4ArMOvNPiOIxp8B+N5ew3iQxzcqC8AzGTjnzJL3Pax0/fpgef5siQ79B4EAG2Ucr2XDAwMH+49CDbI7zR4DfDw3oOAZeUVAFNz5walXj3+Xw7vqjs0DvFzjfoCK0cCwNQMvaCXx/8faNQXxnVWkk8M/A4JAGwiCQBTM/SC/qUaWFie+R5D3MEuj7BpJABMrVb8XTsHFBbrowM/X14X7d+oL7BSJABMyZ5JbjzwOyQAy+WLSc4Z+B1Dk0ZYSRIApuTWAz9/aZJPNuoLi3FZg3kA+zbqC6wUCQBTcouBn/9ykvMb9YXFGZq0KQkMm0ACwJQMvZAf06gfLNbQ87ZXo37ASpEAMKcE4LhG/WCxhp63nZJs3agvsDIkAMzpFYAEYDmdUOdvDFk94ikAbCQJAFNRLuK7DPyO4xv1hcVPBPxOgx0kgY0gAWAqtk2y+cAKgN9u2B8Wa+jTmxs06gesDAkAUzH0An52kp806guLd9rAz2/fqB+wMiQATMXQC/h5jfpBH0PPnwQANpIEgKmQAKw2CQAsmASAqbj+wM8rALTczh34eQkAbCQJAHP5LXoCsNyGnj/XMthI/tEwpaVgQ1zQqB/0MfQJTlkFAmwECQBTMfQCvmWjftDHVgM/P6SQEKwkCQBzSQBKHQGW19Dz5wkAbCQJAFMhAVht23Z+hQQrRwLAVFw08PMSgOU29PwpAgUbSQLAXCrBSQCW27adfz+wciQATMVpDeoI+D0vrxsO/PzpjfoBK8MFkyktA7tg4CqAXRv2h8W65cDP/7BRP2BlSACYkqF3cfs06geLd6uBn5cAwEaSADAlpw78/N6N+sFi7ZRku4Hf4RUAbCQJAFPyrYGflwAsp70b7CMgAYCNJAFgSr4x8PNeAaxmAlB+N2sa9QVWhgSAKfnmwM/vn2SzRn1hce7cOXGElSQBYE4JQFkKeECjvrA49x34eQkAbAIJAFNyYoNd4YYGExZrzyS7D/wOCQBsAgkAU1Le43554HdIAJbLfRr8Zo5u1BdYKRIApuYTAz9/d1sDL5X7NnhtdEajvsBKkQAwNUcN/Pz1ktyrUV8Y1+ZJDhr4HR9v1BcAOisB/OL6aHdT29/2HgQb5IEDz3NpD+s9CADa+c+BQaFMJNym9yBYr79rkADcrPcgAGjnxQ0Cw2N7D4JrVEr/XjjwHJv9DwOYA8AU/XOD73h0g+9gPA9Nct2B3/FPjfoCwIR8Z+Dd4eUN1pcznk82eMpz+96DAKC9VzQIEK/rPQjW6W4Nzu1xvQcBwHj14YcGiZ+YJDZJRzY4ty/pPQgAxnGtJN9tECj+rPdA+G8ObHBOS7tD74EAMJ7nNggUZUngjXsPhJ95b4Nz+tnegwBgXDdpUBSotFf2Hgj/5U5JrmhwPg/rPRAAxvfOBgHj0iT79R7Iirt2gwJPpZ1Zq0UCMHP3aPTO+BN1XgF9/E6j8+hpDsAKObpR8FAcqI8yB+PHDc7fZUn26j0YABbn1xslAD9Msn3vwaygtzQ6f+/oPRAAFutaDZ8CvKv3YFbMgxpN/Ct3//v0HgwAi/erjRKA0p7QezAr4uZJftTonL2192AA6PcU4HONgslFSe7Ye0Azt3mjev+lXeLdP8Bqe2DDpwDHJtmm94Bm7E8bnqs39R4MAP39S8PA8p4km/Ue0Awd2ui9/9p1/yo5ApBda3nfVknAX/Ue0Mzcp27C1Or8lPoBAPBfnt8wwJT2x70HNBO3S3JWw/PyBU9oALiy69R3+C2TgGf0HtSS2zPJqQ3Px+VJ7tJ7UABM81Hz5Q0DTlln/rjeg1pSZYb+CY0Tsv/de1AATNfLGwedMnHN64CNUzZZ+n7j8/D1JNftPTAApr3W/DONg09pf1F3r2P9T2HOaXzsL6pzCQDgGt0yyXkjJAHvrHMNuPqlfi1n+69tZv0DsMEOGyEQramVB/foPbiJ2SLJqxqu879y++fegwNg+fz5SEnAOfVul5/W9m9V3veq7Zt2agRgU5T14u8fKTiV9sYkW2Z1HZzkxyMd27Jh0C16DxCA5bVdnUE+VhLw1ST3zGopZXjfMtIj/zV1HsHdew8SgOW3e5LTRkwCSiA8IsmOmf/ui49NcsbIx/IxvQcKwHwc0Lgk7dVtUvOkmZaqvVPDrZevqT2r90ABmJ871iA9dhA7oZYR3irL7w716UbLCotX157be7AAzNddRyhUc3XtpJoILGMFu3vUCZRjvee/ante7wEDMH93H6lQ0NW1siHOy5Lsm+lPmCx7H3xqgcdmTd3JEQAW4s5JfrjgQLemvkd/WpIdMp3SyQ9M8ndJLlzwsSivFX639wEAYPXsUYvNrOnQLkny0Xr3e/daTW+R4358kneMvDrimlpJNh6ywDEDG7jUB1bFDZK8p25i09P5Sf5vrap3TJJjk3ynJgpD7JRknyS3qk897luXRfZ0epJD6qZNwIRIAFgV163vvcvj+LfVpW5TclmS7yY5LskPkpxbE4Xz6xyGsqxx6yTb1FbK5m5b/7xVbWV8U1KC/4OTfKG+AgAmRALAXGxey8mWyXd711Zq198sya41eNLP2bXkb1ma+b0kxyf5Vk14jq8Fh4AFkgCwrG6S5N5J7lIfd5d1/9fr3Sk2WUkA/rO2T9enBmXuADASCQDL4jr13f2D6rvt2/TuEKO6NMmXknyg1ij4Su8OwdxIAJiyLeuytYcleUCS6/fuEN2cmORfkrwvyVG1aBEAM1Me6b9uxO1nteVuJRl4QZ3bAcAM7vYfs6BNaLR5tLKy4N+S/FqSa/f+AQOwccrSted0qtSnzacdXwselbkiAExYeZ//ogVs26utVjslyTMt+wSYnnKH9oSOZWm11Wjfr7+zzXr/4AH4aUnYEyYQHLTVaV9Mcq/eP3yAVbVXXc/dOxhoq9v+McnOvf8hAKxSnYkn1Hr2vQOApp1df4/qnwCMfNf/iQlc9DXtqq08jfI0AGAEj6i72fW+0Gva1bWzaoVJABoom/H89QQu7pq2oe01Sbbo/Q8HevAujFZKWdb31l35pui8+lTi/NrOrn9e0rtjMy7wVLZo3r7WfCiP3K+bafpUfRrwg94dgUWSANDCPeos67JFb28n1p3jjqvt2Ppn2VeAvm6QZJck+9bdHG+d5IAke/TuWK1E+dAkn+zdEYBlcWiSn3Qu+PL2JI9Lsnvvg8Em2bn+jsoGUN/t+Fu6KMlDeh8MgGXwzLohy6Iv1KWY0AvrHSTzs1+Sw+uTnEX/ti5L8qTeBwBgyl664AtzeWf/5iT39OpqpZQ5Ja9N8qMF/97KPhV+ZwBX8YoFXohPSvLUCU8gYzHK+X9indOxqN9eSTwAqP50gdu7lvf6tnflyq5d95RY1OuBl/ceMMAUPH8BF9yTkzzSLm5sQCJQfiffWsBv8n/1HixAT08Z+SJb1uO/0j7ubKTyhOgPF7DfxO/3HihADw8Zebb/x+u6cBhaiGqs3+gVSR7ee5AAi7T/iHdXF9qdjcYeW1eMjPV7vVPvAQIswk5JvjfSxfSYut4bWtutPlUa43f7vfrvAmC2Nh9xO99SuW+b3gNk1jarM/ivGOH3+4W68RXALI2x3O/SJL/de2Cs3NbUY7zCekPvgQGM4eAR7pwuSPKg3gNjJR2Y5PTGv+cr6r8TgNnYIcmpjS+WZ9YdA6GXPUeoGXCG+QDAnPxz44vkKZb4MRElWH+z8e/7Q1axAHPwqMYXx/IkYa/eg4KrJAHHNf6d2z0QWGo3SnJaw4tiWYt9h96DgnXYJcl3Gr/i2rH3oAA21VsaXhAvTnJQ7wHBeuYEtEx439p7QACb4q4NZ/1fluRXew8INkCZmPqTRr/78u/HRFdgqZQJTJ9qeCf0nN4Dgk7zXr5SC2gBLIVDG14AP1i3aYVl8pcN/w08rvdgADZEuVs5vmGN9Bv3HhBsgi1red8W/w5OSLJF7wEBbMjOaa1K/N6z92BggLJc9dxG/x7KDpcAK3H3/8Leg4EGntzo38NJSa7TezAAV+fhjS52pbzqVr0HA40mxB7V6N+F4kBMnhKWq+uzSe7c4Ht+KcmRDb4HWr/X3y3J7rVIz41q26FuFVzu0LdOckndqOqsumvgTZI8tcHfX6oN7luTAYDJuFuju5x/6D0QVt7mteLkYUleneTDdUJq690sN6Xdr/fBAbiqdza4uJ1XS6rCIpUZ9veu804+Un+HaybaysZaAJNxwyQXNbi4vaT3QFip3+zjk7wnyTkTCOwbUxVz194HD2CtpzW4sJV3pdb8M6ZtkvxGLS51yQSC+aa21yqOBUzFlxpc1Mq7VhjD/kn+asnu9NfXys6Df1AnIAJ0ccsGF7OyecrOvQfCrJQ75IOTfHICwXrMVnbJfLedMoEe/qjBRazcnUGrCX1PTPLtCQTnRbfPJ3lg7xMArI4vNrhw3b73IJjF0r3Dat38NSveylOPn+99QoB5u1mDtdFlu1MY4v5JvjGBwDu19u+NCnMB/A+HNbhI/X7vQbDU80/eP4FAO+VWEvQjTBYEWvv7Bmuad+o9CJbycf8z6tLR3gF2WdqZdUdBpdqBJk4beFH6UO8BsHTumOTLEwioy9rKHht79j6JwHK7RYOLUZmtDRu6rO/Zddlb7yC67K1sVPSU3icUWF6PaXAhKu9wYUMmm/7HBALn3Fp5hbdt75MLLJ/XDbz4nNx7ACyFeyY5dQLBcq7t2CS37X2SmdcEHebvdgM//7FG/WC+np7kVbW4z5SckuS4JCfV8sIX1AmJZ9c/1+47cIP659ZJrp9k9yR7T6zqZenPZ5I8Kcnbe3cGmL4yk/isgXceZVMWWJfNkrx+AnfHlyb5VJKXJjm0TkAswXyo8tj9TkkeleSVST5XV8T0Hu+fWiUArM+uDS42ZiKzLuWO+V87BsEv1UD4wNqXRdk+yYOTvCbJ1zuO/4gJPnEBJuQXBl5kLrSdKetww3o3vOigVx7lv6Q+Dp+K/Woi8v0Ox6MkYNfrfQCAaXr8wAuM8r9c1U3q72JRQe6iJG9Ncu+JJ6PldcgvJnnHgpdAfromZAD/zYsHXlzK9qWw1k2THLOgwHZevbNexgqUN0/y5/UJ2iKO1dckAcBVHTHwwvKi3gNgMnaogWYRpXBfmORGmcfTklckOXcBx+0zC54LAUzcBwdeVMrsZyhL474wcgArs+tfW/+uuSnJzJuSXD7yMfxwki17DxaYhs8PvKDct/cA6G6LGljGDFwluTgw83dAks+OfCzfq8YLUHxn4MXEHuWrraw1/9sRg9WPk/zWxCf3jTFZ8Om1MNFYx7U8bQBW3BkDLyT79h4AXT1/xCD1iYlV2lu0PUdeSmkTIVhxQycfrfIFetX98kjvrK+o7/oVsfnpo/qX12PS+jhfUvdnAFbUTwZeRLbrPQC6bSE9tIT0utrpSR7Qe3AT9OD6OqT18T617tAIrKChdxblfSWrpcwiP3qEYFTK5u7Se3ATtleSb49w3I8yKRBW09CLB6vn1SMEIdXqNrxuwJdGOP7lNQOwYiQAbIz7jfA++sN1Vz02TCnmc2Tjc1Dmctyt98CAxZIAsKHKfI9TGgeesm+9yX6b9hrmPSO8glEkCFaIBIAN9YbGAed93j0PskWDSp5XbUp7wwqRALAhfq7xkr8y8Wyr3oOagbLV76canpdLazVCYAVIAFifzRtv8nP0TOv599yE6djGZZdXqfIirCwJAOvz5IbB5btLun3v1O2W5AcNz9Njeg8IGJ8EgGtygwbloq9cea68SmAc96o7JrY4VyeaEAjzJwHgmryi4V3lM3oPZgW03Jvh93oPBhiXBICrc9MkFzQKJu+vOwcyrms3rBFwpuJMMG8SAK7Oaxo+Ti6vEliMHRvOB3hZ78EA45EAcHVB5KJGQeSgEdfB712Xre21JDPXN6sbKR1Q+77FiJsHtTh359jwC+ZLAsC6vKhRAHnnCH27bZK/W8dW1mWy4huT7J7p2SPJm9YxofLceoxuM8Lf+S+NzqG5GzBTEgDWVVymxcz/Etx2btivMofguRtQkKg8uTgs0/GbG7Dtdpm9f3jjeRK7Jjm/0dJNu37CDEkAuKrfbnTn+MzG/XrlRv79JaD2dvhG9rmsumjpuY3O5a807hcwARIArurzDX4XX21c539T32kfvkTBf2375YZ9KGv5j29UuhmYGQkAV3bHRneMD23Yp/JY/JsD+nL4EgX/0r7R+FXAbzQ6p2PMUwA6kgBwZa9r8Js4pvGM/Ds36FMpkLMoz27Q35Yb8pSVBic06NOLG/YJmAAJAGuVR/anNfhNlDvOln63QZ8W9SRgyJ3/ldvTG/frSQ369O3GfQI6kwCw1v0b/B5OSnKdCZcjPnwJgn9pL2/ctzIX4HsN+rV/434xYctQWANoo8V7+1fVTX9aurDhd710pNcBz67f3UpZvtfSxbWy41CHNvgOYCI8AWBtsv/Dgb+FEmRuNELfHtnwznqMJwEt7/zXtkNHqu54SYMnPPZ0gJmQAFDcqcFv4R9H6tsODQLXWEnAGMH/4hE34flAg/7dbqS+AQsmAaDVNrKHjNi/N40QaNcMfB3QYrb/utrrM55DG/TvaSP2D1ggCQDFJwb+Ds4YcWObtY+vTx4p4P7RJvTnj0bqS3nEfuOMZ6skZw3s43tG7B+wQBIAtmyw899fLqCf+zcIXi2SgLGC/1m1ENPY/rpBsmceAMyABIC7NfgdtCxfe01KgPzxSAH4eRvw9z9rpL/77FrwaBF+vUF/91tQX4ERSQD4/YG/gUsXvGd8ryRgDsF/7aTK9e2ouL5mHgDMgASAdw78DXymQ58XnQTMJfivdfTAfr+tQ5+BxiQAfH3gb+Blnfq9qCRgbsG/ePXAvn+2U7+BhiQAq23LBmvs79ex/weOPDFwzAl/pe+9HDyw/+eYCAjLTwKw2vZr8BvYvvMYxnwSMLc7/ysvqxw6jl06jwEYSAKw2g4ZeP5L+eApWJYkYArBf62hx+ug3gNgXDYDgnnbY+Dnj8s0fLkGpDMzXefUHRc/l2k4fuDn923UDyZKAgDztvtMEoCpJwFTC/7FsQM/v1ujfjBREgCYt51nlABMNQmYYvBv8QRgjJ0fmRAJAMzb0F3nvp3pmVISMNXg3yIBGGvHQiZCAgDzNnTjmSkE2akmAVMO/mlwbDwBmDkJAMzb0Lu48zNdPZOAqQf/4tyBn5cAwJKzDHC1DV0Ktlemb9FLBKe01O+a3GrgOE/vPQBgGAnAajtv4Pm/SZbDopKAZQn+xU4Dx3ph7wEAw0gAVtvQMsDXy/IYOwlYpuBfbD1wvENfITBx5gDAvA39N35xlkeZE/D3I++qOOV3/q3PXdlSGFhingCstnMGnv/tsjyePeLd/9r2/CyP6w8c6xm9BwAMIwFYbd8beP6HFhKaU/BftiRgl5nsA8FINh/ri5kNScBq2zbLEfxfucC/70X1zxdn2oY+vbmsUT+YKHMAgGVOABYd/K+cBEz9ScA2DSaQMmMSAGDMIDLH4L8sScDQJwBeAcycBABY31ryKeod/JchCbjpwM+f2qgfTJQEALgme2d6phL8p54E7DPw899v1A8mSgIALFMCMLXgP+UkYOi58wRg5iQAwLIkAFMN/lNNAoaeux806gfQyaLWRmvzbGU3wGut2Dr/oW0KScC1ay3/IeO4X+9BAMOcO4ELorbcbbfOv+HDRxrXWbWN8d3P7XzM9mgwhlJICFhi35hAANGWuz16hnf+azf2GXMDoZ5PAh47sO+ndew70MhrJhBAtOVufzPT4L/WHJOAtw3s94c69Rto6La1pGfvIKItb/vujIP/XJOAkwb2+U869BkYwV9OIIhoy93KO+W5Bv+5JQG3aNDfhy2wv8CIrpPkIxMIItrytsfPPPjPKQl4QoO+3nJBfQUWlAT8hdcB2ia29y/gN/r0kfpeZvofuBH9OHDE1QHPzPg+OLCPp05k6SfQ2G2SvDrJ15KcN4HAoi1HKzvD7Tji7/IeSS6dQPAfOwkoCfjPZ9z6/0OPY5lACMBMHNwgeD1jxP59ekLBf+wk4Asj3mH/XoP+HTpS3wDoYMsGRaFK4BrrqVSvd/695gTcKeP4coMnFDcaqW8AdPIPDQJXWVba2lMmdue/iCcBz8k0E6lPjdAvJspmQLA63tvgO56Y9nZu+F3lzv/+ST7f8Ds/X7+zfHcrN884idRQRzb4DgAmZvs6mW/IHeKFdaJZSy9sdFddAvRdMp6WrwNe27hvOyW5qEG/bt24X0yYJwCwOkqAPGrgd1w3ye+mrRMbja3sXvfZjKe8X/+lRk8CTk5bz0qy1cDvKMfum436A8DEDN0kZk2dTHjDhn26WZIrJvTOfxFzAvZr2J8d6rbNQ8/rGK93AJjQaoDTGgSLFzTu17sm+th/jNcBn2jcl5c0OJ8X1ldEAMzYKxoEjHPqnXsreyY5c+J3/i2eBJT39Ac07MMujQp6/Z+GfQJgokqwvbxB0Hhn4379wkY8yj69c/Bf68Dalw3pc6nQ96jGf/+7G5zHNfXYA7AC/nWigeP2SY5ez9/5sSS7ZjpKXz66nj5/a4QSwPdrdA7L8Vb7H2BFPKhR8DimbjTVenXSIUnemuSLSb5TZ6i/Psl9Ml33qX0sdQO+m+Sr9SnJI5JsMcJcjuManUNb/wKskGvV4NoigDyv92BW0AsaJnCWgwOsmAc2CiLl3fbdew9mhdy1QUGnte03eg8GgD4+3iiQlMI2NpEZ3w1q4aQW55z/cB8AAATjSURBVOykEV5NALAk7t0omJT2PpPJRlWO7Qcanq/H9x4QAH39e8Og0rpMMP/fsxuepzJR0bt/gBW3f90HvtV8gF/uPaAZOqThObq8U/VEACbozxreXZaysvfoPaCZTfq7oOH5+ZveAwJgOq5X19u3CjJn16I+DHObhlsQry3hXLYOBoCfeUDDQFPaKROr2Ldsdkvyvcbn5Km9BwXANL2zccApS9b27j2oJbRXkm83PhdlsqdVGgCs046Ntgue4sY9y6JM0Duj8Tko3+fRPwDrrWnfasb52nZ+fcXANSubK53b+NivqasIAGC9/tcIQejiJIf1HtiEPb5hid8rt7/qPTAAlkcpEnPkCMGotLfUVQf81NZJ3jbSsf66Yw3Axrphw7rz69qFbr/eA5yAfeq2wWMc4/Le/xa9BwjAcmpdhOaq8wIel9VUZuP/1ojH9qIkd+s9SACW24Nqid81I7WjasGbVXGrEV+vlHZFkkf3HiQA8/DoGljGClpl8ttrk2yT+Srv4v84yU9GPI5r6gROAGjmD0cOXGvqnIOHz2ynus2SPDLJyQs4fm9Q7AeAMbxmAUGstGPrksEtsrxK338zyXELOmaCPwCjKQHmVQsKaKV9N8mTkmyV5VH6+uQRV1Csq71e8AdgEZ6zwOC2dnfBI5IcNOFAd0Cdx9C6jO/62ptm9soEgIkrd7mXLzjYramb5LygrqHvbd86sa/lVsob01494YQIgBl7xEjlaze0/TDJu5M8IckeCxhv2VDnoUneuOBH/FdtZVmmrX0ZROYIDHXvJO+qOwn2VuYMfKVOvDu+/lnajzbye3ao2xjvU9ftl3b7BSUZ63NWTUL+o3dHWG4SAKCFXZL8Y93KdorOq+38+ufZ9b9Taw9sn2Tb+t/b1jZF30pycE1qAGAStqw7z/V6LD739r66PwMATNLjRqxxv4qtHMsn9j6pALAh9qjvqHsHz2VvZadAuyYCsHRzjJ5S37n3DqTL1sos/z9Z8kqIAKy43ZN8eAJBdVla2R3xdr1PGgC0ehrwsFrEp3eAnWo7pW6EBACzc50kT+9QLnfK7aIkL02yde+TAwBju36Sl634aoHz6sZKpbogAKyUG9eNhU6ZQEBeVDu3bhp0094HHwCm8GrgsUm+NIEAPVb7Vk12tut9sAFgqnsLvLWW610zg8f8b0lyT6XXAWDDSwv/SpK/X7K5Ahcn+UiSw+reAgDAJioz5A9N8ua6y9+aibWyC+Ebkhwi6LMsPJICltHO9VXBvevj9Vsk2WxBf3ep0vf1JEfXOQul5PExC/q7oRkJADCX1wX71HbrJPsm2TvJTZLcKMnmmxDkf5jke0lOrasUvpbkyzX4XzLSOGBhJADAKtiuJgI71C11y7Xvsqv8f86t7+9Pq6082gcAAAAAAAAAAAAAAAAAAAAAAAAAAAAAAAAAAAAAAAAAAAAAAAAAAAAAAAAAAAAAAAAAAAAAAAAAAAAAAAAAAAAAAAAAAAAAAAAAAAAAAAAAAAAAAAAAAAAAAAAAAAAAAAAAAAAAAAAAAAAAAAAAAAAAAAAAAAAAAAAAAAAAAAAAAAAAAAAAAAAAAAAAAAAAAAAAAAAAAAAAAAAAAAAAAAAAAAAAAAAAAAAAAAAAAAAAAAAAAAAAAAAAAAAAAAAAAAAAACAb4v8B5FA9/C9H6fAAAAAASUVORK5CYII=;" vertex="1" parent="lAURRO7PPgRWYJF85Bkb-2">
          <mxGeometry x="1092" y="608" width="50" height="50" as="geometry" />
        </mxCell>
        <mxCell id="JS5RN00amlKPowmsBt5I-50" value="" style="shape=image;verticalLabelPosition=bottom;labelBackgroundColor=default;verticalAlign=top;aspect=fixed;imageAspect=0;image=data:image/png,iVBORw0KGgoAAAANSUhEUgAAAgAAAAIACAYAAAD0eNT6AAAACXBIWXMAAAsTAAALEwEAmpwYAAAAtGVYSWZJSSoACAAAAAYAEgEDAAEAAAABAAAAGgEFAAEAAABWAAAAGwEFAAEAAABeAAAAKAEDAAEAAAACAAAAEwIDAAEAAAABAAAAaYcEAAEAAABmAAAAAAAAAEgAAAABAAAASAAAAAEAAAAGAACQBwAEAAAAMDIxMAGRBwAEAAAAAQIDAACgBwAEAAAAMDEwMAGgAwABAAAA//8AAAKgBAABAAAAAAIAAAOgBAABAAAAAAIAAAAAAACRX/HaAAAgAElEQVR4nO3dCRhu13gv8D9JJGQQRIhERiRBDImgpqKhRSOtlpib0lKztlQbXDUWVZe2KFo0Li2tllKaUsJFzWLMgMiASELmQcZzn1XruGl6kjPstb+1v/39fs+znhPP4/vOWnt/Z7/v3nutdyUAAAAAAAAAAAAAAAAAAAAAAAAAAAAAAAAAAAAAAAAAAAAAAAAAAAAAAAAAAAAAAAAAAAAAAAAAAAAAAAAAAAAAAAAAAAAAAAAAAAAAAAAAAAAAAAAAAAAAAAAAAAAAAAAAAAAAAAAAAAAAAAAAAAAAAAAAAAAAAAAAAAAAAAAAAAAAAAAAAAAAAAAAAAAAAAAAAAAAAAAAAAAAAAAAAAAAAAAAAAAAAAAAAAAAAAAAAAAAAAAAAAAAAAAAAAAAAAAAANDStZp+GzDEVkl2S3KjJNerbcsk2yXZrP5/zktyaZKzk1xS//x+kh937juwZCQAsFibJ9knyQFJbpdkjyQ3T7Jrkh0HfO8FSU5KcmKSk5Mcm+SLSY5Ocn7D/gMzIQGAcZW7+fsluceVgn65s1+UK5Icl+RLST6f5MiaHAAADW1WA/1zkny4Pq5fM7F2apIjkjw0yfa9DxgALLMDk7w2yekTCPAb0y5O8r4kv1bnGwAA61Em7D03yTETCOQt2plJ3pDkbr0PLABM0f71EfoUH++3al9J8tgkW/Q+2ADQe8LsQUneP4HgvOj5An9srgAAq+jBSb4xgWDcs5V6A89b8AoGAOg2se9jEwi+U2ql6NATrlSYCABmoxTneVddQ9874E61fTXJL/Y+UQDQwrXr3e15Ewiwy9LeneTGvU8cAGyqWyQ5agIBdVmXD5bECQCWqjb/4Ul+MoFAuuztvUl26n1CAWB9blzL9fYOnHNqZyS5f+8TCwBX515JfjCBgDnHdlmtHVDmVAATZTdAVvE3/wdJXlIf/0/N5UnOTXJW3eL3grqdb/nf2yTZurYb1P+9XZKtMk3/WqsJljkCwMRIAFglZbObt9dd8HorZYS/XPcRKNv1Hl///FbdoGdj/g2XPQlulWTvK7UDapLQ2wlJHljHBgALt33nWf6X12qCb6wJyPVHHm95/H6bOjv/3fUJQq+x/zjJ3UceLwD8DzvXwjU9gn6ZZPiYCdTSL6877pPkb5Kc0+FYlNcYD+p8DABYIbdOcvKCg125039Okl0yTddN8ogkH6wT9hZ1XMprj9/sPXgA5u9WdTe7RQW4f6urC5ZJSVJeUycbLuIYlfLKj+s9aADma9ckJy4ooJUtgu+S5bZDXbp31oJejZQnEADQ/K72hAUEsvfXiXZzsn1dIjl2ZcRL6jbLANDEjkmOHTl4lScLh2TebpnkyJGPY0ky7td7oAAsvy1GXupX7lpfWwvwrIqDk5w04jEtRY9u23uQACy3vx4xUH11ho/7N9S2Sd464rEtxY9u2HuQACynZ44YoI6o5XdXXalncN5Ix/gjEy3NDMCEHVTXmLcOSiXYPar34CamlBn+ykhJQHm9AgAb5KZ1C9rWwei4WkeAdRcSesdIScDDeg8OgOkrG+F8YIQg9IW6moBrPvavHOHYn1VrOADA1XraCAHoo3WLXTbMM2oxpJbnoOyfYKdSANZp3yQXNg48/5Rkq94DW9LJgZc0PhclsQCA/2az+pi+ZcB5V91Cl03zyFrit9X5uKgmeQDwM08d4bH/lr0HNQNPbnxe/qP3gACYjlIw5kcNg8zna6Eb2nhZ4yTg13oPCIBpeGPjCnQ36T2gmblW44qMJyvCBMABDd8zlxr01vmPo1T0+2TDJOCFvQcEQF8fbxhUVPgb180bvqq5sH4fACvovg2D/5t7D2ZFPKBhjYC/6D0YAPr4WKNA8vUk1+s9mBXyyobLAm/WezAALNY9GgWRi1d4S99etkjyxUbn79W9BwPAYv17owBSlqixeHdqNHnzAns0AKzWzP8Wwf9Ej/5nsXzzpb0HAsBivLlR4Dik90BWXCngdHqD8/jD+loBgBnbpq7XHxo03t97IPyXxzVK5h7SeyAAjOu3GwSLsgzttr0Hws+qBH6twTn9UO+BADCuzzUIFu/pPQj+x9bBQ89pmVC4W++BADCO2zV6XFxmoDOtMsHfbnBelQcGmKkXNwgS/9Z7EKzTExqc22/2HgQA4/hKgyBxr96DYJ2uk+SUBuf3lr0HAkBbuzcIDt/oPQiu0QsbnONn9R4ELLNr9+4ArMOvNPiOIxp8B+N5ew3iQxzcqC8AzGTjnzJL3Pax0/fpgef5siQ79B4EAG2Ucr2XDAwMH+49CDbI7zR4DfDw3oOAZeUVAFNz5walXj3+Xw7vqjs0DvFzjfoCK0cCwNQMvaCXx/8faNQXxnVWkk8M/A4JAGwiCQBTM/SC/qUaWFie+R5D3MEuj7BpJABMrVb8XTsHFBbrowM/X14X7d+oL7BSJABMyZ5JbjzwOyQAy+WLSc4Z+B1Dk0ZYSRIApuTWAz9/aZJPNuoLi3FZg3kA+zbqC6wUCQBTcouBn/9ykvMb9YXFGZq0KQkMm0ACwJQMvZAf06gfLNbQ87ZXo37ASpEAMKcE4LhG/WCxhp63nZJs3agvsDIkAMzpFYAEYDmdUOdvDFk94ikAbCQJAFNRLuK7DPyO4xv1hcVPBPxOgx0kgY0gAWAqtk2y+cAKgN9u2B8Wa+jTmxs06gesDAkAUzH0An52kp806guLd9rAz2/fqB+wMiQATMXQC/h5jfpBH0PPnwQANpIEgKmQAKw2CQAsmASAqbj+wM8rALTczh34eQkAbCQJAHP5LXoCsNyGnj/XMthI/tEwpaVgQ1zQqB/0MfQJTlkFAmwECQBTMfQCvmWjftDHVgM/P6SQEKwkCQBzSQBKHQGW19Dz5wkAbCQJAFMhAVht23Z+hQQrRwLAVFw08PMSgOU29PwpAgUbSQLAXCrBSQCW27adfz+wciQATMVpDeoI+D0vrxsO/PzpjfoBK8MFkyktA7tg4CqAXRv2h8W65cDP/7BRP2BlSACYkqF3cfs06geLd6uBn5cAwEaSADAlpw78/N6N+sFi7ZRku4Hf4RUAbCQJAFPyrYGflwAsp70b7CMgAYCNJAFgSr4x8PNeAaxmAlB+N2sa9QVWhgSAKfnmwM/vn2SzRn1hce7cOXGElSQBYE4JQFkKeECjvrA49x34eQkAbAIJAFNyYoNd4YYGExZrzyS7D/wOCQBsAgkAU1Le43554HdIAJbLfRr8Zo5u1BdYKRIApuYTAz9/d1sDL5X7NnhtdEajvsBKkQAwNUcN/Pz1ktyrUV8Y1+ZJDhr4HR9v1BcAOisB/OL6aHdT29/2HgQb5IEDz3NpD+s9CADa+c+BQaFMJNym9yBYr79rkADcrPcgAGjnxQ0Cw2N7D4JrVEr/XjjwHJv9DwOYA8AU/XOD73h0g+9gPA9Nct2B3/FPjfoCwIR8Z+Dd4eUN1pcznk82eMpz+96DAKC9VzQIEK/rPQjW6W4Nzu1xvQcBwHj14YcGiZ+YJDZJRzY4ty/pPQgAxnGtJN9tECj+rPdA+G8ObHBOS7tD74EAMJ7nNggUZUngjXsPhJ95b4Nz+tnegwBgXDdpUBSotFf2Hgj/5U5JrmhwPg/rPRAAxvfOBgHj0iT79R7Iirt2gwJPpZ1Zq0UCMHP3aPTO+BN1XgF9/E6j8+hpDsAKObpR8FAcqI8yB+PHDc7fZUn26j0YABbn1xslAD9Msn3vwaygtzQ6f+/oPRAAFutaDZ8CvKv3YFbMgxpN/Ct3//v0HgwAi/erjRKA0p7QezAr4uZJftTonL2192AA6PcU4HONgslFSe7Ye0Azt3mjev+lXeLdP8Bqe2DDpwDHJtmm94Bm7E8bnqs39R4MAP39S8PA8p4km/Ue0Awd2ui9/9p1/yo5ApBda3nfVknAX/Ue0Mzcp27C1Or8lPoBAPBfnt8wwJT2x70HNBO3S3JWw/PyBU9oALiy69R3+C2TgGf0HtSS2zPJqQ3Px+VJ7tJ7UABM81Hz5Q0DTlln/rjeg1pSZYb+CY0Tsv/de1AATNfLGwedMnHN64CNUzZZ+n7j8/D1JNftPTAApr3W/DONg09pf1F3r2P9T2HOaXzsL6pzCQDgGt0yyXkjJAHvrHMNuPqlfi1n+69tZv0DsMEOGyEQramVB/foPbiJ2SLJqxqu879y++fegwNg+fz5SEnAOfVul5/W9m9V3veq7Zt2agRgU5T14u8fKTiV9sYkW2Z1HZzkxyMd27Jh0C16DxCA5bVdnUE+VhLw1ST3zGopZXjfMtIj/zV1HsHdew8SgOW3e5LTRkwCSiA8IsmOmf/ui49NcsbIx/IxvQcKwHwc0Lgk7dVtUvOkmZaqvVPDrZevqT2r90ABmJ871iA9dhA7oZYR3irL7w716UbLCotX157be7AAzNddRyhUc3XtpJoILGMFu3vUCZRjvee/ante7wEDMH93H6lQ0NW1siHOy5Lsm+lPmCx7H3xqgcdmTd3JEQAW4s5JfrjgQLemvkd/WpIdMp3SyQ9M8ndJLlzwsSivFX639wEAYPXsUYvNrOnQLkny0Xr3e/daTW+R4358kneMvDrimlpJNh6ywDEDG7jUB1bFDZK8p25i09P5Sf5vrap3TJJjk3ynJgpD7JRknyS3qk897luXRfZ0epJD6qZNwIRIAFgV163vvcvj+LfVpW5TclmS7yY5LskPkpxbE4Xz6xyGsqxx6yTb1FbK5m5b/7xVbWV8U1KC/4OTfKG+AgAmRALAXGxey8mWyXd711Zq198sya41eNLP2bXkb1ma+b0kxyf5Vk14jq8Fh4AFkgCwrG6S5N5J7lIfd5d1/9fr3Sk2WUkA/rO2T9enBmXuADASCQDL4jr13f2D6rvt2/TuEKO6NMmXknyg1ij4Su8OwdxIAJiyLeuytYcleUCS6/fuEN2cmORfkrwvyVG1aBEAM1Me6b9uxO1nteVuJRl4QZ3bAcAM7vYfs6BNaLR5tLKy4N+S/FqSa/f+AQOwccrSted0qtSnzacdXwselbkiAExYeZ//ogVs26utVjslyTMt+wSYnnKH9oSOZWm11Wjfr7+zzXr/4AH4aUnYEyYQHLTVaV9Mcq/eP3yAVbVXXc/dOxhoq9v+McnOvf8hAKxSnYkn1Hr2vQOApp1df4/qnwCMfNf/iQlc9DXtqq08jfI0AGAEj6i72fW+0Gva1bWzaoVJABoom/H89QQu7pq2oe01Sbbo/Q8HevAujFZKWdb31l35pui8+lTi/NrOrn9e0rtjMy7wVLZo3r7WfCiP3K+bafpUfRrwg94dgUWSANDCPeos67JFb28n1p3jjqvt2Ppn2VeAvm6QZJck+9bdHG+d5IAke/TuWK1E+dAkn+zdEYBlcWiSn3Qu+PL2JI9Lsnvvg8Em2bn+jsoGUN/t+Fu6KMlDeh8MgGXwzLohy6Iv1KWY0AvrHSTzs1+Sw+uTnEX/ti5L8qTeBwBgyl664AtzeWf/5iT39OpqpZQ5Ja9N8qMF/97KPhV+ZwBX8YoFXohPSvLUCU8gYzHK+X9indOxqN9eSTwAqP50gdu7lvf6tnflyq5d95RY1OuBl/ceMMAUPH8BF9yTkzzSLm5sQCJQfiffWsBv8n/1HixAT08Z+SJb1uO/0j7ubKTyhOgPF7DfxO/3HihADw8Zebb/x+u6cBhaiGqs3+gVSR7ee5AAi7T/iHdXF9qdjcYeW1eMjPV7vVPvAQIswk5JvjfSxfSYut4bWtutPlUa43f7vfrvAmC2Nh9xO99SuW+b3gNk1jarM/ivGOH3+4W68RXALI2x3O/SJL/de2Cs3NbUY7zCekPvgQGM4eAR7pwuSPKg3gNjJR2Y5PTGv+cr6r8TgNnYIcmpjS+WZ9YdA6GXPUeoGXCG+QDAnPxz44vkKZb4MRElWH+z8e/7Q1axAHPwqMYXx/IkYa/eg4KrJAHHNf6d2z0QWGo3SnJaw4tiWYt9h96DgnXYJcl3Gr/i2rH3oAA21VsaXhAvTnJQ7wHBeuYEtEx439p7QACb4q4NZ/1fluRXew8INkCZmPqTRr/78u/HRFdgqZQJTJ9qeCf0nN4Dgk7zXr5SC2gBLIVDG14AP1i3aYVl8pcN/w08rvdgADZEuVs5vmGN9Bv3HhBsgi1red8W/w5OSLJF7wEBbMjOaa1K/N6z92BggLJc9dxG/x7KDpcAK3H3/8Leg4EGntzo38NJSa7TezAAV+fhjS52pbzqVr0HA40mxB7V6N+F4kBMnhKWq+uzSe7c4Ht+KcmRDb4HWr/X3y3J7rVIz41q26FuFVzu0LdOckndqOqsumvgTZI8tcHfX6oN7luTAYDJuFuju5x/6D0QVt7mteLkYUleneTDdUJq690sN6Xdr/fBAbiqdza4uJ1XS6rCIpUZ9veu804+Un+HaybaysZaAJNxwyQXNbi4vaT3QFip3+zjk7wnyTkTCOwbUxVz194HD2CtpzW4sJV3pdb8M6ZtkvxGLS51yQSC+aa21yqOBUzFlxpc1Mq7VhjD/kn+asnu9NfXys6Df1AnIAJ0ccsGF7OyecrOvQfCrJQ75IOTfHICwXrMVnbJfLedMoEe/qjBRazcnUGrCX1PTPLtCQTnRbfPJ3lg7xMArI4vNrhw3b73IJjF0r3Dat38NSveylOPn+99QoB5u1mDtdFlu1MY4v5JvjGBwDu19u+NCnMB/A+HNbhI/X7vQbDU80/eP4FAO+VWEvQjTBYEWvv7Bmuad+o9CJbycf8z6tLR3gF2WdqZdUdBpdqBJk4beFH6UO8BsHTumOTLEwioy9rKHht79j6JwHK7RYOLUZmtDRu6rO/Zddlb7yC67K1sVPSU3icUWF6PaXAhKu9wYUMmm/7HBALn3Fp5hbdt75MLLJ/XDbz4nNx7ACyFeyY5dQLBcq7t2CS37X2SmdcEHebvdgM//7FG/WC+np7kVbW4z5SckuS4JCfV8sIX1AmJZ9c/1+47cIP659ZJrp9k9yR7T6zqZenPZ5I8Kcnbe3cGmL4yk/isgXceZVMWWJfNkrx+AnfHlyb5VJKXJjm0TkAswXyo8tj9TkkeleSVST5XV8T0Hu+fWiUArM+uDS42ZiKzLuWO+V87BsEv1UD4wNqXRdk+yYOTvCbJ1zuO/4gJPnEBJuQXBl5kLrSdKetww3o3vOigVx7lv6Q+Dp+K/Woi8v0Ox6MkYNfrfQCAaXr8wAuM8r9c1U3q72JRQe6iJG9Ncu+JJ6PldcgvJnnHgpdAfromZAD/zYsHXlzK9qWw1k2THLOgwHZevbNexgqUN0/y5/UJ2iKO1dckAcBVHTHwwvKi3gNgMnaogWYRpXBfmORGmcfTklckOXcBx+0zC54LAUzcBwdeVMrsZyhL474wcgArs+tfW/+uuSnJzJuSXD7yMfxwki17DxaYhs8PvKDct/cA6G6LGljGDFwluTgw83dAks+OfCzfq8YLUHxn4MXEHuWrraw1/9sRg9WPk/zWxCf3jTFZ8Om1MNFYx7U8bQBW3BkDLyT79h4AXT1/xCD1iYlV2lu0PUdeSmkTIVhxQycfrfIFetX98kjvrK+o7/oVsfnpo/qX12PS+jhfUvdnAFbUTwZeRLbrPQC6bSE9tIT0utrpSR7Qe3AT9OD6OqT18T617tAIrKChdxblfSWrpcwiP3qEYFTK5u7Se3ATtleSb49w3I8yKRBW09CLB6vn1SMEIdXqNrxuwJdGOP7lNQOwYiQAbIz7jfA++sN1Vz02TCnmc2Tjc1Dmctyt98CAxZIAsKHKfI9TGgeesm+9yX6b9hrmPSO8glEkCFaIBIAN9YbGAed93j0PskWDSp5XbUp7wwqRALAhfq7xkr8y8Wyr3oOagbLV76canpdLazVCYAVIAFifzRtv8nP0TOv599yE6djGZZdXqfIirCwJAOvz5IbB5btLun3v1O2W5AcNz9Njeg8IGJ8EgGtygwbloq9cea68SmAc96o7JrY4VyeaEAjzJwHgmryi4V3lM3oPZgW03Jvh93oPBhiXBICrc9MkFzQKJu+vOwcyrms3rBFwpuJMMG8SAK7Oaxo+Ti6vEliMHRvOB3hZ78EA45EAcHVB5KJGQeSgEdfB712Xre21JDPXN6sbKR1Q+77FiJsHtTh359jwC+ZLAsC6vKhRAHnnCH27bZK/W8dW1mWy4huT7J7p2SPJm9YxofLceoxuM8Lf+S+NzqG5GzBTEgDWVVymxcz/Etx2btivMofguRtQkKg8uTgs0/GbG7Dtdpm9f3jjeRK7Jjm/0dJNu37CDEkAuKrfbnTn+MzG/XrlRv79JaD2dvhG9rmsumjpuY3O5a807hcwARIArurzDX4XX21c539T32kfvkTBf2375YZ9KGv5j29UuhmYGQkAV3bHRneMD23Yp/JY/JsD+nL4EgX/0r7R+FXAbzQ6p2PMUwA6kgBwZa9r8Js4pvGM/Ds36FMpkLMoz27Q35Yb8pSVBic06NOLG/YJmAAJAGuVR/anNfhNlDvOln63QZ8W9SRgyJ3/ldvTG/frSQ369O3GfQI6kwCw1v0b/B5OSnKdCZcjPnwJgn9pL2/ctzIX4HsN+rV/434xYctQWANoo8V7+1fVTX9aurDhd710pNcBz67f3UpZvtfSxbWy41CHNvgOYCI8AWBtsv/Dgb+FEmRuNELfHtnwznqMJwEt7/zXtkNHqu54SYMnPPZ0gJmQAFDcqcFv4R9H6tsODQLXWEnAGMH/4hE34flAg/7dbqS+AQsmAaDVNrKHjNi/N40QaNcMfB3QYrb/utrrM55DG/TvaSP2D1ggCQDFJwb+Ds4YcWObtY+vTx4p4P7RJvTnj0bqS3nEfuOMZ6skZw3s43tG7B+wQBIAtmyw899fLqCf+zcIXi2SgLGC/1m1ENPY/rpBsmceAMyABIC7NfgdtCxfe01KgPzxSAH4eRvw9z9rpL/77FrwaBF+vUF/91tQX4ERSQD4/YG/gUsXvGd8ryRgDsF/7aTK9e2ouL5mHgDMgASAdw78DXymQ58XnQTMJfivdfTAfr+tQ5+BxiQAfH3gb+Blnfq9qCRgbsG/ePXAvn+2U7+BhiQAq23LBmvs79ex/weOPDFwzAl/pe+9HDyw/+eYCAjLTwKw2vZr8BvYvvMYxnwSMLc7/ysvqxw6jl06jwEYSAKw2g4ZeP5L+eApWJYkYArBf62hx+ug3gNgXDYDgnnbY+Dnj8s0fLkGpDMzXefUHRc/l2k4fuDn923UDyZKAgDztvtMEoCpJwFTC/7FsQM/v1ujfjBREgCYt51nlABMNQmYYvBv8QRgjJ0fmRAJAMzb0F3nvp3pmVISMNXg3yIBGGvHQiZCAgDzNnTjmSkE2akmAVMO/mlwbDwBmDkJAMzb0Lu48zNdPZOAqQf/4tyBn5cAwJKzDHC1DV0Ktlemb9FLBKe01O+a3GrgOE/vPQBgGAnAajtv4Pm/SZbDopKAZQn+xU4Dx3ph7wEAw0gAVtvQMsDXy/IYOwlYpuBfbD1wvENfITBx5gDAvA39N35xlkeZE/D3I++qOOV3/q3PXdlSGFhingCstnMGnv/tsjyePeLd/9r2/CyP6w8c6xm9BwAMIwFYbd8beP6HFhKaU/BftiRgl5nsA8FINh/ri5kNScBq2zbLEfxfucC/70X1zxdn2oY+vbmsUT+YKHMAgGVOABYd/K+cBEz9ScA2DSaQMmMSAGDMIDLH4L8sScDQJwBeAcycBABY31ryKeod/JchCbjpwM+f2qgfTJQEALgme2d6phL8p54E7DPw899v1A8mSgIALFMCMLXgP+UkYOi58wRg5iQAwLIkAFMN/lNNAoaeux806gfQyaLWRmvzbGU3wGut2Dr/oW0KScC1ay3/IeO4X+9BAMOcO4ELorbcbbfOv+HDRxrXWbWN8d3P7XzM9mgwhlJICFhi35hAANGWuz16hnf+azf2GXMDoZ5PAh47sO+ndew70MhrJhBAtOVufzPT4L/WHJOAtw3s94c69Rto6La1pGfvIKItb/vujIP/XJOAkwb2+U869BkYwV9OIIhoy93KO+W5Bv+5JQG3aNDfhy2wv8CIrpPkIxMIItrytsfPPPjPKQl4QoO+3nJBfQUWlAT8hdcB2ia29y/gN/r0kfpeZvofuBH9OHDE1QHPzPg+OLCPp05k6SfQ2G2SvDrJ15KcN4HAoi1HKzvD7Tji7/IeSS6dQPAfOwkoCfjPZ9z6/0OPY5lACMBMHNwgeD1jxP59ekLBf+wk4Asj3mH/XoP+HTpS3wDoYMsGRaFK4BrrqVSvd/695gTcKeP4coMnFDcaqW8AdPIPDQJXWVba2lMmdue/iCcBz8k0E6lPjdAvJspmQLA63tvgO56Y9nZu+F3lzv/+ST7f8Ds/X7+zfHcrN884idRQRzb4DgAmZvs6mW/IHeKFdaJZSy9sdFddAvRdMp6WrwNe27hvOyW5qEG/bt24X0yYJwCwOkqAPGrgd1w3ye+mrRMbja3sXvfZjKe8X/+lRk8CTk5bz0qy1cDvKMfum436A8DEDN0kZk2dTHjDhn26WZIrJvTOfxFzAvZr2J8d6rbNQ8/rGK93AJjQaoDTGgSLFzTu17sm+th/jNcBn2jcl5c0OJ8X1ldEAMzYKxoEjHPqnXsreyY5c+J3/i2eBJT39Ac07MMujQp6/Z+GfQJgokqwvbxB0Hhn4379wkY8yj69c/Bf68Dalw3pc6nQ96jGf/+7G5zHNfXYA7AC/nWigeP2SY5ez9/5sSS7ZjpKXz66nj5/a4QSwPdrdA7L8Vb7H2BFPKhR8DimbjTVenXSIUnemuSLSb5TZ6i/Psl9Ml33qX0sdQO+m+Sr9SnJI5JsMcJcjuManUNb/wKskGvV4NoigDyv92BW0AsaJnCWgwOsmAc2CiLl3fbdew9mhdy1QUGnte03eg8GgD4+3iiQlMI2NpEZ3w1q4aQW55z/cB8AAATjSURBVOykEV5NALAk7t0omJT2PpPJRlWO7Qcanq/H9x4QAH39e8Og0rpMMP/fsxuepzJR0bt/gBW3f90HvtV8gF/uPaAZOqThObq8U/VEACbozxreXZaysvfoPaCZTfq7oOH5+ZveAwJgOq5X19u3CjJn16I+DHObhlsQry3hXLYOBoCfeUDDQFPaKROr2Ldsdkvyvcbn5Km9BwXANL2zccApS9b27j2oJbRXkm83PhdlsqdVGgCs046Ntgue4sY9y6JM0Duj8Tko3+fRPwDrrWnfasb52nZ+fcXANSubK53b+NivqasIAGC9/tcIQejiJIf1HtiEPb5hid8rt7/qPTAAlkcpEnPkCMGotLfUVQf81NZJ3jbSsf66Yw3Axrphw7rz69qFbr/eA5yAfeq2wWMc4/Le/xa9BwjAcmpdhOaq8wIel9VUZuP/1ojH9qIkd+s9SACW24Nqid81I7WjasGbVXGrEV+vlHZFkkf3HiQA8/DoGljGClpl8ttrk2yT+Srv4v84yU9GPI5r6gROAGjmD0cOXGvqnIOHz2ynus2SPDLJyQs4fm9Q7AeAMbxmAUGstGPrksEtsrxK338zyXELOmaCPwCjKQHmVQsKaKV9N8mTkmyV5VH6+uQRV1Csq71e8AdgEZ6zwOC2dnfBI5IcNOFAd0Cdx9C6jO/62ptm9soEgIkrd7mXLzjYramb5LygrqHvbd86sa/lVsob01494YQIgBl7xEjlaze0/TDJu5M8IckeCxhv2VDnoUneuOBH/FdtZVmmrX0ZROYIDHXvJO+qOwn2VuYMfKVOvDu+/lnajzbye3ao2xjvU9ftl3b7BSUZ63NWTUL+o3dHWG4SAKCFXZL8Y93KdorOq+38+ufZ9b9Taw9sn2Tb+t/b1jZF30pycE1qAGAStqw7z/V6LD739r66PwMATNLjRqxxv4qtHMsn9j6pALAh9qjvqHsHz2VvZadAuyYCsHRzjJ5S37n3DqTL1sos/z9Z8kqIAKy43ZN8eAJBdVla2R3xdr1PGgC0ehrwsFrEp3eAnWo7pW6EBACzc50kT+9QLnfK7aIkL02yde+TAwBju36Sl634aoHz6sZKpbogAKyUG9eNhU6ZQEBeVDu3bhp0094HHwCm8GrgsUm+NIEAPVb7Vk12tut9sAFgqnsLvLWW610zg8f8b0lyT6XXAWDDSwv/SpK/X7K5Ahcn+UiSw+reAgDAJioz5A9N8ua6y9+aibWyC+Ebkhwi6LMsPJICltHO9VXBvevj9Vsk2WxBf3ep0vf1JEfXOQul5PExC/q7oRkJADCX1wX71HbrJPsm2TvJTZLcKMnmmxDkf5jke0lOrasUvpbkyzX4XzLSOGBhJADAKtiuJgI71C11y7Xvsqv8f86t7+9Pq6082gcAAAAAAAAAAAAAAAAAAAAAAAAAAAAAAAAAAAAAAAAAAAAAAAAAAAAAAAAAAAAAAAAAAAAAAAAAAAAAAAAAAAAAAAAAAAAAAAAAAAAAAAAAAAAAAAAAAAAAAAAAAAAAAAAAAAAAAAAAAAAAAAAAAAAAAAAAAAAAAAAAAAAAAAAAAAAAAAAAAAAAAAAAAAAAAAAAAAAAAAAAAAAAAAAAAAAAAAAAAAAAAAAAAAAAAAAAAAAAAAAAAAAAAAAAAAAAAAAAACAb4v8B5FA9/C9H6fAAAAAASUVORK5CYII=;" vertex="1" parent="lAURRO7PPgRWYJF85Bkb-2">
          <mxGeometry x="1092" y="708" width="52" height="52" as="geometry" />
        </mxCell>
        <mxCell id="JS5RN00amlKPowmsBt5I-51" value="&lt;u&gt;VIEW PROFILE&amp;nbsp;&lt;/u&gt;&amp;nbsp; &amp;nbsp; &amp;nbsp; &amp;nbsp; &amp;nbsp; &amp;nbsp; &amp;nbsp; &amp;nbsp; &amp;nbsp; &amp;nbsp; &amp;nbsp; &amp;nbsp; &amp;nbsp; AGE: 6&amp;nbsp;" style="text;html=1;align=center;verticalAlign=middle;whiteSpace=wrap;rounded=0;" vertex="1" parent="lAURRO7PPgRWYJF85Bkb-2">
          <mxGeometry x="902" y="358" width="240" height="30" as="geometry" />
        </mxCell>
        <mxCell id="wx8Vgp3tyqvrlBc7rLsZ-1" value="&lt;u&gt;VIEW PROFILE&amp;nbsp;&lt;/u&gt;&amp;nbsp; &amp;nbsp; &amp;nbsp; &amp;nbsp; &amp;nbsp; &amp;nbsp; &amp;nbsp; &amp;nbsp; &amp;nbsp; &amp;nbsp; &amp;nbsp; &amp;nbsp; &amp;nbsp; AGE: 67" style="text;html=1;align=center;verticalAlign=middle;whiteSpace=wrap;rounded=0;" vertex="1" parent="lAURRO7PPgRWYJF85Bkb-2">
          <mxGeometry x="902" y="460" width="240" height="30" as="geometry" />
        </mxCell>
        <mxCell id="wx8Vgp3tyqvrlBc7rLsZ-2" value="&lt;u&gt;VIEW PROFILE&amp;nbsp;&lt;/u&gt;&amp;nbsp; &amp;nbsp; &amp;nbsp; &amp;nbsp; &amp;nbsp; &amp;nbsp; &amp;nbsp; &amp;nbsp; &amp;nbsp; &amp;nbsp; &amp;nbsp; &amp;nbsp; &amp;nbsp; AGE: 41" style="text;html=1;align=center;verticalAlign=middle;whiteSpace=wrap;rounded=0;" vertex="1" parent="lAURRO7PPgRWYJF85Bkb-2">
          <mxGeometry x="902" y="560" width="240" height="30" as="geometry" />
        </mxCell>
        <mxCell id="wx8Vgp3tyqvrlBc7rLsZ-3" value="&lt;u&gt;VIEW PROFILE&amp;nbsp;&lt;/u&gt;&amp;nbsp; &amp;nbsp; &amp;nbsp; &amp;nbsp; &amp;nbsp; &amp;nbsp; &amp;nbsp; &amp;nbsp; &amp;nbsp; &amp;nbsp; &amp;nbsp; &amp;nbsp; &amp;nbsp; AGE: 4&amp;nbsp;" style="text;html=1;align=center;verticalAlign=middle;whiteSpace=wrap;rounded=0;" vertex="1" parent="lAURRO7PPgRWYJF85Bkb-2">
          <mxGeometry x="902" y="658" width="240" height="30" as="geometry" />
        </mxCell>
        <mxCell id="wx8Vgp3tyqvrlBc7rLsZ-4" value="&lt;u&gt;VIEW PROFILE&amp;nbsp;&lt;/u&gt;&amp;nbsp; &amp;nbsp; &amp;nbsp; &amp;nbsp; &amp;nbsp; &amp;nbsp; &amp;nbsp; &amp;nbsp; &amp;nbsp; &amp;nbsp; &amp;nbsp; &amp;nbsp; &amp;nbsp; AGE: 1&amp;nbsp;" style="text;html=1;align=center;verticalAlign=middle;whiteSpace=wrap;rounded=0;" vertex="1" parent="lAURRO7PPgRWYJF85Bkb-2">
          <mxGeometry x="902" y="760" width="240" height="30" as="geometry" />
        </mxCell>
      </root>
    </mxGraphModel>
  </diagram>
  <diagram id="OQzFdW6IWhhBjTGOo0hU" name="Page-6">
    <mxGraphModel dx="615" dy="469" grid="1" gridSize="10" guides="1" tooltips="1" connect="1" arrows="1" fold="1" page="1" pageScale="1" pageWidth="1169" pageHeight="827" math="0" shadow="0">
      <root>
        <mxCell id="0" />
        <mxCell id="1" parent="0" />
        <mxCell id="KMRb3lKE4DDrbl_DnfYs-3" value="Username&lt;div&gt;Password&lt;/div&gt;&lt;div&gt;About me&lt;/div&gt;&lt;div&gt;Details&lt;/div&gt;" style="edgeStyle=orthogonalEdgeStyle;rounded=0;orthogonalLoop=1;jettySize=auto;html=1;exitX=1;exitY=0;exitDx=0;exitDy=0;entryX=0;entryY=0;entryDx=0;entryDy=0;" edge="1" parent="1" source="dWAX9Fj0jKEwjgWSanva-1" target="8Rx85V0oip0guXbSuWZj-1">
          <mxGeometry x="0.0041" relative="1" as="geometry">
            <Array as="points">
              <mxPoint x="460" y="40" />
              <mxPoint x="460" y="40" />
            </Array>
            <mxPoint as="offset" />
          </mxGeometry>
        </mxCell>
        <mxCell id="dWAX9Fj0jKEwjgWSanva-1" value="1" style="swimlane;fontStyle=0;childLayout=stackLayout;horizontal=1;startSize=20;fillColor=#ffffff;horizontalStack=0;resizeParent=1;resizeParentMax=0;resizeLast=0;collapsible=0;marginBottom=0;swimlaneFillColor=#ffffff;" vertex="1" parent="1">
          <mxGeometry x="320" y="40" width="100" height="50" as="geometry" />
        </mxCell>
        <mxCell id="8Rx85V0oip0guXbSuWZj-4" value="Register" style="text;html=1;align=center;verticalAlign=middle;whiteSpace=wrap;rounded=0;" vertex="1" parent="dWAX9Fj0jKEwjgWSanva-1">
          <mxGeometry y="20" width="100" height="30" as="geometry" />
        </mxCell>
        <mxCell id="dWAX9Fj0jKEwjgWSanva-2" value="2" style="swimlane;fontStyle=0;childLayout=stackLayout;horizontal=1;startSize=20;fillColor=#ffffff;horizontalStack=0;resizeParent=1;resizeParentMax=0;resizeLast=0;collapsible=0;marginBottom=0;swimlaneFillColor=#ffffff;" vertex="1" parent="1">
          <mxGeometry x="320" y="120" width="100" height="50" as="geometry" />
        </mxCell>
        <mxCell id="8Rx85V0oip0guXbSuWZj-2" value="Login" style="text;html=1;align=center;verticalAlign=middle;whiteSpace=wrap;rounded=0;" vertex="1" parent="dWAX9Fj0jKEwjgWSanva-2">
          <mxGeometry y="20" width="100" height="30" as="geometry" />
        </mxCell>
        <mxCell id="KMRb3lKE4DDrbl_DnfYs-11" value="User ID&lt;div&gt;Password&lt;/div&gt;" style="edgeStyle=orthogonalEdgeStyle;rounded=0;orthogonalLoop=1;jettySize=auto;html=1;exitX=0;exitY=1;exitDx=0;exitDy=0;entryX=1;entryY=0.25;entryDx=0;entryDy=0;" edge="1" parent="1" source="8Rx85V0oip0guXbSuWZj-1" target="dWAX9Fj0jKEwjgWSanva-2">
          <mxGeometry relative="1" as="geometry" />
        </mxCell>
        <mxCell id="8Rx85V0oip0guXbSuWZj-1" value="D&lt;span style=&quot;white-space: pre;&quot;&gt;&#x9;&lt;/span&gt;User" style="html=1;dashed=0;whiteSpace=wrap;shape=mxgraph.dfd.dataStoreID;align=left;spacingLeft=3;points=[[0,0],[0.5,0],[1,0],[0,0.5],[1,0.5],[0,1],[0.5,1],[1,1]];" vertex="1" parent="1">
          <mxGeometry x="510" y="40" width="100" height="30" as="geometry" />
        </mxCell>
        <mxCell id="6kI22ym6gwqCalwTSeJd-9" value="Updated Profile" style="edgeStyle=orthogonalEdgeStyle;rounded=0;orthogonalLoop=1;jettySize=auto;html=1;exitX=1;exitY=0.25;exitDx=0;exitDy=0;entryX=1;entryY=0.5;entryDx=0;entryDy=0;" edge="1" parent="1" source="tgFxibH1JUlSfQ2uwyam-2" target="8Rx85V0oip0guXbSuWZj-1">
          <mxGeometry relative="1" as="geometry" />
        </mxCell>
        <mxCell id="tgFxibH1JUlSfQ2uwyam-2" value="3" style="swimlane;fontStyle=0;childLayout=stackLayout;horizontal=1;startSize=20;fillColor=#ffffff;horizontalStack=0;resizeParent=1;resizeParentMax=0;resizeLast=0;collapsible=0;marginBottom=0;swimlaneFillColor=#ffffff;" vertex="1" parent="1">
          <mxGeometry x="320" y="200" width="100" height="50" as="geometry" />
        </mxCell>
        <mxCell id="tgFxibH1JUlSfQ2uwyam-3" value="Update Profile" style="text;html=1;align=center;verticalAlign=middle;whiteSpace=wrap;rounded=0;" vertex="1" parent="tgFxibH1JUlSfQ2uwyam-2">
          <mxGeometry y="20" width="100" height="30" as="geometry" />
        </mxCell>
        <mxCell id="tgFxibH1JUlSfQ2uwyam-6" value="5" style="swimlane;fontStyle=0;childLayout=stackLayout;horizontal=1;startSize=20;fillColor=#ffffff;horizontalStack=0;resizeParent=1;resizeParentMax=0;resizeLast=0;collapsible=0;marginBottom=0;swimlaneFillColor=#ffffff;" vertex="1" parent="1">
          <mxGeometry x="320" y="360" width="100" height="50" as="geometry" />
        </mxCell>
        <mxCell id="tgFxibH1JUlSfQ2uwyam-7" value="Friend Request" style="text;html=1;align=center;verticalAlign=middle;whiteSpace=wrap;rounded=0;" vertex="1" parent="tgFxibH1JUlSfQ2uwyam-6">
          <mxGeometry y="20" width="100" height="30" as="geometry" />
        </mxCell>
        <mxCell id="o3f6-bipMCMXzn1ICwC2-1" value="6" style="swimlane;fontStyle=0;childLayout=stackLayout;horizontal=1;startSize=20;fillColor=#ffffff;horizontalStack=0;resizeParent=1;resizeParentMax=0;resizeLast=0;collapsible=0;marginBottom=0;swimlaneFillColor=#ffffff;" vertex="1" parent="1">
          <mxGeometry x="320" y="440" width="100" height="50" as="geometry" />
        </mxCell>
        <mxCell id="o3f6-bipMCMXzn1ICwC2-2" value="Meet Request" style="text;html=1;align=center;verticalAlign=middle;whiteSpace=wrap;rounded=0;" vertex="1" parent="o3f6-bipMCMXzn1ICwC2-1">
          <mxGeometry y="20" width="100" height="30" as="geometry" />
        </mxCell>
        <mxCell id="KMRb3lKE4DDrbl_DnfYs-2" value="Username&lt;div&gt;Password&lt;/div&gt;&lt;div&gt;About me&lt;/div&gt;&lt;div&gt;Details&lt;/div&gt;" style="edgeStyle=orthogonalEdgeStyle;rounded=0;orthogonalLoop=1;jettySize=auto;html=1;exitX=0;exitY=0;exitDx=0;exitDy=0;entryX=0;entryY=0;entryDx=0;entryDy=0;" edge="1" parent="1" source="KMRb3lKE4DDrbl_DnfYs-1" target="dWAX9Fj0jKEwjgWSanva-1">
          <mxGeometry x="0.0002" relative="1" as="geometry">
            <Array as="points">
              <mxPoint x="40" y="40" />
            </Array>
            <mxPoint as="offset" />
          </mxGeometry>
        </mxCell>
        <mxCell id="KMRb3lKE4DDrbl_DnfYs-9" value="Username Password" style="edgeStyle=orthogonalEdgeStyle;rounded=0;orthogonalLoop=1;jettySize=auto;html=1;exitX=0.25;exitY=0;exitDx=0;exitDy=0;entryX=0;entryY=0.25;entryDx=0;entryDy=0;" edge="1" parent="1" source="KMRb3lKE4DDrbl_DnfYs-1" target="dWAX9Fj0jKEwjgWSanva-2">
          <mxGeometry relative="1" as="geometry" />
        </mxCell>
        <mxCell id="KMRb3lKE4DDrbl_DnfYs-16" value="Updated Profile" style="edgeStyle=orthogonalEdgeStyle;rounded=0;orthogonalLoop=1;jettySize=auto;html=1;exitX=1;exitY=0;exitDx=0;exitDy=0;entryX=0;entryY=0;entryDx=0;entryDy=0;" edge="1" parent="1" source="KMRb3lKE4DDrbl_DnfYs-1" target="tgFxibH1JUlSfQ2uwyam-2">
          <mxGeometry relative="1" as="geometry">
            <Array as="points">
              <mxPoint x="240" y="200" />
              <mxPoint x="240" y="200" />
            </Array>
          </mxGeometry>
        </mxCell>
        <mxCell id="J2kn3hOLBCIMcvKlOA2d-1" value="Selected Profile&lt;div&gt;Details&lt;/div&gt;" style="edgeStyle=orthogonalEdgeStyle;rounded=0;orthogonalLoop=1;jettySize=auto;html=1;exitX=0;exitY=1;exitDx=0;exitDy=0;entryX=0;entryY=1;entryDx=0;entryDy=0;" edge="1" parent="1" source="KMRb3lKE4DDrbl_DnfYs-1" target="o3f6-bipMCMXzn1ICwC2-2">
          <mxGeometry relative="1" as="geometry">
            <Array as="points">
              <mxPoint x="40" y="490" />
            </Array>
          </mxGeometry>
        </mxCell>
        <mxCell id="J2kn3hOLBCIMcvKlOA2d-3" value="Filter" style="edgeStyle=orthogonalEdgeStyle;rounded=0;orthogonalLoop=1;jettySize=auto;html=1;exitX=1;exitY=0.5;exitDx=0;exitDy=0;entryX=0;entryY=0.25;entryDx=0;entryDy=0;" edge="1" parent="1" source="KMRb3lKE4DDrbl_DnfYs-1" target="ZIPjsl-_XZ9fQCzCdQY7-3">
          <mxGeometry relative="1" as="geometry" />
        </mxCell>
        <mxCell id="J2kn3hOLBCIMcvKlOA2d-5" value="Selected Profile" style="edgeStyle=orthogonalEdgeStyle;rounded=0;orthogonalLoop=1;jettySize=auto;html=1;exitX=1;exitY=1;exitDx=0;exitDy=0;entryX=0;entryY=0.25;entryDx=0;entryDy=0;" edge="1" parent="1" source="KMRb3lKE4DDrbl_DnfYs-1" target="tgFxibH1JUlSfQ2uwyam-6">
          <mxGeometry relative="1" as="geometry">
            <Array as="points">
              <mxPoint x="240" y="370" />
              <mxPoint x="240" y="373" />
            </Array>
          </mxGeometry>
        </mxCell>
        <mxCell id="KMRb3lKE4DDrbl_DnfYs-1" value="USER" style="rounded=0;whiteSpace=wrap;html=1;" vertex="1" parent="1">
          <mxGeometry x="40" y="200" width="120" height="170" as="geometry" />
        </mxCell>
        <mxCell id="KMRb3lKE4DDrbl_DnfYs-10" value="Login Outcome" style="edgeStyle=orthogonalEdgeStyle;rounded=0;orthogonalLoop=1;jettySize=auto;html=1;exitX=0;exitY=0.5;exitDx=0;exitDy=0;entryX=0.5;entryY=0;entryDx=0;entryDy=0;" edge="1" parent="1" source="8Rx85V0oip0guXbSuWZj-2" target="KMRb3lKE4DDrbl_DnfYs-1">
          <mxGeometry relative="1" as="geometry" />
        </mxCell>
        <mxCell id="KMRb3lKE4DDrbl_DnfYs-18" value="User ID" style="edgeStyle=orthogonalEdgeStyle;rounded=0;orthogonalLoop=1;jettySize=auto;html=1;exitX=0;exitY=1;exitDx=0;exitDy=0;entryX=1;entryY=0;entryDx=0;entryDy=0;" edge="1" parent="1" source="KMRb3lKE4DDrbl_DnfYs-12" target="tgFxibH1JUlSfQ2uwyam-2">
          <mxGeometry relative="1" as="geometry">
            <Array as="points">
              <mxPoint x="510" y="200" />
            </Array>
          </mxGeometry>
        </mxCell>
        <mxCell id="KMRb3lKE4DDrbl_DnfYs-12" value="T&lt;span style=&quot;white-space: pre;&quot;&gt;&#x9;&lt;/span&gt;Session" style="html=1;dashed=0;whiteSpace=wrap;shape=mxgraph.dfd.dataStoreID;align=left;spacingLeft=3;points=[[0,0],[0.5,0],[1,0],[0,0.5],[1,0.5],[0,1],[0.5,1],[1,1]];" vertex="1" parent="1">
          <mxGeometry x="510" y="150" width="100" height="30" as="geometry" />
        </mxCell>
        <mxCell id="KMRb3lKE4DDrbl_DnfYs-15" value="User ID" style="edgeStyle=orthogonalEdgeStyle;rounded=0;orthogonalLoop=1;jettySize=auto;html=1;exitX=1;exitY=0.75;exitDx=0;exitDy=0;entryX=0;entryY=0.5;entryDx=0;entryDy=0;" edge="1" parent="1" source="8Rx85V0oip0guXbSuWZj-2" target="KMRb3lKE4DDrbl_DnfYs-12">
          <mxGeometry relative="1" as="geometry">
            <Array as="points">
              <mxPoint x="420" y="165" />
            </Array>
          </mxGeometry>
        </mxCell>
        <mxCell id="bWyaAFaZW_XGtSQXYd4O-2" value="Filters" style="edgeStyle=orthogonalEdgeStyle;rounded=0;orthogonalLoop=1;jettySize=auto;html=1;exitX=1;exitY=0.25;exitDx=0;exitDy=0;entryX=0;entryY=0.5;entryDx=0;entryDy=0;" edge="1" parent="1" source="ZIPjsl-_XZ9fQCzCdQY7-3" target="bWyaAFaZW_XGtSQXYd4O-1">
          <mxGeometry relative="1" as="geometry" />
        </mxCell>
        <mxCell id="ZIPjsl-_XZ9fQCzCdQY7-3" value="4" style="swimlane;fontStyle=0;childLayout=stackLayout;horizontal=1;startSize=20;fillColor=#ffffff;horizontalStack=0;resizeParent=1;resizeParentMax=0;resizeLast=0;collapsible=0;marginBottom=0;swimlaneFillColor=#ffffff;" vertex="1" parent="1">
          <mxGeometry x="320" y="280" width="100" height="50" as="geometry" />
        </mxCell>
        <mxCell id="ZIPjsl-_XZ9fQCzCdQY7-4" value="Page" style="text;html=1;align=center;verticalAlign=middle;whiteSpace=wrap;rounded=0;" vertex="1" parent="ZIPjsl-_XZ9fQCzCdQY7-3">
          <mxGeometry y="20" width="100" height="30" as="geometry" />
        </mxCell>
        <mxCell id="J2kn3hOLBCIMcvKlOA2d-4" value="Profile with similar&amp;nbsp;&lt;div&gt;age and location&lt;br&gt;with the selected filters&lt;/div&gt;" style="edgeStyle=orthogonalEdgeStyle;rounded=0;orthogonalLoop=1;jettySize=auto;html=1;exitX=0;exitY=0.5;exitDx=0;exitDy=0;entryX=1;entryY=0.75;entryDx=0;entryDy=0;" edge="1" parent="1" source="ZIPjsl-_XZ9fQCzCdQY7-4" target="KMRb3lKE4DDrbl_DnfYs-1">
          <mxGeometry x="0.0003" relative="1" as="geometry">
            <mxPoint as="offset" />
          </mxGeometry>
        </mxCell>
        <mxCell id="bWyaAFaZW_XGtSQXYd4O-3" value="Profile with similar&amp;nbsp;&lt;div&gt;age and location&lt;br&gt;with the selected filters&lt;/div&gt;" style="edgeStyle=orthogonalEdgeStyle;rounded=0;orthogonalLoop=1;jettySize=auto;html=1;exitX=0.5;exitY=1;exitDx=0;exitDy=0;entryX=1;entryY=0.75;entryDx=0;entryDy=0;" edge="1" parent="1">
          <mxGeometry x="0.0027" relative="1" as="geometry">
            <mxPoint x="561" y="308" as="sourcePoint" />
            <mxPoint x="421" y="322.5" as="targetPoint" />
            <Array as="points">
              <mxPoint x="561" y="340" />
              <mxPoint x="466" y="340" />
              <mxPoint x="466" y="322" />
            </Array>
            <mxPoint as="offset" />
          </mxGeometry>
        </mxCell>
        <mxCell id="bWyaAFaZW_XGtSQXYd4O-1" value="D&lt;span style=&quot;white-space: pre;&quot;&gt;&#x9;&lt;/span&gt;User" style="html=1;dashed=0;whiteSpace=wrap;shape=mxgraph.dfd.dataStoreID;align=left;spacingLeft=3;points=[[0,0],[0.5,0],[1,0],[0,0.5],[1,0.5],[0,1],[0.5,1],[1,1]];" vertex="1" parent="1">
          <mxGeometry x="510" y="278" width="100" height="30" as="geometry" />
        </mxCell>
        <mxCell id="bWyaAFaZW_XGtSQXYd4O-7" value="User ID" style="edgeStyle=orthogonalEdgeStyle;rounded=0;orthogonalLoop=1;jettySize=auto;html=1;exitX=0;exitY=1;exitDx=0;exitDy=0;entryX=1;entryY=0;entryDx=0;entryDy=0;" edge="1" parent="1" source="bWyaAFaZW_XGtSQXYd4O-4" target="ZIPjsl-_XZ9fQCzCdQY7-3">
          <mxGeometry relative="1" as="geometry">
            <Array as="points">
              <mxPoint x="465" y="270" />
              <mxPoint x="420" y="270" />
            </Array>
          </mxGeometry>
        </mxCell>
        <mxCell id="bWyaAFaZW_XGtSQXYd4O-4" value="T&lt;span style=&quot;white-space: pre;&quot;&gt;&#x9;&lt;/span&gt;Session" style="html=1;dashed=0;whiteSpace=wrap;shape=mxgraph.dfd.dataStoreID;align=left;spacingLeft=3;points=[[0,0],[0.5,0],[1,0],[0,0.5],[1,0.5],[0,1],[0.5,1],[1,1]];" vertex="1" parent="1">
          <mxGeometry x="510" y="239" width="100" height="30" as="geometry" />
        </mxCell>
        <mxCell id="wplPQ90fLq6QOK8kK0x2-1" value="Friend Request to&lt;br&gt;Selected Profile" style="edgeStyle=orthogonalEdgeStyle;rounded=0;orthogonalLoop=1;jettySize=auto;html=1;exitX=1;exitY=0.25;exitDx=0;exitDy=0;entryX=0.789;entryY=0.941;entryDx=0;entryDy=0;entryPerimeter=0;" edge="1" parent="1" source="tgFxibH1JUlSfQ2uwyam-7" target="bWyaAFaZW_XGtSQXYd4O-1">
          <mxGeometry x="-0.002" relative="1" as="geometry">
            <mxPoint as="offset" />
          </mxGeometry>
        </mxCell>
        <mxCell id="wplPQ90fLq6QOK8kK0x2-3" value="Meet Request to Selected Profile" style="edgeStyle=orthogonalEdgeStyle;rounded=0;orthogonalLoop=1;jettySize=auto;html=1;exitX=1;exitY=1;exitDx=0;exitDy=0;entryX=1;entryY=0;entryDx=0;entryDy=0;" edge="1" parent="1" source="o3f6-bipMCMXzn1ICwC2-2" target="bWyaAFaZW_XGtSQXYd4O-1">
          <mxGeometry relative="1" as="geometry">
            <Array as="points">
              <mxPoint x="660" y="490" />
              <mxPoint x="660" y="278" />
            </Array>
          </mxGeometry>
        </mxCell>
        <mxCell id="ZWQclqRfyV4n4K1NEXpU-4" value="D&lt;span style=&quot;white-space: pre;&quot;&gt;&#x9;&lt;/span&gt;Friends" style="html=1;dashed=0;whiteSpace=wrap;shape=mxgraph.dfd.dataStoreID;align=left;spacingLeft=3;points=[[0,0],[0.5,0],[1,0],[0,0.5],[1,0.5],[0,1],[0.5,1],[1,1]];" vertex="1" parent="1">
          <mxGeometry x="510" y="414" width="100" height="30" as="geometry" />
        </mxCell>
        <mxCell id="ZWQclqRfyV4n4K1NEXpU-6" value="&lt;div&gt;Selected&amp;nbsp;&lt;span style=&quot;background-color: light-dark(#ffffff, var(--ge-dark-color, #121212)); color: light-dark(rgb(0, 0, 0), rgb(255, 255, 255));&quot;&gt;Profile&lt;/span&gt;&lt;/div&gt;" style="edgeStyle=orthogonalEdgeStyle;rounded=0;orthogonalLoop=1;jettySize=auto;html=1;exitX=1;exitY=0.75;exitDx=0;exitDy=0;entryX=0;entryY=0.5;entryDx=0;entryDy=0;" edge="1" parent="1" source="tgFxibH1JUlSfQ2uwyam-7" target="ZWQclqRfyV4n4K1NEXpU-4">
          <mxGeometry x="-0.0053" relative="1" as="geometry">
            <mxPoint as="offset" />
          </mxGeometry>
        </mxCell>
        <mxCell id="ZWQclqRfyV4n4K1NEXpU-8" value="User ID" style="edgeStyle=orthogonalEdgeStyle;rounded=0;orthogonalLoop=1;jettySize=auto;html=1;exitX=0;exitY=0;exitDx=0;exitDy=0;entryX=0.75;entryY=1;entryDx=0;entryDy=0;" edge="1" parent="1" source="ZWQclqRfyV4n4K1NEXpU-7" target="tgFxibH1JUlSfQ2uwyam-7">
          <mxGeometry relative="1" as="geometry" />
        </mxCell>
        <mxCell id="ZWQclqRfyV4n4K1NEXpU-7" value="T&lt;span style=&quot;white-space: pre;&quot;&gt;&#x9;&lt;/span&gt;Session" style="html=1;dashed=0;whiteSpace=wrap;shape=mxgraph.dfd.dataStoreID;align=left;spacingLeft=3;points=[[0,0],[0.5,0],[1,0],[0,0.5],[1,0.5],[0,1],[0.5,1],[1,1]];" vertex="1" parent="1">
          <mxGeometry x="440" y="450" width="100" height="30" as="geometry" />
        </mxCell>
      </root>
    </mxGraphModel>
  </diagram>
  <diagram id="gKqdCBnvdvwz6SE2EtAS" name="Page-7">
    <mxGraphModel dx="734" dy="559" grid="1" gridSize="10" guides="1" tooltips="1" connect="1" arrows="1" fold="1" page="1" pageScale="1" pageWidth="1169" pageHeight="827" math="0" shadow="0">
      <root>
        <mxCell id="0" />
        <mxCell id="1" parent="0" />
        <mxCell id="Q2XYcmdhEYjxNaLbyYW7-3" style="edgeStyle=orthogonalEdgeStyle;rounded=0;orthogonalLoop=1;jettySize=auto;html=1;exitX=0;exitY=0;exitDx=0;exitDy=0;entryX=1;entryY=0;entryDx=0;entryDy=0;" edge="1" parent="1" source="Q2XYcmdhEYjxNaLbyYW7-1" target="O1JV0Tpf2Vvmxze4fwoM-18">
          <mxGeometry relative="1" as="geometry">
            <mxPoint x="1020" y="490" as="targetPoint" />
            <Array as="points">
              <mxPoint x="440" y="200" />
              <mxPoint x="1070" y="200" />
            </Array>
          </mxGeometry>
        </mxCell>
        <mxCell id="O1JV0Tpf2Vvmxze4fwoM-2" value="Registration Details" style="edgeLabel;html=1;align=center;verticalAlign=middle;resizable=0;points=[];" vertex="1" connectable="0" parent="Q2XYcmdhEYjxNaLbyYW7-3">
          <mxGeometry x="-0.1514" y="2" relative="1" as="geometry">
            <mxPoint x="37" as="offset" />
          </mxGeometry>
        </mxCell>
        <mxCell id="Q2XYcmdhEYjxNaLbyYW7-4" style="edgeStyle=orthogonalEdgeStyle;rounded=0;orthogonalLoop=1;jettySize=auto;html=1;exitX=0.25;exitY=0;exitDx=0;exitDy=0;entryX=0.889;entryY=0.005;entryDx=0;entryDy=0;entryPerimeter=0;" edge="1" parent="1" source="Q2XYcmdhEYjxNaLbyYW7-1" target="O1JV0Tpf2Vvmxze4fwoM-18">
          <mxGeometry relative="1" as="geometry">
            <mxPoint x="995" y="490" as="targetPoint" />
            <Array as="points">
              <mxPoint x="460" y="350" />
              <mxPoint x="460" y="220" />
              <mxPoint x="1053" y="220" />
            </Array>
          </mxGeometry>
        </mxCell>
        <mxCell id="O1JV0Tpf2Vvmxze4fwoM-3" value="Login" style="edgeLabel;html=1;align=center;verticalAlign=middle;resizable=0;points=[];" vertex="1" connectable="0" parent="Q2XYcmdhEYjxNaLbyYW7-4">
          <mxGeometry x="-0.1703" y="1" relative="1" as="geometry">
            <mxPoint x="56" as="offset" />
          </mxGeometry>
        </mxCell>
        <mxCell id="Q2XYcmdhEYjxNaLbyYW7-5" style="edgeStyle=orthogonalEdgeStyle;rounded=0;orthogonalLoop=1;jettySize=auto;html=1;exitX=0.5;exitY=0;exitDx=0;exitDy=0;entryX=0.75;entryY=0;entryDx=0;entryDy=0;" edge="1" parent="1" source="Q2XYcmdhEYjxNaLbyYW7-1" target="O1JV0Tpf2Vvmxze4fwoM-18">
          <mxGeometry relative="1" as="geometry">
            <mxPoint x="970" y="490" as="targetPoint" />
            <Array as="points">
              <mxPoint x="480" y="350" />
              <mxPoint x="480" y="240" />
              <mxPoint x="1033" y="240" />
            </Array>
          </mxGeometry>
        </mxCell>
        <mxCell id="O1JV0Tpf2Vvmxze4fwoM-9" value="Personal Information" style="edgeLabel;html=1;align=center;verticalAlign=middle;resizable=0;points=[];" vertex="1" connectable="0" parent="Q2XYcmdhEYjxNaLbyYW7-5">
          <mxGeometry x="-0.2" y="-1" relative="1" as="geometry">
            <mxPoint x="81" as="offset" />
          </mxGeometry>
        </mxCell>
        <mxCell id="O1JV0Tpf2Vvmxze4fwoM-8" style="edgeStyle=orthogonalEdgeStyle;rounded=0;orthogonalLoop=1;jettySize=auto;html=1;exitX=0.75;exitY=0;exitDx=0;exitDy=0;entryX=0.667;entryY=0;entryDx=0;entryDy=0;entryPerimeter=0;" edge="1" parent="1" source="Q2XYcmdhEYjxNaLbyYW7-1" target="O1JV0Tpf2Vvmxze4fwoM-18">
          <mxGeometry relative="1" as="geometry">
            <mxPoint x="945" y="490" as="targetPoint" />
            <Array as="points">
              <mxPoint x="500" y="350" />
              <mxPoint x="500" y="260" />
              <mxPoint x="1020" y="260" />
            </Array>
          </mxGeometry>
        </mxCell>
        <mxCell id="O1JV0Tpf2Vvmxze4fwoM-11" value="Updated Information" style="edgeLabel;html=1;align=center;verticalAlign=middle;resizable=0;points=[];" vertex="1" connectable="0" parent="O1JV0Tpf2Vvmxze4fwoM-8">
          <mxGeometry x="-0.2339" relative="1" as="geometry">
            <mxPoint x="105" as="offset" />
          </mxGeometry>
        </mxCell>
        <mxCell id="O1JV0Tpf2Vvmxze4fwoM-20" style="edgeStyle=orthogonalEdgeStyle;rounded=0;orthogonalLoop=1;jettySize=auto;html=1;exitX=1;exitY=0;exitDx=0;exitDy=0;entryX=0.5;entryY=0;entryDx=0;entryDy=0;" edge="1" parent="1" source="Q2XYcmdhEYjxNaLbyYW7-1" target="O1JV0Tpf2Vvmxze4fwoM-18">
          <mxGeometry relative="1" as="geometry">
            <Array as="points">
              <mxPoint x="520" y="350" />
              <mxPoint x="520" y="280" />
              <mxPoint x="995" y="280" />
            </Array>
          </mxGeometry>
        </mxCell>
        <mxCell id="O1JV0Tpf2Vvmxze4fwoM-21" value="Interests/ looking for" style="edgeLabel;html=1;align=center;verticalAlign=middle;resizable=0;points=[];" vertex="1" connectable="0" parent="O1JV0Tpf2Vvmxze4fwoM-20">
          <mxGeometry x="-0.3981" y="-1" relative="1" as="geometry">
            <mxPoint x="188" as="offset" />
          </mxGeometry>
        </mxCell>
        <mxCell id="O1JV0Tpf2Vvmxze4fwoM-25" style="edgeStyle=orthogonalEdgeStyle;rounded=0;orthogonalLoop=1;jettySize=auto;html=1;exitX=0.75;exitY=0;exitDx=0;exitDy=0;entryX=0.25;entryY=0;entryDx=0;entryDy=0;" edge="1" parent="1" source="Q2XYcmdhEYjxNaLbyYW7-1" target="O1JV0Tpf2Vvmxze4fwoM-18">
          <mxGeometry relative="1" as="geometry">
            <Array as="points">
              <mxPoint x="560" y="350" />
              <mxPoint x="560" y="320" />
              <mxPoint x="958" y="320" />
            </Array>
          </mxGeometry>
        </mxCell>
        <mxCell id="O1JV0Tpf2Vvmxze4fwoM-26" value="Chosen meeting location" style="edgeLabel;html=1;align=center;verticalAlign=middle;resizable=0;points=[];" vertex="1" connectable="0" parent="O1JV0Tpf2Vvmxze4fwoM-25">
          <mxGeometry x="-0.102" y="-2" relative="1" as="geometry">
            <mxPoint as="offset" />
          </mxGeometry>
        </mxCell>
        <mxCell id="O1JV0Tpf2Vvmxze4fwoM-33" style="edgeStyle=orthogonalEdgeStyle;rounded=0;orthogonalLoop=1;jettySize=auto;html=1;exitX=1;exitY=0;exitDx=0;exitDy=0;entryX=0;entryY=0;entryDx=0;entryDy=0;" edge="1" parent="1" source="Q2XYcmdhEYjxNaLbyYW7-1" target="O1JV0Tpf2Vvmxze4fwoM-18">
          <mxGeometry relative="1" as="geometry">
            <Array as="points">
              <mxPoint x="640" y="360" />
              <mxPoint x="920" y="360" />
            </Array>
          </mxGeometry>
        </mxCell>
        <mxCell id="O1JV0Tpf2Vvmxze4fwoM-34" value="Friend/Meet Accept" style="edgeLabel;html=1;align=center;verticalAlign=middle;resizable=0;points=[];" vertex="1" connectable="0" parent="O1JV0Tpf2Vvmxze4fwoM-33">
          <mxGeometry x="-0.2919" y="-2" relative="1" as="geometry">
            <mxPoint as="offset" />
          </mxGeometry>
        </mxCell>
        <mxCell id="Q2XYcmdhEYjxNaLbyYW7-1" value="user" style="html=1;dashed=0;whiteSpace=wrap;" vertex="1" parent="1">
          <mxGeometry x="440" y="350" width="200" height="50" as="geometry" />
        </mxCell>
        <mxCell id="O1JV0Tpf2Vvmxze4fwoM-4" style="edgeStyle=orthogonalEdgeStyle;rounded=0;orthogonalLoop=1;jettySize=auto;html=1;entryX=0;entryY=1;entryDx=0;entryDy=0;exitX=1;exitY=1;exitDx=0;exitDy=0;" edge="1" parent="1" source="O1JV0Tpf2Vvmxze4fwoM-18" target="Q2XYcmdhEYjxNaLbyYW7-1">
          <mxGeometry relative="1" as="geometry">
            <mxPoint x="1050" y="630" as="sourcePoint" />
            <Array as="points">
              <mxPoint x="1070" y="690" />
              <mxPoint x="440" y="690" />
            </Array>
          </mxGeometry>
        </mxCell>
        <mxCell id="O1JV0Tpf2Vvmxze4fwoM-15" value="Registration Confirmation" style="edgeLabel;html=1;align=center;verticalAlign=middle;resizable=0;points=[];" vertex="1" connectable="0" parent="O1JV0Tpf2Vvmxze4fwoM-4">
          <mxGeometry x="-0.1463" y="-3" relative="1" as="geometry">
            <mxPoint as="offset" />
          </mxGeometry>
        </mxCell>
        <mxCell id="O1JV0Tpf2Vvmxze4fwoM-5" style="edgeStyle=orthogonalEdgeStyle;rounded=0;orthogonalLoop=1;jettySize=auto;html=1;entryX=0.25;entryY=1;entryDx=0;entryDy=0;exitX=0.867;exitY=1;exitDx=0;exitDy=0;exitPerimeter=0;" edge="1" parent="1" source="O1JV0Tpf2Vvmxze4fwoM-18">
          <mxGeometry relative="1" as="geometry">
            <mxPoint x="980" y="560" as="sourcePoint" />
            <mxPoint x="470" y="399.46" as="targetPoint" />
            <Array as="points">
              <mxPoint x="1050" y="670" />
              <mxPoint x="471" y="670" />
              <mxPoint x="471" y="400" />
            </Array>
          </mxGeometry>
        </mxCell>
        <mxCell id="O1JV0Tpf2Vvmxze4fwoM-16" value="Meet up/Friend Requests" style="edgeLabel;html=1;align=center;verticalAlign=middle;resizable=0;points=[];" vertex="1" connectable="0" parent="O1JV0Tpf2Vvmxze4fwoM-5">
          <mxGeometry x="-0.1765" y="-1" relative="1" as="geometry">
            <mxPoint as="offset" />
          </mxGeometry>
        </mxCell>
        <mxCell id="O1JV0Tpf2Vvmxze4fwoM-6" style="edgeStyle=orthogonalEdgeStyle;rounded=0;orthogonalLoop=1;jettySize=auto;html=1;exitX=0.648;exitY=1.005;exitDx=0;exitDy=0;entryX=0.5;entryY=1;entryDx=0;entryDy=0;exitPerimeter=0;" edge="1" parent="1" source="O1JV0Tpf2Vvmxze4fwoM-18">
          <mxGeometry relative="1" as="geometry">
            <mxPoint x="880" y="527.5" as="sourcePoint" />
            <mxPoint x="500" y="400" as="targetPoint" />
            <Array as="points">
              <mxPoint x="1030" y="540" />
              <mxPoint x="1030" y="650" />
              <mxPoint x="501" y="650" />
              <mxPoint x="501" y="400" />
            </Array>
          </mxGeometry>
        </mxCell>
        <mxCell id="O1JV0Tpf2Vvmxze4fwoM-17" value="Catalogue with filters" style="edgeLabel;html=1;align=center;verticalAlign=middle;resizable=0;points=[];" vertex="1" connectable="0" parent="O1JV0Tpf2Vvmxze4fwoM-6">
          <mxGeometry x="-0.3041" y="-2" relative="1" as="geometry">
            <mxPoint x="-49" as="offset" />
          </mxGeometry>
        </mxCell>
        <mxCell id="O1JV0Tpf2Vvmxze4fwoM-7" style="edgeStyle=orthogonalEdgeStyle;rounded=0;orthogonalLoop=1;jettySize=auto;html=1;exitX=0.627;exitY=1.051;exitDx=0;exitDy=0;entryX=0.75;entryY=1;entryDx=0;entryDy=0;exitPerimeter=0;" edge="1" parent="1" source="O1JV0Tpf2Vvmxze4fwoM-18">
          <mxGeometry relative="1" as="geometry">
            <mxPoint x="860" y="502.5" as="sourcePoint" />
            <mxPoint x="530" y="400" as="targetPoint" />
            <Array as="points">
              <mxPoint x="1014" y="630" />
              <mxPoint x="531" y="630" />
              <mxPoint x="531" y="400" />
            </Array>
          </mxGeometry>
        </mxCell>
        <mxCell id="O1JV0Tpf2Vvmxze4fwoM-14" value="Other user profiles with similar interests" style="edgeLabel;html=1;align=center;verticalAlign=middle;resizable=0;points=[];" vertex="1" connectable="0" parent="O1JV0Tpf2Vvmxze4fwoM-7">
          <mxGeometry x="-0.2171" relative="1" as="geometry">
            <mxPoint as="offset" />
          </mxGeometry>
        </mxCell>
        <mxCell id="O1JV0Tpf2Vvmxze4fwoM-36" style="edgeStyle=orthogonalEdgeStyle;rounded=0;orthogonalLoop=1;jettySize=auto;html=1;exitX=0.25;exitY=1;exitDx=0;exitDy=0;entryX=0.75;entryY=1;entryDx=0;entryDy=0;" edge="1" parent="1" source="O1JV0Tpf2Vvmxze4fwoM-18" target="Q2XYcmdhEYjxNaLbyYW7-1">
          <mxGeometry relative="1" as="geometry" />
        </mxCell>
        <mxCell id="O1JV0Tpf2Vvmxze4fwoM-37" value="Meet request Location" style="edgeLabel;html=1;align=center;verticalAlign=middle;resizable=0;points=[];" vertex="1" connectable="0" parent="O1JV0Tpf2Vvmxze4fwoM-36">
          <mxGeometry x="-0.2512" y="-1" relative="1" as="geometry">
            <mxPoint as="offset" />
          </mxGeometry>
        </mxCell>
        <mxCell id="O1JV0Tpf2Vvmxze4fwoM-18" value="app" style="html=1;dashed=0;whiteSpace=wrap;" vertex="1" parent="1">
          <mxGeometry x="920" y="490" width="150" height="50" as="geometry" />
        </mxCell>
        <mxCell id="O1JV0Tpf2Vvmxze4fwoM-22" style="edgeStyle=orthogonalEdgeStyle;rounded=0;orthogonalLoop=1;jettySize=auto;html=1;entryX=0.333;entryY=0;entryDx=0;entryDy=0;entryPerimeter=0;" edge="1" parent="1" target="O1JV0Tpf2Vvmxze4fwoM-18">
          <mxGeometry relative="1" as="geometry">
            <mxPoint x="590" y="350" as="sourcePoint" />
            <Array as="points">
              <mxPoint x="540" y="350" />
              <mxPoint x="540" y="300" />
              <mxPoint x="970" y="300" />
            </Array>
          </mxGeometry>
        </mxCell>
        <mxCell id="O1JV0Tpf2Vvmxze4fwoM-23" value="Search with filters" style="edgeLabel;html=1;align=center;verticalAlign=middle;resizable=0;points=[];" vertex="1" connectable="0" parent="O1JV0Tpf2Vvmxze4fwoM-22">
          <mxGeometry x="-0.3838" y="1" relative="1" as="geometry">
            <mxPoint x="119" as="offset" />
          </mxGeometry>
        </mxCell>
        <mxCell id="O1JV0Tpf2Vvmxze4fwoM-24" style="edgeStyle=orthogonalEdgeStyle;rounded=0;orthogonalLoop=1;jettySize=auto;html=1;exitX=0.5;exitY=1;exitDx=0;exitDy=0;entryX=0.55;entryY=1;entryDx=0;entryDy=0;entryPerimeter=0;" edge="1" parent="1" source="O1JV0Tpf2Vvmxze4fwoM-18" target="Q2XYcmdhEYjxNaLbyYW7-1">
          <mxGeometry relative="1" as="geometry">
            <Array as="points">
              <mxPoint x="995" y="600" />
              <mxPoint x="550" y="600" />
            </Array>
          </mxGeometry>
        </mxCell>
        <mxCell id="O1JV0Tpf2Vvmxze4fwoM-35" value="Friend/Meet Confirmation" style="edgeLabel;html=1;align=center;verticalAlign=middle;resizable=0;points=[];" vertex="1" connectable="0" parent="O1JV0Tpf2Vvmxze4fwoM-24">
          <mxGeometry x="-0.2118" y="-1" relative="1" as="geometry">
            <mxPoint as="offset" />
          </mxGeometry>
        </mxCell>
        <mxCell id="O1JV0Tpf2Vvmxze4fwoM-27" style="edgeStyle=orthogonalEdgeStyle;rounded=0;orthogonalLoop=1;jettySize=auto;html=1;exitX=0.75;exitY=0;exitDx=0;exitDy=0;entryX=0.133;entryY=0;entryDx=0;entryDy=0;entryPerimeter=0;" edge="1" parent="1" source="Q2XYcmdhEYjxNaLbyYW7-1" target="O1JV0Tpf2Vvmxze4fwoM-18">
          <mxGeometry relative="1" as="geometry">
            <Array as="points">
              <mxPoint x="590" y="340" />
              <mxPoint x="940" y="340" />
            </Array>
          </mxGeometry>
        </mxCell>
        <mxCell id="O1JV0Tpf2Vvmxze4fwoM-29" value="Friend Request" style="edgeLabel;html=1;align=center;verticalAlign=middle;resizable=0;points=[];" vertex="1" connectable="0" parent="O1JV0Tpf2Vvmxze4fwoM-27">
          <mxGeometry x="-0.2057" relative="1" as="geometry">
            <mxPoint as="offset" />
          </mxGeometry>
        </mxCell>
      </root>
    </mxGraphModel>
  </diagram>
</mxfile>
